<?xml version="1.0" standalone="no"?>
<!DOCTYPE svg PUBLIC "-//W3C//DTD SVG 1.1//EN" "http://www.w3.org/Graphics/SVG/1.1/DTD/svg11.dtd" >
<svg xmlns="http://www.w3.org/2000/svg">
<metadata>Generated by IcoMoon</metadata>
<defs>
<font id="grona_templates" horiz-adv-x="1024">
<font-face units-per-em="1024" ascent="960" descent="-64" />
<missing-glyph horiz-adv-x="1024" />
<glyph unicode="&#x20;" horiz-adv-x="512" d="" />
<glyph unicode="&#xe900;" glyph-name="github" d="M512.008 947.358c-282.738 0-512.008-229.218-512.008-511.998 0-226.214 146.704-418.132 350.136-485.836 25.586-4.738 34.992 11.11 34.992 24.632 0 12.204-0.48 52.542-0.696 95.324-142.448-30.976-172.504 60.41-172.504 60.41-23.282 59.176-56.848 74.916-56.848 74.916-46.452 31.778 3.51 31.124 3.51 31.124 51.4-3.61 78.476-52.766 78.476-52.766 45.672-78.27 119.776-55.64 149.004-42.558 4.588 33.086 17.852 55.68 32.506 68.464-113.73 12.942-233.276 56.85-233.276 253.032 0 55.898 20.004 101.574 52.76 137.428-5.316 12.9-22.854 64.972 4.952 135.5 0 0 43.006 13.752 140.84-52.49 40.836 11.348 84.636 17.036 128.154 17.234 43.502-0.198 87.336-5.886 128.256-17.234 97.734 66.244 140.656 52.49 140.656 52.49 27.872-70.528 10.35-122.6 5.036-135.5 32.82-35.856 52.694-81.532 52.694-137.428 0-196.654-119.778-239.95-233.79-252.624 18.364-15.89 34.724-47.046 34.724-94.812 0-68.508-0.596-123.644-0.596-140.508 0-13.628 9.222-29.594 35.172-24.566 203.322 67.776 349.842 259.626 349.842 485.768 0 282.78-229.234 511.998-511.992 511.998z" />
<glyph unicode="&#xe901;" glyph-name="myspace" d="M464 768c-44.125 0-80-35.875-80-80s35.875-80 80-80c44.125 0 80 35.875 80 80s-35.875 80-80 80zM672 768c-53 0-96-43-96-96s43-96 96-96c53 0 96 43 96 96s-43 96-96 96zM288 736c-35.375 0-64-28.625-64-64s28.625-64 64-64c35.375 0 64 28.625 64 64s-28.625 64-64 64zM288 576c-78 0-96-72.625-96-89v-167h161v-96h159v-128h320c-0.125 0 0 234.375 0 282 0 52.25-48.75 143-148 143-68.375 0-96.75-21.375-119-38-20.625 35.875-63.75 64-102 64s-65.875-11.875-90-35c-5 17.625-30 64-85 64z" />
<glyph unicode="&#xe902;" glyph-name="reddit" d="M597 832c-67.125 0-117-54.625-117-117v-108c-88.25-4.625-168.25-28-233-65-24.75 23.875-57.75 34-90 34-34.875 0-70.375-11.375-95-39v-1l-1-1c-23.625-29.5-33.25-68.875-27-108 5.75-35.875 26.75-72.375 63-96-0.25-3.625-1-7.25-1-11 0-83.375 50.375-156.375 126-207s177.625-81 290-81c112.375 0 214.375 30.375 290 81s126 123.625 126 207c0 3.75-0.75 7.375-1 11 36.25 23.625 57.25 60.125 63 96 6.25 39.125-3.375 78.5-27 108l-1 1c-24.625 27.625-60.125 40-95 40-32.25 0-65.25-10.125-90-34-64.75 37-144.75 60.375-233 65v108c0 31.375 17.875 53 53 53 16.625 0 37.25-7.875 69-19 27-9.5 62-20 107-23 10.875-31.25 40.25-54 75-54 44 0 80 36 80 80s-36 80-80 80c-30.25 0-56.375-17.125-70-42-38.375 2.25-66.125 10.25-91 19-28.875 10.125-55.5 23-90 23zM512 544c100.875 0 190.875-27.75 254-70s98-96.5 98-154c0-57.5-34.875-111.75-98-154s-153.125-70-254-70c-100.875 0-190.875 27.75-254 70s-98 96.5-98 154c0 57.5 34.875 111.75 98 154s153.125 70 254 70zM157 512c12.125 0 24.125-3 34-8-34.75-29.125-61.75-63.75-78-102-8.125 10.25-13 22.5-15 35-3.5 21.5 2.75 43.75 13 57 0.125 0.25-0.125 0.75 0 1 9.75 10.25 27 17 46 17zM867 512c19 0 36.25-6.75 46-17 0.125-0.125-0.125-0.875 0-1 10.25-13.25 16.5-35.5 13-57-2-12.5-6.875-24.75-15-35-16.25 38.25-43.25 72.875-78 102 9.875 5 21.875 8 34 8zM352 448c-35.375 0-64-28.625-64-64s28.625-64 64-64c35.375 0 64 28.625 64 64s-28.625 64-64 64zM672 448c-35.375 0-64-28.625-64-64s28.625-64 64-64c35.375 0 64 28.625 64 64s-28.625 64-64 64zM680 271c-36.75-34.125-98.5-56-168-56s-131.25 22.125-168 52c20.5-55.5 86.25-107 168-107s147.5 51.25 168 111z" />
<glyph unicode="&#xe903;" glyph-name="search1" d="M418.721 867.5c179.804 0 326.221-146.417 326.221-326.221 0-78.115-27.397-149.73-73.4-205.927l259.957-259.957-46.894-46.894-259.957 259.957c-56.197-46.002-127.812-73.4-205.927-73.4-179.804 0-326.221 146.417-326.221 326.221s146.417 326.221 326.221 326.221zM418.721 802.256c-144.506 0-260.977-116.471-260.977-260.977s116.471-260.977 260.977-260.977c144.506 0 260.977 116.471 260.977 260.977s-116.471 260.977-260.977 260.977z" />
<glyph unicode="&#xe904;" glyph-name="services" d="M688 880v-45c-26.75-4.75-51.625-14.875-73-30l-33 31-44-47 32-30c-14.375-21-24.375-45-29-71h-45v-64h45c4.625-26.5 15.125-50.75 30-72l-34-33 46-46 33 34c21.25-14.875 45.5-25.375 72-30v-45h64v45c26 4.625 50 14.625 71 29l30-32 47 44-31 33c15.125 21.375 25.25 46.25 30 73h45v64h-45c-4.625 26.5-15.125 50.75-30 72l30 30-45 45-30-30c-21.25 14.875-45.5 25.375-72 30v45zM720 774c65.75 0 118-52.25 118-118s-52.25-118-118-118c-65.75 0-118 52.25-118 118s52.25 118 118 118zM305 585l-59-24 23-58c-30.5-18.25-56.5-43.75-75-74l-57 23-24-59 57-23c-4.25-16.875-7-34.75-7-53s2.75-36 7-53l-57-23 24-59 57 23c18.5-30.75 44.25-56.5 75-75l-23-57 59-24 23 57c17-4.25 34.625-7 53-7 18.25 0 36.125 2.75 53 7l23-57 59 24-23 57c30.25 18.5 55.75 44.5 74 75l58-23 24 59-58 23c4.25 17 7 34.75 7 53s-2.75 36.125-7 53l58 23-24 59-58-23c-18.25 30.125-43.75 55.75-74 74l23 58-59 24-23-58c-17 4.25-34.75 7-53 7s-36-2.75-53-7zM381 470c85.25 0 153-67.75 153-153s-67.75-154-153-154c-85.25 0-154 68.75-154 154s68.75 153 154 153z" />
<glyph unicode="&#xe905;" glyph-name="stumbleupon" d="M512 832c-211.25 0-384-172.75-384-384s172.75-384 384-384c211.25 0 384 172.75 384 384s-172.75 384-384 384zM512 608c-19.25 0-32-12.75-32-32v-192c0-54.375-41.625-96-96-96s-96 41.625-96 96v64h64v-64c0-19.25 12.75-32 32-32s32 12.75 32 32v192c0 54.375 41.625 96 96 96s96-41.625 96-96v-32c0-19.25-12.75-32-32-32s-32 12.75-32 32v32c0 19.25-12.75 32-32 32zM736 384c0-54.375-41.625-96-96-96s-96 41.625-96 96v73.625c9.625-6.375 19.25-9.625 32-9.625s22.375 3.25 32 9.625v-73.625c0-19.25 12.75-32 32-32s32 12.75 32 32v64h64z" />
<glyph unicode="&#xe906;" glyph-name="tumblr" d="M455 800c-21.75 0-40-18.25-40-40 0-48.375-24.5-82.125-52-106-13.75-12-28.5-21.125-39-27-5.25-2.875-9-4.625-12-6-1.5-0.75-2.25-1.75-3-2s-3.875-1-1 0c-15.5-6.125-26-20.5-26-37v-71c0-21.75 18.25-40 40-40h36v-167c0-11.375 0-59 22-108s72.375-100 155-100c125.875 0 188.375 49.875 193 54 8.625 7.625 14 18.875 14 30v85c0 14.25-8.5 28-21 35-12 6.625-26.625 5.25-39-2l-1 1c0 0-1-1-1-1-2.25-1.25-37-21-75-21-19.75 0-21.125 5.625-25 13s-5 20-5 17v158h99c21.75 0 40 18.125 40 40v96c0 21.875-18.25 40-40 40h-99v119c0 21.75-18.25 40-40 40zM473 736h38v-159h139v-48h-139v-222c0-5.5 0.25-24.25 12-47s41.375-47 82-47c28.875 0 53.875 6.875 73 14v-33c-8.375-6.625-45.625-34-143-34-58.875 0-80.5 27.625-96 62s-17 75.375-17 82v231h-76v31c3.125 1.625 6 2.75 10 5 13.5 7.5 31 19.25 49 35 31.375 27.375 59.875 72.625 68 130z" />
<glyph unicode="&#xe907;" glyph-name="unavailable" d="M512 864c-229.375 0-416-186.625-416-416s186.625-416 416-416c229.375 0 416 186.625 416 416s-186.625 416-416 416zM512 800c194.75 0 352-157.25 352-352 0-87.25-31.625-166.625-84-228l-491 501c60.625 49.625 138.25 79 223 79zM244 676l491-501c-60.625-49.625-138.25-79-223-79-194.75 0-352 157.25-352 352 0 87.25 31.625 166.625 84 228z" />
<glyph unicode="&#xe908;" glyph-name="about" d="M64 768v-640h160v-163l52 42 151 121h533v640zM128 704h768v-512h-491l-9-7-108-86v93h-160zM480 640v-64h64v64zM480 512v-256h64v256z" />
<glyph unicode="&#xe909;" glyph-name="safety-shower" d="M512 832v-64h-42l-8-5-96-64-14-10v-81h384v81l-14 10-96 64-8 5h-42v64zM490 704h108l48-32h-204zM352 544c-17.625 0-32-14.375-32-32s14.375-32 32-32c17.625 0 32 14.375 32 32s-14.375 32-32 32zM480 544c-17.625 0-32-14.375-32-32s14.375-32 32-32c17.625 0 32 14.375 32 32s-14.375 32-32 32zM608 544c-17.625 0-32-14.375-32-32s14.375-32 32-32c17.625 0 32 14.375 32 32s-14.375 32-32 32zM736 544c-17.625 0-32-14.375-32-32s14.375-32 32-32c17.625 0 32 14.375 32 32s-14.375 32-32 32zM320 416c-17.625 0-32-14.375-32-32s14.375-32 32-32c17.625 0 32 14.375 32 32s-14.375 32-32 32zM544 416c-70.375 0-128-57.625-128-128 0-35.625 15.25-67.75 39-91-42.625-28.875-71-78-71-133h64c0 53.375 42.625 96 96 96s96-42.625 96-96h64c0 55-28.375 104.125-71 133 23.75 23.25 39 55.375 39 91 0 70.375-57.625 128-128 128zM768 416c-17.625 0-32-14.375-32-32s14.375-32 32-32c17.625 0 32 14.375 32 32s-14.375 32-32 32zM544 352c35.75 0 64-28.25 64-64s-28.25-64-64-64c-35.75 0-64 28.25-64 64s28.25 64 64 64zM288 288c-17.625 0-32-14.375-32-32s14.375-32 32-32c17.625 0 32 14.375 32 32s-14.375 32-32 32zM800 288c-17.625 0-32-14.375-32-32s14.375-32 32-32c17.625 0 32 14.375 32 32s-14.375 32-32 32zM256 160c-17.625 0-32-14.375-32-32s14.375-32 32-32c17.625 0 32 14.375 32 32s-14.375 32-32 32zM832 160c-17.625 0-32-14.375-32-32s14.375-32 32-32c17.625 0 32 14.375 32 32s-14.375 32-32 32z" />
<glyph unicode="&#xe90a;" glyph-name="therapy" d="M240 739c-62.875 0-115-52.125-115-115s52.125-115 115-115c62.875 0 115 52.125 115 115s-52.125 115-115 115zM240 669c25.5 0 45-19.5 45-45s-19.5-45-45-45c-25.5 0-45 19.5-45 45s19.5 45 45 45zM116 537l-40-50 270-210-58-117h64l48 96h384l48-96h64l-48 96h80v64h-533zM323 522l-39-51 136-106v1h1c11.125-8.375 24.125-14 38-14h139c12.625 0 25.5 4 36 11l75 50 177-59 20 60-177 59c-18.625 6.125-39.625 3.875-56-7l-75-50h-139z" />
<glyph unicode="&#xe90b;" glyph-name="massage" d="M592 832c-61.5 0-112-50.5-112-112s50.5-112 112-112c61.5 0 112 50.5 112 112s-50.5 112-112 112zM592 768c26.875 0 48-21.125 48-48s-21.125-48-48-48c-26.875 0-48 21.125-48 48s21.125 48 48 48zM726 597c-5.625-0.375-11.5-1.625-17-3l-50-12c-25.5-6.375-47-23.125-60-46l-86-152h74l48 87 41-87h70l-64 138 42 10c14.75 3.875 30.5-3.125 37-17l61-131h70l-73 158c-17 36.5-54 57.625-93 55zM240 416c-61.5 0-112-50.5-112-112s50.5-112 112-112c61.5 0 112 50.5 112 112s-50.5 112-112 112zM240 352c26.875 0 48-21.125 48-48s-21.125-48-48-48c-26.875 0-48 21.125-48 48s21.125 48 48 48zM480 352c-52.625 0-96-43.375-96-96v-50l-78-78h-178v-64h205l10 9 87 87h306v-64h192v64h-128v128h128v64zM480 288h256v-64h-288v32c0 18.125 13.875 32 32 32z" />
<glyph unicode="&#xe90c;" glyph-name="video-call" d="M64 704v-512h704v108l192-96v488l-192-96v108zM128 640h576v-384h-576zM896 588v-280l-128 64v152z" />
<glyph unicode="&#xe90d;" glyph-name="call" d="M724 863c-10.25-1-20.75-3.75-31-8v1c-0.5-0.125-1.5-0.875-2-1-77.875-27.375-227-96-362-231-136-136-201.625-287.875-231-363v-1c-13-38.875-3.75-81 22-111l1-1v-1l100-99c26.5-26.5 72.5-26.5 99 0l131 131c26.5 26.5 26.5 73.5 0 100l-63 63c11 22.875 39.5 79.125 90 132 50.125 52.5 107.625 79.25 130 89l66-66 3-2c15-10 32.125-15.625 50-15 16.75 0.625 34.125 8.875 47 23l1-1 2 3 129 128c26.5 26.5 26.5 73.5 0 100l-99 99c-14 14-32.875 24.5-53 29-9.75 2.125-19.75 3-30 2zM729 799c12.125 0.875 24.25-4.25 32-12l100-99c5.5-5.5 5.5-3.5 0-9l-134-134c0.125 0.125 0-0.875-3-1-2.5-0.125-6.25 2-10 4h-2l-75 76-15 15-19-7c0 0-98.375-36.75-172-114-72.375-75.75-112-169-112-169l-8-20 15-16 80-80c5.5-5.5 5.5-3.5 0-9l-131-131c-5.5-5.5-3.5-5.5-9 0l-98 97c-0.25 0.25 0.25 0.75 0 1l-1 1c-11.125 13.875-14.5 28.625-9 46 0.125 0.375-0.125 0.625 0 1 28.375 72.25 90.875 213.875 217 340 126.625 126.625 270.25 191.75 340 216l1 1h1c3.875 1.75 8 2.75 12 3z" />
<glyph unicode="&#xe90e;" glyph-name="cell-phone" d="M288 896v-736c0-16.75 5.875-33.875 18-46s29.25-18 46-18h320c16.75 0 33.875 5.875 46 18s18 29.25 18 46v576c0 16.75-5.875 33.875-18 46s-29.25 18-46 18h-320v96zM352 736h320v-128h-320zM352 544h320v-384h-320zM384 480v-64h64v64zM480 480v-64h64v64zM576 480v-64h64v64zM384 384v-64h64v64zM480 384v-64h64v64zM576 384v-64h64v64zM384 288v-64h64v64zM480 288v-64h64v64zM576 288v-64h64v64z" />
<glyph unicode="&#xe90f;" glyph-name="headset" d="M512 864c-193.5 0-352-158.5-352-352v-192c0-41.375 27-76.625 64-90v-6c0-87.875 72.125-160 160-160h41c11.125-19.125 31.375-32 55-32h64c35.25 0 64 28.75 64 64s-28.75 64-64 64h-64c-23.625 0-43.875-12.875-55-32h-41c-53 0-96 43-96 96h64v288h-128c0 158.5 129.5 288 288 288s288-129.5 288-288h-128v-288h96c52.625 0 96 43.375 96 96v192c0 193.5-158.5 352-352 352zM224 448h64v-160h-32c-17.75 0-32 14.25-32 32zM736 448h64v-128c0-17.75-14.25-32-32-32h-32z" />
<glyph unicode="&#xe910;" glyph-name="bebo" d="M551.375 653.75h-144.5c-18.75 0-34 15.125-34 33.875v85.875c0 32.375-26.125 58.5-58.375 58.5-32.375 0-58.5-26.125-58.5-58.5v-386.75c0-142.875 115.875-258.75 258.75-258.75h36.625c142.875 0 258.75 115.875 258.75 258.75v8.25c0.125 142.875-115.75 258.75-258.75 258.75zM557.625 244.875h-45.875c-76.625 0-138.75 62.125-138.75 138.75v91.25c0 34.125 27.625 61.875 61.875 61.875h122c75.25 0 136.25-61 136.25-136.25v-20.125c0-74.75-60.625-135.5-135.5-135.5z" />
<glyph unicode="&#xe911;" glyph-name="gps-signal" d="M528 816v-64c159.5 0 288-128.5 288-288h64c0 194-158 352-352 352zM528 688v-64c88.75 0 160-71.25 160-160h64c0 123.375-100.625 224-224 224zM253 685l-22-22c-136.625-136.625-136.625-359.375 0-496s359.375-136.625 496 0l22 22-22 23-176 176c32.75 10 57 39.875 57 76 0 44.125-35.875 80-80 80-36.125 0-66-24.25-76-57l-176 176zM258 590l396-396c-112.625-89.375-273.75-86.25-378 18s-107.375 265.375-18 378z" />
<glyph unicode="&#xe912;" glyph-name="map" d="M896 817l-45-20-212-91-244 92-12 4-12-5-243-104v-614l45 20 212 91 244-92 12-4 12 5 243 104zM416 722l192-72v-476l-192 72zM352 720v-475l-160-69v475zM832 720v-475l-160-69v475z" />
<glyph unicode="&#xe913;" glyph-name="iphone" d="M352 832c-52.625 0-96-43.375-96-96v-576c0-52.625 43.375-96 96-96h320c52.625 0 96 43.375 96 96v576c0 52.625-43.375 96-96 96zM352 768h320c17.75 0 32-14.25 32-32v-576c0-17.75-14.25-32-32-32h-320c-17.75 0-32 14.25-32 32v576c0 17.75 14.25 32 32 32zM512 224c-17.625 0-32-14.375-32-32s14.375-32 32-32c17.625 0 32 14.375 32 32s-14.375 32-32 32z" />
<glyph unicode="&#xe914;" glyph-name="mobile" d="M224 832c-16.75 0-33.875-5.875-46-18s-18-29.25-18-46v-512c0-16.75 5.875-33.875 18-46s29.25-18 46-18h192v-64c0-16.75 5.875-33.875 18-46s29.25-18 46-18h320c16.75 0 33.875 5.875 46 18s18 29.25 18 46v512c0 16.75-5.875 33.875-18 46s-29.25 18-46 18h-192v64c0 16.75-5.875 33.875-18 46s-29.25 18-46 18zM224 768h320v-64h-64c-16.75 0-33.875-5.875-46-18s-18-29.25-18-46v-288h-80v-64h80v-32h-192zM480 640h320v-512h-320zM592 224v-64h96v64z" />
<glyph unicode="&#xe915;" glyph-name="map-marker" d="M704 864c-105.625 0-192-86.375-192-192 0-31.75 12.25-64.125 28-100s35.625-73.875 56-109c40.75-70.25 82-129 82-129l26-38 26 38c0 0 41.25 58.75 82 129 20.375 35.125 40.25 73.125 56 109s28 68.25 28 100c0 105.625-86.375 192-192 192zM383 802l-255-109v-614l257 111 256-96 255 109v279c-20.375-39.125-43-76.625-64-110v-127l-160-68v52l-47 68c-5 7.25-10.875 15.875-17 25v-148l-192 72v476l35-13c3.125 21.625 8.75 42.5 17 62zM704 800c71 0 128-57 128-128 0-12.375-7.75-41.625-22-74s-34.375-69.125-54-103c-26.125-45-37.375-61-52-83-14.625 22-25.875 38-52 83-19.625 33.875-39.75 70.625-54 103s-22 61.625-22 74c0 71 57 128 128 128zM352 720v-475l-160-68v474zM704 720c-26.5 0-48-21.5-48-48s21.5-48 48-48c26.5 0 48 21.5 48 48s-21.5 48-48 48z" />
<glyph unicode="&#xe916;" glyph-name="phone1" d="M277 864c-16.75 0-33.25-6-47-17l-2-1-1-1-100-103 1-1c-30.875-28.5-40.375-71.125-27-108 0.125-0.25-0.125-0.75 0-1 27.125-77.625 96.5-227.5 232-363 136-136 287.875-202.625 363-232h1c38.875-13 81-3.75 111 22l101 101c26.5 26.5 26.5 72.5 0 99l-130 130-1 2c-26.5 26.5-73.5 26.5-100 0l-64-64c-23.125 11.125-78.25 39.625-131 90-52.375 50-79.125 107.5-89 130l64 64c26.875 26.875 27.375 71.625-1 98l1 1-3 3-129 133-2 1c-13.75 11-30.25 17-47 17zM277 800c2.375 0 4.75-1.125 7-3l131-134c-0.25 0.25 1.875-3.125-2-7l-80-80-15-14 7-20c0 0 36.75-98.375 114-172l7-6c74.375-67.875 162-105 162-105l20-9 95 95c5.5 5.5 4.5 5.5 10 0l131-131c5.5-5.5 5.5-3.5 0-9l-98-98c-14.75-12.625-30.375-15.25-49-9-72.5 28.5-213.375 90.375-339 216-126.625 126.625-192.75 270.25-217 340-4.875 13-1.375 32.25 10 42l2 2 97 99c2.25 1.875 4.625 3 7 3z" />
<glyph unicode="&#xe917;" glyph-name="sim-card" d="M288 832c-16.75 0-33.875-5.875-46-18s-18-29.25-18-46v-640c0-16.75 5.875-33.875 18-46s29.25-18 46-18h448c16.75 0 33.875 5.875 46 18s18 29.25 18 46v467c0 16.75-8.875 34.875-19 45l-173 173c-10.125 10.125-28.25 19-45 19zM288 768h275l173-173v-467h-448zM352 480v-288h320v288zM416 416h192v-160h-192z" />
<glyph unicode="&#xe918;" glyph-name="smartphones" d="M192 832c-16.75 0-33.875-5.875-46-18s-18-29.25-18-46v-448c0-16.75 5.875-33.875 18-46s29.25-18 46-18h128v-32c0-16.75 5.875-33.875 18-46s29.25-18 46-18h128v-32c0-16.75 5.875-33.875 18-46s29.25-18 46-18h256c16.75 0 33.875 5.875 46 18s18 29.25 18 46v448c0 16.75-5.875 33.875-18 46s-29.25 18-46 18h-128v32c0 16.75-5.875 33.875-18 46s-29.25 18-46 18h-128v32c0 16.75-5.875 33.875-18 46s-29.25 18-46 18zM192 768h256v-32h-64c-16.75 0-33.875-5.875-46-18s-18-29.25-18-46v-256h-48v-64h48v-32h-128zM384 672h256v-32h-64c-16.75 0-33.875-5.875-46-18s-18-29.25-18-46v-256h-48v-64h48v-32h-128zM576 576h256v-448h-256zM656 224v-64h96v64z" />
<glyph unicode="&#xe919;" glyph-name="telephone" d="M512 832c-153.875 0-245.75-18.375-303.75-41-28.875-11.25-49.375-23.625-63.875-34.75s-24.125-21.5-25.625-22.875h-0.125c-13.125-11.5-17.5-25.5-20-37.875-2.5-12.5-2.875-24.625-2.5-36.5 0.75-23.75 4.625-46.25 6.875-58.125 7-36.75 36.875-61.75 71-56.25 7.25 1.25 14.125 3 25.75 5.875 11.75 3 26.375 6.625 41 10.375 29.25 7.375 60.375 15.25 66.375 16.625 28.125 6.25 41.5 28.25 48.875 50.5v0.125c-0.5-1.75 5.25 12.75 12.125 28.125 7 15.5 15.875 34.875 24.625 53.75 12.25 26.625 18.125 39.125 24.125 52 31 2.125 55.375 6 95.125 6s64.125-3.875 95.25-6.125c6-12.875 11.75-25.25 24-51.875 8.75-18.875 17.5-38.25 24.5-53.75s12.875-30.25 12.25-28.375v0.125c7.375-22 20.5-44.625 49.5-50.625 4.5-1 35.875-9 65-16.375 14.625-3.75 29.125-7.5 41-10.375 12-2.875 19-4.875 26.875-6.125h0.125c33.875-5 63.375 19.25 70.5 56.375 2.25 11.875 6.125 34.375 6.875 58.125 0.375 11.75 0 24-2.5 36.5-2.5 12.375-7 26.375-20.125 37.875-1.625 1.375-11.25 11.75-25.75 22.875-14.375 11.125-34.875 23.5-63.875 34.75-58 22.5-149.875 41-303.625 41zM344 757.25c-4.375-9.5-4.625-10-9.5-20.5-8.625-19-17.625-38.375-24.75-54.25-7-15.875-11.375-24.75-14.5-34.25v-0.25h-0.125c-2.75-8.25-8.625-9.625-2.125-8.125-10.375-2.375-38.75-9.625-68-17-14.5-3.75-29-7.375-40.5-10.125-9.125-2.25-14.375-3.375-16.75-4-0.75 0.625-1.375 1.875-1.75 4.125-2 10.5-5.375 30.5-6 48.125-0.25 8.75 0.375 16.875 1.375 21.75 0.5 2.5 1.125 3.75 1.375 4.125 7 6.5 11.375 11.625 20.5 18.625 9.875 7.5 24.5 16.625 48.25 25.875 25.125 9.75 62.75 18.875 112.5 25.875zM680 757.25c49.625-7 87.25-16.125 112.5-26 23.75-9.125 38.375-18.25 48.25-25.875 9.125-7 13.5-12 20.625-18.5 0.125-0.375 0.875-1.75 1.25-4.125 1-5 1.625-13.125 1.375-21.875-0.625-17.5-4-37.625-6-48-0.5-2.5-1.375-3.5-2.125-4-2.625 0.5-7.75 1.625-17 3.875-11.625 2.875-26 6.5-40.5 10.25-28.875 7.375-55.875 14.5-67.5 17 6-1.375 0.625-0.125-2 8v0.125l-0.125 0.125c-3.125 9.5-7.5 18.375-14.625 34.25-7 15.875-16 35.25-24.75 54.25-4.875 10.5-5 11-9.375 20.5zM384 608v-81.375c-11.125-8.125-51.125-36.5-102.625-88-58.125-58.125-121.375-132-121.375-214.625v-160h141.25l32 32h357.5l32-32h141.25v160c0 82.625-63.25 156.5-121.375 214.625-51.5 51.5-91.5 79.875-102.625 88v81.375h-96v-32h-64v32zM163.75 607.875c0.125 0 0 0 0.125 0 0 0-0.25-0.125-0.25 0zM448 512h128v-16.5l13.375-9.5c0 0 54.125-38.75 108-92.625s102.625-124 102.625-169.375v-96h-50.75l-32 32h-410.5l-32-32h-50.75v96c0 45.375 48.75 115.5 102.625 169.375s108 92.625 108 92.625l13.375 9.5zM384 384v-64h64v64zM480 384v-64h64v64zM576 384v-64h64v64zM384 288v-64h64v64zM480 288v-64h64v64zM576 288v-64h64v64z" />
<glyph unicode="&#xe91a;" glyph-name="touchscreen" d="M320 832c-16.75 0-33.875-5.875-46-18s-18-29.25-18-46v-640c0-16.75 5.875-33.875 18-46s29.25-18 46-18h384c16.75 0 33.875 5.875 46 18s18 29.25 18 46v640c0 16.75-5.875 33.875-18 46s-29.25 18-46 18zM320 768h384v-640h-384zM512 736c-17.625 0-32-14.375-32-32s14.375-32 32-32c17.625 0 32 14.375 32 32s-14.375 32-32 32zM448 224v-64h128v64z" />
<glyph unicode="&#xe91b;" glyph-name="block" d="M96 768v-640h832v640zM160 704h192v-128h-192zM416 704h192v-128h-192zM672 704h192v-128h-192zM160 512h64v-128h-64zM288 512h192v-128h-192zM544 512h192v-128h-192zM800 512h64v-128h-64zM160 320h192v-128h-192zM416 320h192v-128h-192zM672 320h192v-128h-192z" />
<glyph unicode="&#xe91c;" glyph-name="user" d="M512 800c-123.375 0-224-100.625-224-224 0-77.125 39.375-145.625 99-186-114.125-49-195-162.25-195-294h64c0 92.5 48.875 173 122 218 21.5-52.75 73.875-90 134-90s112.5 37.25 134 90c73.125-45 122-125.5 122-218h64c0 131.75-80.875 245-195 294 59.625 40.375 99 108.875 99 186 0 123.375-100.625 224-224 224zM512 736c88.75 0 160-71.25 160-160s-71.25-160-160-160c-88.75 0-160 71.25-160 160s71.25 160 160 160zM512 352c26.25 0 51.25-3.75 75-11-11.125-30.875-40.125-53-75-53s-63.875 22.125-75 53c23.75 7.25 48.75 11 75 11z" />
<glyph unicode="&#xe91d;" glyph-name="marker" d="M512 864c-158.625 0-288-129.375-288-288 0-45 18.25-96.625 43-153s56.625-116.25 89-172c64.75-111.625 130-205 130-205l26-38 26 38c0 0 65.25 93.375 130 205 32.375 55.75 64.25 115.625 89 172s43 108 43 153c0 158.625-129.375 288-288 288zM512 800c124.125 0 224-99.875 224-224 0-25.625-13.75-74.125-37-127s-55.375-111.5-87-166c-50.25-86.75-81.5-132.625-100-160-18.5 27.375-49.75 73.25-100 160-31.625 54.5-63.75 113.125-87 166s-37 101.375-37 127c0 124.125 99.875 224 224 224zM512 640c-35.375 0-64-28.625-64-64s28.625-64 64-64c35.375 0 64 28.625 64 64s-28.625 64-64 64z" />
<glyph unicode="&#xe91e;" glyph-name="gps" d="M512 818l-29-70-256-608-29-68 69 26 245 92 314-118-29 68-256 608zM512 655l198-471-198 74-11-4-187-70z" />
<glyph unicode="&#xe91f;" glyph-name="paper-plane" d="M896 832l-60-29-692-333-48-22 43-32 149-112v-241l46 23 144 69 187-129 38-27 11 46 167 722zM804 716l-141-611-143 98 138 304 45 100-91-59-290-189-103 77zM555 434l-99-218-104-51v138z" />
<glyph unicode="&#xe920;" glyph-name="launch" d="M512 874l-21-17c0 0-41.125-34.625-83-82s-88-106.875-88-173c0-45.375 11.125-109.875 24-173l-22-15c-41.875-29-63-80-53-130l20-98 9-47 40 26 88 59h172l88-59 40-26 9 47 20 98c10 50-11.125 101-53 130l-22 15c13 63.375 24 128.125 24 173 0 65.625-46.125 124.375-88 172s-84 83-84 83zM512 787c13.125-11.625 28.125-23.25 56-55 38.25-43.5 72-100.375 72-130 0-40.5-15.125-128-31-202-13.125-60.875-21.75-95.125-26-112h-142c-4.25 16.75-13 50.5-26 111-15.875 73.625-31 161.375-31 203 0 31.125 34 86.875 72 130 28 31.75 43.125 43.625 56 55zM512 618c-35.75 0-65-29.25-65-65s29.25-64 65-64c35.75 0 65 28.25 65 64s-29.25 65-65 65zM358 362c9.375-42.5 16.375-72.25 21-91l-37-25-10 50c-5 25.125 5 51.375 26 66zM665 362h1c21-14.625 31-40.875 26-66l-10-50-37 25c4.5 18.75 10.625 48.75 20 91zM416 192c0-96.5 76-153 76-153l20-15 19 14c0 0 77 57 77 154h-64c0-39.25-17-64.875-32-82-15 17.375-32 43.375-32 82z" />
<glyph unicode="&#xe921;" glyph-name="rocket" d="M829 832c-22.25 0-53.25-1-86-4-65.5-6.125-141.125-17.125-188-64-39.375-39.375-120.75-143.875-196-242-14.875-19.375-14.25-19-28-37l-55 3c-40.875 2.125-80.25-15.125-106-47l-67-82-33-42 52-10 105-21 123-123 21-105 11-52 41 33 82 67c31.875 25.75 49.125 65.125 47 106l-3 54c18.625 14.125 18 13.75 38 29 98.375 75.375 203.25 156.25 242 195 46.5 46.5 56.875 123.25 63 189s3 122 3 122l-1 29-29 1c0 0-13.75 1-36 1zM800 768c12.75 0 21.75-0.75 31-1 0.375-18.625 1.125-38-3-82-5.625-60.625-24.125-128.125-45-149-28.5-28.5-137-114.875-235-190-86.625-66.375-147.625-113-165-126l-98 98c13.125 17.625 58 78.875 124 165 75 97.75 161.625 206.625 191 236 21.875 21.875 88.625 40.375 149 46 21.875 2 38.25 3 51 3zM654 655c-35.75 0-64-29.25-64-65s28.25-65 64-65c35.75 0 65 29.25 65 65s-29.25 65-65 65zM272 424l12-1c-19.25-25.5-50.75-66.375-55-72l-43 9 33 40c12.875 15.875 32.5 25.125 53 24zM199 258c-27.375-27.375-43-65.25-54-97s-16-58-16-58l-10-47 47 9c0 0 25.5 4.375 57 15s69.375 26.375 98 55l-45 45c-14.25-14.25-42.5-26.75-68-36 9.75 26.625 24 56.875 36 69zM487 220l1-12c1.125-20.5-7-40.125-23-53l-41-33-9 43c5.625 4.125 46.5 35.875 72 55z" />
<glyph unicode="&#xe922;" glyph-name="place-marker" d="M512 864c-123.375 0-224-100.625-224-224 0-36.125 14.25-75.25 33-118s42.625-88 67-130c48.75-84 98-154 98-154l26-38 26 38c0 0 49.25 70 98 154 24.375 42 48.25 87.25 67 130s33 81.875 33 118c0 123.375-100.625 224-224 224zM512 800c88.75 0 160-71.25 160-160 0-16.875-9.75-52.75-27-92s-41.375-83.25-65-124c-34.25-59.125-51.75-84.75-68-109-16.25 24.25-33.75 49.875-68 109-23.625 40.75-47.75 84.75-65 124s-27 75.125-27 92c0 88.75 71.25 160 160 160zM512 704c-35.375 0-64-28.625-64-64s28.625-64 64-64c35.375 0 64 28.625 64 64s-28.625 64-64 64zM349 338c-123.875-22.5-221-71.75-221-146 0-105 193.125-160 384-160s384 55 384 160c0 74.25-97.125 123.5-221 146l-39-59c120.875-17.5 196-57.875 196-87 0-38.25-127.625-96-320-96s-320 57.75-320 96c0 29.125 75.125 69.5 196 87z" />
<glyph unicode="&#xe923;" glyph-name="aircraft" d="M782 768l-402-30c-33.75-2.5-60-31.125-60-65 0-35.625 29.375-65 65-65h63v-36l-210-26-48 59c-18.25 22.375-46.125 35-75 35h-95l78-234 3-10 9-6c0 0 191.25-134 498-134 122.875 0 215.875 26.75 280 63 18.125 10.25 34.125 20.625 48 32l-8-95h64l-12 146c7.75 14.625 12 29.875 12 46 0 15.25-5.25 28.25-13 39l13 153h-64l10-119c-16.75 10.125-35.125 19-55 26-38.75 13.75-80.375 23.125-115 27v34h16c43.75 0 80 36.25 80 80s-36.25 80-80 80zM784 704c9.125 0 16-6.875 16-16s-6.875-16-16-16h-399c-1 0-1 0-1 1 0 0.875 0.125 0.875 1 1zM512 608h192v-60c0.125 0 0.5 0.25 0-1-1.125-2.375-3.5-6.125-9-11-11.125-9.75-37.125-24-97-24-43.25 0-63.75 12.375-75 23-8 7.5-10.125 12.25-11 15zM108 576h7c9.625 0 18.875-4.5 25-12l59-72 11-14 18 2 238 30c4.75-8.625 3.625-11.25 14-21 22.75-21.375 61.125-41 118-41 70.375 0 113.75 17.75 139 40 8.125 7.125 11.5 14 16 21 28.25-2.125 69.625-8.375 108-22 22.25-7.875 42-17.25 54-26s13-14.25 13-13c0-5.875-18.25-43.25-71-73s-135.5-55-249-55c-279 0-443.125 110.5-454 118zM736 256c-35.375 0-64-28.625-64-64s28.625-64 64-64c35.375 0 64 28.625 64 64s-28.625 64-64 64z" />
<glyph unicode="&#xe924;" glyph-name="user-groups" d="M368 768c-61.5 0-112-50.5-112-112s50.5-112 112-112c61.5 0 112 50.5 112 112s-50.5 112-112 112zM656 768c-61.5 0-112-50.5-112-112s50.5-112 112-112c61.5 0 112 50.5 112 112s-50.5 112-112 112zM368 704c26.875 0 48-21.125 48-48s-21.125-48-48-48c-26.875 0-48 21.125-48 48s21.125 48 48 48zM656 704c26.875 0 48-21.125 48-48s-21.125-48-48-48c-26.875 0-48 21.125-48 48s21.125 48 48 48zM224 576c-70.375 0-128-57.625-128-128 0-35.625 15.25-67.75 39-91-42.625-28.875-71-78-71-133h64c0 53.375 42.625 96 96 96s96-42.625 96-96h64c0 55-28.375 104.125-71 133 23.75 23.25 39 55.375 39 91 0 70.375-57.625 128-128 128zM384 224c-20-26.75-32-60.375-32-96h64c0 53.375 42.625 96 96 96s96-42.625 96-96h64c0 35.625-12 69.25-32 96-10.875 14.5-24 26.875-39 37 23.75 23.25 39 55.375 39 91 0 70.375-57.625 128-128 128s-128-57.625-128-128c0-35.625 15.25-67.75 39-91-15-10.125-28.125-22.5-39-37zM640 224h64c0 53.375 42.625 96 96 96s96-42.625 96-96h64c0 55-28.375 104.125-71 133 23.75 23.25 39 55.375 39 91 0 70.375-57.625 128-128 128s-128-57.625-128-128c0-35.625 15.25-67.75 39-91-42.625-28.875-71-78-71-133zM224 512c35.75 0 64-28.25 64-64s-28.25-64-64-64c-35.75 0-64 28.25-64 64s28.25 64 64 64zM800 512c35.75 0 64-28.25 64-64s-28.25-64-64-64c-35.75 0-64 28.25-64 64s28.25 64 64 64zM512 416c35.75 0 64-28.25 64-64s-28.25-64-64-64c-35.75 0-64 28.25-64 64s28.25 64 64 64z" />
<glyph unicode="&#xe925;" glyph-name="signpost" d="M480 800v-64h-320v-288h655l9 11 114 133-114 133-9 11h-271v64zM224 672h561l69-80-69-80h-561zM480 416v-320h64v320z" />
<glyph unicode="&#xe926;" glyph-name="street-view" d="M512 832c-70.375 0-128-57.625-128-128 0-35.625 15.25-67.75 39-91-42.625-28.875-71-78-71-133v-148l64-32v-140h192v140l64 32v148c0 55-28.375 104.125-71 133 23.75 23.25 39 55.375 39 91 0 70.375-57.625 128-128 128zM512 768c35.75 0 64-28.25 64-64s-28.25-64-64-64c-35.75 0-64 28.25-64 64s28.25 64 64 64zM512 576c53.375 0 96-42.625 96-96v-108l-64-32v-116h-64v116l-64 32v108c0 53.375 42.625 96 96 96zM288 356c-93.375-26.125-160-70.375-160-132 0-105 193.125-160 384-160s384 55 384 160c0 61.625-66.625 105.875-160 132v-67c60.875-19.625 96-45 96-65 0-38.25-127.625-96-320-96s-320 57.75-320 96c0 20 35.125 45.375 96 65z" />
<glyph unicode="&#xe927;" glyph-name="shopping-bag" horiz-adv-x="992" d="M493.707 960c-108.154 0-196.923-88.769-196.923-196.923v-39.382h-194.459l-2.459-36.924-39.382-708.923-2.459-41.847h871.382l-2.459 41.847-39.382 708.923-2.459 36.924h-194.459v39.382c0 108.154-88.769 196.923-196.923 196.923zM493.707 881.229c65.229 0 118.153-52.924 118.153-118.153v-39.382h-236.306v39.382c0 65.229 52.924 118.153 118.153 118.153zM176.167 644.923h120.618v-118.153h78.771v118.153h236.306v-118.153h78.771v118.153h120.618l34.459-630.153h-704z" />
<glyph unicode="&#xe928;" glyph-name="shopping-cart" d="M160 736c-17.625 0-32-14.375-32-32s14.375-32 32-32h71l84-336c7.125-28.5 32.625-48 62-48h367c28.875 0 53.375 19.125 61 47l83 305h-536l16-64h437l-61-224h-367l-84 336c-7.125 28.5-32.625 48-62 48zM704 288c-52.625 0-96-43.375-96-96s43.375-96 96-96c52.625 0 96 43.375 96 96s-43.375 96-96 96zM416 288c-52.625 0-96-43.375-96-96s43.375-96 96-96c52.625 0 96 43.375 96 96s-43.375 96-96 96zM416 224c18 0 32-14 32-32s-14-32-32-32c-18 0-32 14-32 32s14 32 32 32zM704 224c18 0 32-14 32-32s-14-32-32-32c-18 0-32 14-32 32s14 32 32 32z" />
<glyph unicode="&#xe929;" glyph-name="fingerprint-scan" d="M128 832v-160h64v96h96v64zM736 832v-64h96v-96h64v160zM402 800c-106.5-52.375-167.5-159.25-177-266v-2l-1-1v-14c-0.125-18.375 0.875-42.75 4-72l63 6c-2.75 26-3.125 48.75-3 65v12c7.625 86.125 58.125 173.75 142 215zM544 736c-134.625 0-214.625-105.25-224-211v-10c-0.25-28.125 2.5-76.125 16-131h-208v-64h768v64h-128v32h-32c-28.5 0-36.375 8.25-40 12-17.5 18-24.25 63.375-24 83 0 34.625-12.875 66.625-37 91s-56.75 38-91 38c-76.875 0-122.5-59.25-128-121v-6c-0.125-26.625 2.5-75.375 19-129h-33c-15.5 54.375-18.25 102.875-18 130v8c6.625 74.75 63.875 150 160 150 42.875 0 82.75-16.5 113-47 30.125-30.375 47-71.375 47-115h64c0 60.625-22.875 117.5-65 160-42.375 42.75-99 66-159 66zM544 576c17 0 33-6.875 45-19 12.25-12.25 19-28.875 19-46 0-0.875-1-82.375 41-127h-40c-34.75 54.875-33 126.25-33 127 0 0.375 0 0.625 0 1 0 17.625-14.375 32-32 32-17.25 0-31.375-13.875-32-31-0.125-3.625-1-66.25 26-129h-35c-20 52.75-23.25 104.125-23 132 2.5 28.875 23.75 60 64 60zM387 256c15-25.125 33.625-49.875 56-73 22.625-23.5 47.625-44.25 75-61l34 55c-22.75 14-44.125 31.375-63 51-8.875 9.125-16.625 18.25-24 28zM506 256c1.875-2 4-4 6-6 56.75-58.75 134.25-90 224-90v64c-48.125 0-91.25 11.125-128 32zM128 224v-160h160v64h-96v96zM832 224v-96h-96v-64h160v160z" />
<glyph unicode="&#xe92a;" glyph-name="edit-profile" d="M416 864c-123.375 0-224-100.625-224-224 0-77.125 39.375-145.625 99-186-114.125-49-195-162.25-195-294h64c0 141.75 114.25 256 256 256 68.625 0 130-28.125 176-72l-151-151-2-10-22-113-10-47 47 10 123 24 323 323c37.125 37.125 37.125 98.875 0 136-18.625 18.625-43.375 28-68 28-24.125 0-48.5-9.125-67-27l-127-127c-27.125 26.125-59.125 47.625-94 63 35.125 18.625 68.625 42.25 99 65 66.125 49.5 116 99 116 99l22 23-22 22c0 0-48.375 50.375-114 100s-147.5 102-229 102zM416 800c50.375 0 128.625-43.625 190-90 46.625-35.25 65.625-55 81-70-15.75-15.125-35.125-34.875-82-70-62-46.5-141.125-90-189-90-88.75 0-160 71.25-160 160s71.25 160 160 160zM832 480c8.125 0 16.625-2.625 23-9 12.75-12.75 12.75-32.25 0-45l-310-310-57-12 12 57 310 310c6.375 6.375 13.875 9 22 9z" />
<glyph unicode="&#xe92b;" glyph-name="smartphone-tablet" d="M64 800c-16.75 0-33.875-5.875-46-18s-18-29.25-18-46v-576c0-16.75 5.875-33.875 18-46s29.25-18 46-18h896c16.75 0 33.875 5.875 46 18s18 29.25 18 46v448c0 16.75-5.875 33.875-18 46s-29.25 18-46 18h-64v64c0 16.75-5.875 33.875-18 46s-29.25 18-46 18zM64 736h768v-64h-128c-16.75 0-33.875-5.875-46-18s-18-29.25-18-46v-448h-576zM704 608h256v-448h-256zM384 256v-64h128v64zM768 256v-64h128v64z" />
<glyph unicode="&#xe92c;" glyph-name="add-thin" d="M1024 472.381h-487.619v487.619h-48.762v-487.619h-487.619v-48.762h487.619v-487.619h48.762v487.619h487.619z" />
<glyph unicode="&#xe92d;" glyph-name="minus-thin" d="M0 472.381h1024v-48.762h-1024v48.762z" />
<glyph unicode="&#xe92e;" glyph-name="add2" d="M1024 496.762h-463.238v463.238h-97.524v-463.238h-463.238v-97.524h463.238v-463.238h97.524v463.238h463.238z" />
<glyph unicode="&#xe92f;" glyph-name="minus" d="M0 496.762h1024v-97.524h-1024v97.524z" />
<glyph unicode="&#xe930;" glyph-name="upward-arrow" d="M512 864c-229.375 0-416-186.625-416-416s186.625-416 416-416c229.375 0 416 186.625 416 416s-186.625 416-416 416zM512 800c194.75 0 352-157.25 352-352s-157.25-352-352-352c-194.75 0-352 157.25-352 352s157.25 352 352 352zM512 672l-128-128h96v-320h64v320h96z" />
<glyph unicode="&#xe931;" glyph-name="target" d="M480 864v-66c-168.5-15.25-302.75-149.5-318-318h-66v-64h66c15.25-168.5 149.5-302.75 318-318v-66h64v66c168.5 15.25 302.75 149.5 318 318h66v64h-66c-15.25 168.5-149.5 302.75-318 318v66zM480 735v-63h64v63c134.125-14.5 240.5-120.875 255-255h-63v-64h63c-14.5-134.125-120.875-240.5-255-255v63h-64v-63c-134.125 14.5-240.5 120.875-255 255h63v64h-63c14.5 134.125 120.875 240.5 255 255z" />
<glyph unicode="&#xe932;" glyph-name="compass" d="M512 832c-211.75 0-384-172.25-384-384s172.25-384 384-384c211.75 0 384 172.25 384 384s-172.25 384-384 384zM479 766c0.375 0 0.625 0 1 0v-30h64v30c151.625-14.875 271.125-134.375 286-286h-30v-64h30c-14.875-151.625-134.375-271.125-286-286v30h-64v-30c-151.625 14.875-271.125 134.375-286 286h30v64h-30c14.875 151.375 133.875 270.75 285 286zM720 656l-267-149-149-267 267 149zM512 496c26.5 0 48-21.5 48-48s-21.5-48-48-48c-26.5 0-48 21.5-48 48s21.5 48 48 48z" />
<glyph unicode="&#xe933;" glyph-name="copy" d="M659.005 780.91h-476.035c-44.668 0-80.947-36.279-80.947-80.947v-683.016c0-44.668 36.279-80.947 80.947-80.947h476.035c44.668 0 80.947 36.279 80.947 80.947v683.016c-0.21 44.668-36.489 80.947-80.947 80.947zM683.121 17.157c0-13.421-10.905-24.326-24.326-24.326h-476.035c-13.421 0-24.326 10.905-24.326 24.326v682.806c0 13.421 10.905 24.326 24.326 24.326h476.035c13.421 0 24.326-10.905 24.326-24.326v-682.806zM841.031 960h-476.035c-44.668 0-80.947-36.279-80.947-80.947 0-15.728 12.582-28.31 28.31-28.31s28.31 12.582 28.31 28.31c0 13.421 10.905 24.326 24.326 24.326h476.035c13.421 0 24.326-10.905 24.326-24.326v-683.016c0-13.421-10.905-24.326-24.326-24.326-15.728 0-28.31-12.582-28.31-28.31s12.582-28.31 28.31-28.31c44.668 0 80.947 36.279 80.947 80.947v683.016c0 44.668-36.279 80.947-80.947 80.947z" />
<glyph unicode="&#xe934;" glyph-name="card-payment" d="M416 736c-28.375 0-54.375-12.25-72-32-40.5-3.125-70.25-28.375-99-53l-11-10c-23.125-19.375-92.625-77.125-138-115v-83c7.5 6.25 144.5 120.125 179 149l12 10c13.125 11.25 23.25 19.625 33 26v-215c-12-6.625-35-19-35-19l30-56c0 0 122.5 67.25 137 75 34.25 18.5 55.25 35 87 35 20.875 0 37-16.625 37-41 0-14.375-3.125-19.75-9-27s-16.25-15.75-31-25c-34.75-21.75-73-59-73-59l-2-3-2-2c-37.125-54.125-84.875-99-170-99h-193v-64h193c106 0 175.25 60.25 219 122 0 0 23.125 21.5 44 38h280c52.75 0 96 43.25 96 96v256c0 52.75-43.25 96-96 96zM416 672h416c18 0 32-14 32-32v-32h-448v-64h448v-160c0-18-14-32-32-32h-206c8.875 15.5 14 34.25 14 55 0 56.75-44.5 105-101 105-54.25 0-90.75-28.25-118-43-4.375-2.375-21.875-11.625-37-20v191c0 18 14 32 32 32z" />
<glyph unicode="&#xe935;" glyph-name="checkmark" d="M905 759l-553-553-233 233-46-46 256-256 23-22 23 22 576 576z" />
<glyph unicode="&#xe936;" glyph-name="clock" d="M512 832c-211.75 0-384-172.25-384-384s172.25-384 384-384c211.75 0 384 172.25 384 384s-172.25 384-384 384zM512 768c177.125 0 320-142.875 320-320s-142.875-320-320-320c-177.125 0-320 142.875-320 320s142.875 320 320 320zM480 704v-288h224v64h-160v224z" />
<glyph unicode="&#xe937;" glyph-name="connect" d="M736 800c-70.375 0-128-57.625-128-128 0-24.875 7.5-48 20-67.75l-99.375-124.25h-149.25c-14.375 54.875-64.125 96-123.375 96-70.375 0-128-57.625-128-128s57.625-128 128-128c59.25 0 109 41.125 123.375 96h149.25l99.375-124.25c-12.5-19.75-20-42.875-20-67.75 0-70.375 57.625-128 128-128s128 57.625 128 128c0 70.375-57.625 128-128 128-22.25 0-42.875-6.25-61.125-16.375l-89.875 112.375 89.875 112.375c18.25-10.125 38.875-16.375 61.125-16.375 70.375 0 128 57.625 128 128s-57.625 128-128 128zM736 736c35.75 0 64-28.25 64-64s-28.25-64-64-64c-35.75 0-64 28.25-64 64s28.25 64 64 64zM256 512c35.75 0 64-28.25 64-64s-28.25-64-64-64c-35.75 0-64 28.25-64 64s28.25 64 64 64zM736 288c35.75 0 64-28.25 64-64s-28.25-64-64-64c-35.75 0-64 28.25-64 64s28.25 64 64 64z" />
<glyph unicode="&#xe938;" glyph-name="contacts" d="M512 832c-123.375 0-224-100.625-224-224 0-76.625 39-144.625 98-185-114.5-48.75-194-162.5-194-295h64c0 142.875 113.125 256 256 256s256-113.125 256-256h64c0 132.5-79.5 246.25-194 295 59 40.375 98 108.375 98 185 0 123.375-100.625 224-224 224zM512 768c88.75 0 160-71.25 160-160s-71.25-160-160-160c-88.75 0-160 71.25-160 160s71.25 160 160 160z" />
<glyph unicode="&#xe939;" glyph-name="cursor" d="M288 877v-818l53 44 129 108 65-129 14-29 29 15 99 51 28 14-14 29-59 116 227 28-46 46-470 471zM352 722l370-369-144-17-45-6 21-41 66-128-42-22-69 138-19 36-31-26-107-90z" />
<glyph unicode="&#xe93a;" glyph-name="delete" d="M231 775l-46-46 281-281-281-281 46-46 281 281 281-281 46 46-281 281 281 281-46 46-281-281z" />
<glyph unicode="&#xe93b;" glyph-name="document" d="M192 864v-832h640v621l-9 10-192 192-10 9zM256 800h320v-192h192v-512h-512zM640 754l82-82h-82zM352 544v-64h320v64zM352 416v-64h320v64zM352 288v-64h320v64z" />
<glyph unicode="&#xe93c;" glyph-name="credit-card" d="M160 768c-52.625 0-96-43.375-96-96v-448c0-52.625 43.375-96 96-96h704c52.625 0 96 43.375 96 96v448c0 52.625-43.375 96-96 96zM160 704h704c18.125 0 32-13.875 32-32v-64h-736v-64h736v-320c0-18.125-13.875-32-32-32h-704c-18.125 0-32 13.875-32 32v448c0 18.125 13.875 32 32 32z" />
<glyph unicode="&#xe93d;" glyph-name="download-from-the-cloud" d="M512 800c-131.75 0-235.5-100.125-250-228-57.375-9.625-103.875-48.625-123-103-78.75-22.75-139-93-139-181 0-106.375 85.625-192 192-192h640c106.375 0 192 85.625 192 192 0 56.375-27.375 106.75-67 142-7.375 112.5-97.125 202.125-210 208-38.5 93.75-126.875 162-235 162zM512 736c88.375 0 159.125-56.625 184-137l7-23h33c88.125 0 160-71.875 160-160v-16l13-10c30.25-22.625 51-61.5 51-102 0-72.875-55.125-128-128-128h-640c-72.875 0-128 55.125-128 128 0 64.625 46.375 114.75 105 125l21 4 4 21c9.625 43.125 47.75 74 94 74h32v32c0 107.875 84.125 192 192 192zM480 576v-210l-73 73-46-46 128-128 23-22 23 22 128 128-46 46-73-73v210z" />
<glyph unicode="&#xe93e;" glyph-name="dribbble" d="M512 832c-211.75 0-384-172.25-384-384s172.25-384 384-384c211.75 0 384 172.25 384 384s-172.25 384-384 384zM512 768c81.125 0 154.625-30.5 211-80-6-8.375-14.125-18.5-27-31-27.375-26.5-71.125-58.375-138-83-45.25 83.625-89.625 146.5-119 186 23.375 5.375 47.875 8 73 8zM376 738c26.25-34.375 73-98.125 120-183-130.125-34.5-249.5-38.875-297-39 21.25 98.875 87.75 180.25 177 222zM767 641c39-51.625 63.25-115.5 65-185-28.5 6.375-70.5 12.625-125 13-28.375 0.125-60.5-1.875-95-6-8 18.25-16.625 35.875-25 53 71.75 27.5 120.625 63.75 153 95 11 10.75 19.625 20.625 27 30zM525 497c7.375-14.875 14.875-30.125 22-46-136.75-37.875-235-153.875-277-212-48.375 56-78 129-78 209 0 1.375 0 2.625 0 4 43.25-0.5 180.75 2.5 333 45zM707 406c57.125 0 96.625-8 120-14-14.875-85.25-63-158.375-131-206-12.75 76.5-33.75 149.25-59 216 25.25 2.5 49.125 4 70 4zM572 391c28.75-73 52.875-153.125 65-238-38.25-16.125-80.75-25-125-25-73.375 0-141.125 24.625-195 66 32.875 45 129.5 164.75 255 197z" />
<glyph unicode="&#xe93f;" glyph-name="debit-card" d="M160 768c-52.625 0-96-43.375-96-96v-448c0-52.625 43.375-96 96-96h704c52.625 0 96 43.375 96 96v448c0 52.625-43.375 96-96 96zM160 704h704c18.125 0 32-13.875 32-32v-448c0-18.125-13.875-32-32-32h-704c-18.125 0-32 13.875-32 32v448c0 18.125 13.875 32 32 32zM192 576v-128h160v128zM512 576v-64h288v64zM192 352v-64h128v64zM352 352v-64h128v64zM512 352v-64h128v64zM672 352v-64h128v64z" />
<glyph unicode="&#xe940;" glyph-name="diners-club" d="M160 768c-52.625 0-96-43.375-96-96v-448c0-52.625 43.375-96 96-96h704c52.625 0 96 43.375 96 96v448c0 52.625-43.375 96-96 96zM160 704h704c18.125 0 32-13.875 32-32v-448c0-18.125-13.875-32-32-32h-704c-18.125 0-32 13.875-32 32v448c0 18.125 13.875 32 32 32zM480 640c-105.625 0-192-86.375-192-192s86.375-192 192-192h64c106 0 192 86 192 192s-86 192-192 192zM480 576c71.125 0 128-56.875 128-128s-56.875-128-128-128c-71.125 0-128 56.875-128 128s56.875 128 128 128zM454 523c-31.125-11-54-40.125-54-75s22.875-64 54-75zM506 523v-150c31.125 11 54 40.125 54 75s-22.875 64-54 75z" />
<glyph unicode="&#xe941;" glyph-name="discover" d="M160 768c-52.625 0-96-43.375-96-96v-448c0-52.625 43.375-96 96-96h704c52.625 0 96 43.375 96 96v448c0 52.625-43.375 96-96 96zM160 704h704c18.125 0 32-13.875 32-32v-448c0-18.125-13.875-32-32-32h-704c-18.125 0-32 13.875-32 32v448c0 18.125 13.875 32 32 32zM334 507c-20 0-35-14.5-35-33 0-15.5 7.375-23.25 28-31 12-4.5 22-7.125 22-18 0-9.125-7.125-16-17-16-10.5 0-19 5.125-24 15l-15-13c10.125-14.875 23.25-22 40-22 22.875 0 38 15.125 38 37 0 18-7 26.875-32 36-13.25 4.875-17 7.875-17 14 0 7.125 6.5 12 16 12 6.625 0 12.25-2.625 18-9l12 15c-9.5 8.25-21.625 13-34 13zM438 507c-33.375-0.125-60-26.125-60-59 0-33.125 26.5-59 60-59 9.5 0 18 2.25 28 7v26c-8.75-8.75-17-12-27-12-22.125 0-38 16.125-38 39 0 21.625 16.375 38 37 38 10.5 0 18.875-3 28-12v26c-9.625 4.875-18.5 6-28 6zM531 507c-32.5 0-59-26.5-59-59s26.5-59 59-59c32.5 0 59 26.5 59 59s-26.5 59-59 59zM160 505v-113h32c49.125 0 61 38.375 61 56 0 33.25-25.25 57-61 57zM263 505v-113h22v113zM586 505l48-116h12l49 116h-24l-31-76-30 76zM705 505v-113h62v19h-40v31h39v19h-39v25h40v19zM782 505v-113h22v45h2l31-45h27l-36 48c16.625 3.375 26 14.75 26 32 0 21.125-14.625 33-40 33zM804 487h6c13.75 0 22-6 22-17 0-11.375-7.875-17-22-17h-6zM182 486h7c30 0 41-20.25 41-38 0-8.5-2.375-37-42-37h-6z" />
<glyph unicode="&#xe942;" glyph-name="edit1" d="M765 833c-33.5 0-67-13-93-39l-506-506-2-10-35-176-10-47 47 10 186 37 506 506c52 52 52 134 0 186-26 26-59.5 39-93 39zM765 772c16.125 0 32.375-7.375 48-23 31.125-31.125 31.125-64.875 0-96l-23-22-95 95 22 23c15.625 15.625 31.875 23 48 23zM650 681l95-95-387-387c-21 41-54 74-95 95zM222 242c38.375-15.5 68.5-45.625 84-84l-105-21z" />
<glyph unicode="&#xe943;" glyph-name="external-link" d="M576 800v-64h178l-393-393 46-46 393 393v-178h64v288zM160 672v-576h576v416l-64-64v-288h-448v448h288l64 64z" />
<glyph unicode="&#xe944;" glyph-name="facebook" d="M224 800c-35 0-64-29-64-64v-576c0-35 29-64 64-64h576c35 0 64 29 64 64v576c0 35-29 64-64 64zM224 736h576v-576h-166v216h83l12 96h-95v62c0 28 6.875 47 47 47h52v87c-8.875 1.125-39.625 3-75 3-73.75 0-124-44.375-124-127v-72h-84v-96h84v-216h-310z" />
<glyph unicode="&#xe945;" glyph-name="female-user" d="M580 832c-105.75 0-229.25-17.5-325-114s-159-265.75-159-558v-32h309c31.625-20 67.25-32 107-32 39.625 0 75.375 12.25 107 32h309v32c0 260-50.25 411-116 499-57.875 77.5-124.5 99-174 104l-30 53-9 16zM562 766l26-46 9-16h19c32.375 0 91.125-10.875 145-83 51.25-68.625 96.625-199.625 101-429h-172c3.5 4.5 6.75 9.375 10 14 43.5 62 68 139.375 68 210h-64c0-55.125-20.625-122.5-56-173s-82.75-83-136-83c-53.25 0-100.625 32.375-136 83s-56 118.25-56 173c0 14.25 2.75 21.375 7 27s11.75 10.5 23 15c22.625 8.875 60.75 12.625 101 16s82.25 6.625 120 24c37.75 17.375 69 56.875 69 110h-64c0-33.375-8.75-41.75-31-52s-60.25-14.625-100-18c-39.75-3.375-81.625-5.25-119-20-18.75-7.375-36.75-18.5-50-36s-20-40.875-20-66c0-70.375 24.625-146.875 68-209 3.5-5 7.125-10.125 11-15h-173c4.875 260.375 62.25 404.75 138 481 74.25 74.875 168.75 91.125 262 93zM416 416c-17.625 0-32-14.375-32-32s14.375-32 32-32c17.625 0 32 14.375 32 32s-14.375 32-32 32zM608 416c-17.625 0-32-14.375-32-32s14.375-32 32-32c17.625 0 32 14.375 32 32s-14.375 32-32 32z" />
<glyph unicode="&#xe946;" glyph-name="file" d="M192 864v-832h640v621l-9 10-192 192-10 9zM256 800h320v-192h192v-512h-512zM640 754l82-82h-82z" />
<glyph unicode="&#xe947;" glyph-name="filled-bookmark-ribbon" d="M800 96l-288 216-288-216v736h576v-736z" />
<glyph unicode="&#xe948;" glyph-name="folder" d="M192 864v-832h640v434l55 55 9 10v333zM256 800h448v-269l9-10 55-55v-370h-512zM768 800h64v-242l-32-32-32 32z" />
<glyph unicode="&#xe949;" glyph-name="google-plus" d="M352 736c-159.125 0-288-128.875-288-288s128.875-288 288-288c159.125 0 288 128.875 288 288 0 19.75-2.125 39-6 57.625l-1.5 6.375h-280.5v-96h192c-15.25-90.75-96.875-160-192-160-106 0-192 86-192 192s86 192 192 192c48 0 91.75-17.75 125.5-46.875l68.75 67.375c-51.25 46.875-119.375 75.5-194.25 75.5zM800 608v-96h-96v-64h96v-96h64v96h96v64h-96v96z" />
<glyph unicode="&#xe94a;" glyph-name="hand-cursor" d="M416 896c-52.625 0-96-43.375-96-96v-378l-21 22-8 7c-36.875 36.875-97.125 36.875-134 0s-36.875-97.125 0-134v-1l262-259 2-1 1-2c43.125-32.375 98.125-54 160-54h55c145.125 0 262 116.875 262 262v250c0 52.625-43.375 96-96 96-13.625 0-26.25-3.75-38-9-10.5 41.625-48.375 73-93 73-24.5 0-47-9.625-64-25-17 15.375-39.5 25-64 25-11.25 0-21.875-2.375-32-6v134c0 52.625-43.375 96-96 96zM416 832c17.75 0 32-14.25 32-32v-352h64v128c0 17.75 14.25 32 32 32s32-14.25 32-32v-128h64v128c0 17.75 14.25 32 32 32s32-14.25 32-32v-128h67v64c0 17.75 14.25 32 32 32s32-14.25 32-32v-250c0-110.875-87.125-198-198-198h-55c-46.875 0-87.375 16.75-121 42l-259 256c-14.25 14.25-14.25 29.75 0 44s29.75 14.25 44 0l138-138v532c0 17.75 14.25 32 32 32z" />
<glyph unicode="&#xe94b;" glyph-name="home" d="M512 877l-23-22-416-416 46-46 41 41v-370h288v320h128v-320h288v370l41-41 46 46-416 416zM512 786l288-288v-370h-160v320h-256v-320h-160v370z" />
<glyph unicode="&#xe94c;" glyph-name="idea" d="M218 883l-45-45 67-67 45 45zM806 883l-67-67 45-45 67 67zM512 863c-10.5-0.125-21.25-0.75-32-2-0.375 0-0.625 0-1 0-129.75-14.875-233-119.75-251-249-14.375-104 28.5-198.25 100-259 30.625-26.25 49.5-61.25 56-97v-192h73c11.125-19.125 31.375-32 55-32s43.875 12.875 55 32h73v128h3v38c0 46.875 24.375 94.25 64 131 53 53 93 128.375 93 215 0 158.125-130.125 288.5-288 287zM512 799c123.625 1.75 224-99.5 224-223 0-67-31-126-74-169l1-1c-43-40.125-70.5-92.625-78-150h-140c-7 54.875-30.625 107.875-75 146-56.5 48.125-90.25 120.375-79 202 14 100.875 95.75 181.875 196 193 8.375 1 16.75 1.875 25 2zM64 576v-64h96v64zM864 576v-64h96v64zM240 317l-67-67 45-45 67 67zM784 317l-45-45 67-67 45 45zM448 192h128v-64h-128z" />
<glyph unicode="&#xe94d;" glyph-name="image-file1" d="M192 864v-832h640v621l-9 10-192 192-10 9zM256 800h320v-192h192v-512h-512zM640 754l82-82h-82zM675 512c-17.625 0-32-14.375-32-32s14.375-32 32-32c17.625 0 32 14.375 32 32s-14.375 32-32 32zM448 461l-23-22-128-128 46-46 105 105 73-73 23-22 23 22 41 41 73-73 46 46-96 96-23 22-23-22-41-41-73 73z" />
<glyph unicode="&#xe94e;" glyph-name="info" d="M512 864c-229.375 0-416-186.625-416-416s186.625-416 416-416c229.375 0 416 186.625 416 416s-186.625 416-416 416zM512 800c194.75 0 352-157.25 352-352s-157.25-352-352-352c-194.75 0-352 157.25-352 352s157.25 352 352 352zM480 640v-64h64v64zM480 512v-256h64v256z" />
<glyph unicode="&#xe94f;" glyph-name="instagram" d="M367.001 800c-113.625 0-207.001-93.251-207.001-207.001v-289.999c0-113.624 93.251-207.001 207.001-207.001h289.999c113.624 0 207.001 93.251 207.001 207.001v289.999c0 113.625-93.251 207.001-207.001 207.001zM367.001 735.999h289.999c79.126 0 143-63.874 143-143v-289.999c0-79.126-63.874-143-143-143h-289.999c-79.126 0-143 63.874-143 143v289.999c0 79.126 63.874 143 143 143zM700.999 666.001c-16.125 0-29.002-12.875-29.002-29.002s12.876-29.001 29.002-29.001c16.125 0 29.001 12.875 29.001 29.001s-12.875 29.002-29.001 29.002zM512 640c-105.626 0-192-86.376-192-192s86.376-191.999 192-191.999c105.626 0 191.999 86.376 191.999 191.999s-86.376 191.999-191.999 191.999zM512 576.001c71.125 0 128.002-56.875 128.002-128.001s-56.876-128.002-128.002-128.002c-71.125 0-128.002 56.876-128.002 128.002s56.875 128.002 128.002 128.002z" />
<glyph unicode="&#xe950;" glyph-name="linkedin" d="M240 800c-43.75 0-80-36.25-80-80v-544c0-43.75 36.25-80 80-80h544c43.75 0 80 36.25 80 80v544c0 43.75-36.25 80-80 80zM240 736h544c9.125 0 16-6.875 16-16v-544c0-9.125-6.875-16-16-16h-544c-9.125 0-16 6.875-16 16v544c0 9.125 6.875 16 16 16zM334 681c-30.375 0-55-24.625-55-55s24.625-55 55-55c30.375 0 55 24.625 55 55s-24.625 55-55 55zM623 535c-45.875 0-76.375-25.125-89-49h-2v42h-90v-304h94v150c0 39.625 7.875 78 57 78 48.375 0 49-44.75 49-80v-148h94v167c0 81.75-17.375 144-113 144zM288 528v-304h95v304z" />
<glyph unicode="&#xe951;" glyph-name="lock" d="M512 864c-123 0-224-101-224-224v-96h-96v-512h640v512h-96v96c0 123-101 224-224 224zM512 800c88.125 0 160-71.875 160-160v-96h-320v96c0 88.125 71.875 160 160 160zM256 480h512v-384h-512z" />
<glyph unicode="&#xe952;" glyph-name="mastercard-credit-card" d="M160 768c-52.639 0-96-43.361-96-96v-448c0-52.639 43.361-96 96-96h704c52.639 0 96 43.361 96 96v448c0 52.639-43.361 96-96 96h-704zM160 704h704c18.081 0 32-13.919 32-32v-64h-736v-64h736v-320c0-18.081-13.919-32-32-32h-704c-18.081 0-32 13.919-32 32v448c0 18.081 13.919 32 32 32zM592.125 480c-61.406 0-111.875-50.469-111.875-111.875s50.469-111.875 111.875-111.875c23.786 0 45.794 7.715 64 20.563 18.206-12.848 40.214-20.562 64-20.563 61.406 0 111.875 50.469 111.875 111.875s-50.469 111.875-111.875 111.875c-23.786 0-45.794-7.715-64-20.562-18.206 12.848-40.214 20.562-64 20.562zM592.125 416c8.97 0 17.204-2.486 24.313-6.625-5.155-12.811-8.187-26.68-8.188-41.25s3.033-28.439 8.188-41.25c-7.108-4.139-15.343-6.625-24.313-6.625-26.818 0-47.875 21.057-47.875 47.875s21.057 47.875 47.875 47.875zM720.125 416c26.818 0 47.875-21.057 47.875-47.875s-21.057-47.875-47.875-47.875c-8.97 0-17.204 2.486-24.312 6.625 5.155 12.811 8.187 26.68 8.187 41.25s-3.033 28.439-8.187 41.25c7.108 4.139 15.343 6.625 24.312 6.625z" />
<glyph unicode="&#xe953;" glyph-name="menu1" d="M128 736v-64h768v64zM128 480v-64h768v64zM128 224v-64h768v64z" />
<glyph unicode="&#xe954;" glyph-name="news" d="M96 800v-576c0-70.75 57.25-128 128-128h576c70.75 0 128 57.25 128 128v352h-192v224zM160 736h512v-512c0-23.375 7.125-45.125 18-64h-466c-38.125 0-64 25.875-64 64zM224 672v-160h384v160zM288 608h256v-32h-256zM736 512h128v-288c0-38.125-25.875-64-64-64s-64 25.875-64 64zM224 480v-64h160v64zM448 480v-64h160v64zM224 384v-64h160v64zM448 384v-64h160v64zM224 288v-64h160v64zM448 288v-64h160v64z" />
<glyph unicode="&#xe955;" glyph-name="no-synchronize" d="M496.25 893l-45.25-45.25 80.75-80.75c-6.625 0.375-13 1-19.75 1-76.5 0-146.625-27.75-201.75-73l-191.625 191.625-45.25-45.25 832-832 45.25 45.25-191.625 191.625c45.375 55.125 73 125.25 73 201.75 0 48-9.625 92.75-28.875 131.125l-48-48c9.625-25.5 12.875-54.375 12.875-83.125 0-58.875-20.5-113.125-54.375-156.5l-358.125 358.25c43.375 33.75 97.625 54.25 156.5 54.25 6 0 11.875-0.5 17.875-1l-78.875-78.75 45.25-45.25 157 157zM229.125 596.875c-23.625-44.5-37.125-95.25-37.125-148.875 0-48 9.625-92.75 28.75-131.125l48 48c-6.375 25.5-12.75 54.375-12.75 83.125 0 35.875 7.5 70 21 101zM518.375 307.625l-147.625-147.625 157-157 45.25 45.25-80.875 80.75c6.625-0.375 13.25-1 19.875-1 53.625 0 104.375 13.5 148.875 37.125l-47.875 47.875c-31-13.5-65.125-21-101-21-6 0-11.875 0.375-17.875 0.875l69.5 69.5z" />
<glyph unicode="&#xe956;" glyph-name="opened-folder" d="M160 864v-794l25-5 423-88v87h192v402l55 55 9 10v333zM452 800h348v-242l-55-55-9-10v-365h-128v285l-9 10-55 55v299zM224 791l256-64v-276l9-10 55-55v-331l-320 67z" />
<glyph unicode="&#xe957;" glyph-name="padlock" d="M512 864c-97.125 0-178.75-62.875-212-148l59-24c24.25 62.125 83.75 108 153 108 88.125 0 160-71.875 160-160v-96h-480v-512h640v512h-96v96c0 123-101 224-224 224zM256 480h512v-384h-512z" />
<glyph unicode="&#xe958;" glyph-name="picture" d="M64 800v-704h896v704zM128 736h768v-445l-192 193-145-145-184 186-23 23-224-224zM768 672c-35.375 0-64-28.625-64-64s28.625-64 64-64c35.375 0 64 28.625 64 64s-28.625 64-64 64zM352 457l294-297h-518v73zM704 393l192-192v-41h-159l-133 134z" />
<glyph unicode="&#xe959;" glyph-name="pinterest" d="M512 832c-212.125 0-384-171.875-384-384 0-162.75 101.25-301.625 244.125-357.625-3.375 30.375-6.5 77 1.25 110.25 7 29.875 45 190.875 45 190.875s-11.375 23-11.375 57c0 53.375 30.875 93.25 69.375 93.25 32.75 0 48.625-24.625 48.625-54.125 0-33-21-82.25-31.875-127.875-9-38.25 19.25-69.375 56.875-69.375 68.25 0 120.75 72 120.75 175.875 0 91.875-66 156.125-160.375 156.125-109.25 0-173.375-81.875-173.375-166.625 0-33 12.75-68.375 28.625-87.625 3.125-3.75 3.5-7.125 2.625-11-3-12.125-9.375-38.25-10.625-43.5-1.75-7.125-5.625-8.625-12.875-5.125-48 22.25-78 92.375-78 148.75 0 121.125 88 232.375 253.75 232.375 133.25 0 236.75-94.875 236.75-221.875 0-132.25-83.5-238.75-199.25-238.75-38.875 0-75.5 20.125-88 44 0 0-19.25-73.25-24-91.25-8.625-33.375-32-75.125-47.75-100.625 36-11.125 74.125-17.125 113.75-17.125 212.125 0 384 171.875 384 384s-171.875 384-384 384z" />
<glyph unicode="&#xe95a;" glyph-name="paypal" d="M285 800l-6-25-118-544-9-39h156l-19-89-9-39h223l5 26 33 154h86c120.375 0 226.125 78.25 253 204 14.125 66.125-0.875 122.125-32 160-25.25 30.75-59.5 49.25-95 58-6.875 31.625-21.375 58.5-41 79-36.375 37.875-86.875 55-134 55zM337 736h241c31.375 0 66-12.125 88-35s34.875-55.5 23-111c-21.125-99-95.875-154-190-154h-138l-5-25-33-155h-91zM418 689l-6-25-33-148-9-39h113c56.875 0 106 41.375 120 97h1c0.125 0.625-0.125 1.375 0 2 7 28 2.5 56.75-13 78-15.875 21.75-42.625 35-71 35zM469 625h51c10 0 15.25-2.875 19-8s6.375-13.375 3-26v-1c-6-25.875-36.625-49-59-49h-33zM755 597c16.875-6.875 32.75-16.25 44-30 18.625-22.625 28.875-53.875 18-105-21.125-99-95.875-154-190-154h-138l-5-25-33-155h-91l14 64h1l5 26 33 154h86c120.375 0 226.125 78.25 253 204 1.5 7.25 2.125 14 3 21z" />
<glyph unicode="&#xe95b;" glyph-name="plus" d="M512 864c-229.375 0-416-186.625-416-416s186.625-416 416-416c229.375 0 416 186.625 416 416s-186.625 416-416 416zM512 800c194.75 0 352-157.25 352-352s-157.25-352-352-352c-194.75 0-352 157.25-352 352s157.25 352 352 352zM480 640v-160h-160v-64h160v-160h64v160h160v64h-160v160z" />
<glyph unicode="&#xe95c;" glyph-name="puzzle" d="M544 864c-70.75 0-128-57.25-128-128h-192v-160c-70.75 0-128-57.25-128-128s57.25-128 128-128v-160h192c0-70.75 57.25-128 128-128s128 57.25 128 128h192v224h-64c-38.125 0-64 25.875-64 64s25.875 64 64 64h64v224h-192c0 70.75-57.25 128-128 128zM544 800c38.125 0 64-25.875 64-64v-64h192v-96c-70.75 0-128-57.25-128-128s57.25-128 128-128v-96h-192v-64c0-38.125-25.875-64-64-64s-64 25.875-64 64v64h-192v160h-64c-38.125 0-64 25.875-64 64s25.875 64 64 64h64v160h192v64c0 38.125 25.875 64 64 64z" />
<glyph unicode="&#xe95d;" glyph-name="refresh" d="M512 832c-163.625 0-300.25-101.125-356-244l59-24c46.625 119.5 159.75 204 297 204 103.75 0 196.25-50.875 254-128h-126v-64h224v224h-64v-99c-70.125 80.375-173.75 131-288 131zM809 332c-46.625-119.5-159.75-204-297-204-104.875 0-197 51.625-255 128h127v64h-224v-224h64v99c70-79.375 172.625-131 288-131 163.625 0 300.25 101.125 356 244z" />
<glyph unicode="&#xe95e;" glyph-name="search" d="M605.279 867.5c-179.804 0-326.221-146.417-326.221-326.221 0-78.115 27.397-149.73 73.4-205.927l-259.957-259.957 46.894-46.894 259.957 259.957c56.197-46.002 127.812-73.4 205.927-73.4 179.804 0 326.221 146.417 326.221 326.221s-146.417 326.221-326.221 326.221zM605.279 802.256c144.506 0 260.977-116.471 260.977-260.977s-116.471-260.977-260.977-260.977c-144.506 0-260.977 116.471-260.977 260.977s116.471 260.977 260.977 260.977z" />
<glyph unicode="&#xe95f;" glyph-name="settings" d="M422 864l-5-26-19-95c-30.5-12-58-28.875-83-49l-93 32-25 8-13-23-64-110-13-23 19-17 72-63c-2.625-16.375-6-32.75-6-50s3.375-33.625 6-50l-72-63-19-17 13-23 64-110 13-23 25 8 93 32c25-20.125 52.5-37 83-49l19-95 5-26h180l5 26 19 95c30.5 12 58 28.875 83 49l93-32 25-8 13 23 64 110 13 23-19 17-72 63c2.625 16.375 6 32.75 6 50s-3.375 33.625-6 50l72 63 19 17-13 23-64 110-13 23-25-8-93-32c-25 20.125-52.5 37-83 49l-19 95-5 26zM474 800h76l16-83 4-19 18-6c36.375-11.375 69.375-30.625 97-56l14-13 18 6 81 28 38-65-64-57-15-12 5-19c4.125-18.25 6-36.875 6-56s-1.875-37.75-6-56l-4-19 14-12 64-57-38-65-81 28-18 6-14-13c-27.625-25.375-60.625-44.625-97-56l-18-6-4-19-16-83h-76l-16 83-4 19-18 6c-36.375 11.375-69.375 30.625-97 56l-14 13-18-6-81-28-38 65 64 57 15 12-5 19c-4.125 18.25-6 36.875-6 56s1.875 37.75 6 56l5 19-15 12-64 57 38 65 81-28 18-6 14 13c27.625 25.375 60.625 44.625 97 56l18 6 4 19zM512 608c-88 0-160-72-160-160s72-160 160-160c88 0 160 72 160 160s-72 160-160 160zM512 544c53.375 0 96-42.625 96-96s-42.625-96-96-96c-53.375 0-96 42.625-96 96s42.625 96 96 96z" />
<glyph unicode="&#xe960;" glyph-name="share" d="M512 832c-68.625 0-124.25-55-127-123-115.375-49-193-163.125-193-293 0-5.5-0.25-11.5 0-18-37.875-22.25-64-63.125-64-110 0-70.375 57.625-128 128-128 18.375 0 36.125 3.875 52 11 55.5-46.625 127.75-75 204-75s148.5 28.375 204 75c15.875-7.125 33.625-11 52-11 70.375 0 128 57.625 128 128 0 47.375-26.375 88.875-65 111 0.5 5.125 1 10.375 1 17 0 129.875-77.625 244-193 293-2.75 68-58.375 123-127 123zM512 768c35.75 0 64-28.25 64-64s-28.25-64-64-64c-35.75 0-64 28.25-64 64s28.25 64 64 64zM399 645c21.5-40.75 64-69 113-69s91.5 28.25 113 69c85.75-41.625 143-129.125 143-229-70.375 0-128-57.625-128-128 0-28.625 9.875-54.625 26-76-42.75-32.375-97.75-52-154-52s-111.25 19.625-154 52c16.125 21.375 26 47.375 26 76 0 70.375-57.625 128-128 128 0 99.875 57.25 187.375 143 229zM256 352c35.75 0 64-28.25 64-64s-28.25-64-64-64c-35.75 0-64 28.25-64 64s28.25 64 64 64zM768 352c35.75 0 64-28.25 64-64s-28.25-64-64-64c-35.75 0-64 28.25-64 64s28.25 64 64 64z" />
<glyph unicode="&#xe961;" glyph-name="share-3" d="M682.625 822.625l-45.25-45.25 137.375-137.375h-70.75c-229.375 0-416-186.625-416-416h64c0 194.75 157.25 352 352 352h70.75l-137.375-137.375 45.25-45.25 214.625 214.625zM160 608v-512h704v192h-64v-128h-576v448z" />
<glyph unicode="&#xe962;" glyph-name="support" d="M672 864c-141.75 0-256-114.25-256-256 0-7.5 1.125-17.75 2-27l-274-274c-63-63-63-164 0-227s164-63 227 0l274 274c9.25-0.875 19.5-2 27-2 141.75 0 256 114.25 256 256 0 43.75-11.25 84.25-30 118l-20 37-30-30-138-137-50 50 137 138 30 30-37 20c-33.75 18.75-74.25 30-118 30zM672 800c15.5 0 27.125-6.625 41-10l-144-144 23-22 96-96 22-23 144 144c3.375-13.875 10-25.5 10-41 0-107.875-84.125-192-192-192-12.75 0-23.125 0-31 2l-17 5-298-298c-39.375-39.375-97.625-39.375-137 0l-1 1c-38.375 39.375-38.125 96.875 1 136l298 298-5 17c-2 7.875-2 18.25-2 31 0 107.875 84.125 192 192 192z" />
<glyph unicode="&#xe963;" glyph-name="synchronize" d="M496 893l-45-45 80-81c-6.375 0.375-12.5 1-19 1-176 0-320-144-320-320 0-48 9.75-92.625 29-131l48 48c-6.375 25.625-13 54.25-13 83 0 140.75 115.25 256 256 256 5.625 0 11.5-0.625 17-1l-78-79 45-45 135 134 22 23-22 23zM803 579l-48-48c9.625-25.625 13-54.25 13-83 0-140.75-115.25-256-256-256-5.625 0-11.5 0.625-17 1l78 79-45 45-135-134-22-23 22-23 135-134 45 45-80 81c6.25-0.375 12.75-1 19-1 176 0 320 144 320 320 0 48-9.75 92.625-29 131z" />
<glyph unicode="&#xe964;" glyph-name="tick-box" d="M128 832v-768h768v506l-64-64v-378h-640v640h634l64 64zM873 727l-361-361-137 137-46-46 160-160 23-22 23 22 384 384z" />
<glyph unicode="&#xe965;" glyph-name="toolbox" d="M416 800c-35 0-64-29-64-64v-64h-288v-576h896v576h-288v64c0 35-29 64-64 64zM416 736h192v-64h-192zM128 608h768v-160h-128v32h-128v-32h-256v32h-128v-32h-128zM128 384h128v-32h128v32h256v-32h128v32h128v-224h-768z" />
<glyph unicode="&#xe966;" glyph-name="trash1" d="M480 832c-16.75 0-33.875-5.875-46-18s-18-29.25-18-46v-32h-192v-64h32v-512c0-52.625 43.375-96 96-96h384c52.625 0 96 43.375 96 96v512h32v64h-192v32c0 16.75-5.875 33.875-18 46s-29.25 18-46 18zM480 768h128v-32h-128zM320 672h448v-512c0-17.75-14.25-32-32-32h-384c-17.75 0-32 14.25-32 32zM384 576v-352h64v352zM512 576v-352h64v352zM640 576v-352h64v352z" />
<glyph unicode="&#xe967;" glyph-name="trash-can" d="M435 832l-10-9-23-23h-210v-64h32v-576c0-52.625 43.375-96 96-96h384c52.625 0 96 43.375 96 96v576h32v64h-210l-23 23-10 9zM462 768h100l23-23 10-9h141v-576c0-17.75-14.25-32-32-32h-384c-17.75 0-32 14.25-32 32v576h141l10 9zM352 608v-352h64v352zM480 608v-352h64v352zM608 608v-352h64v352z" />
<glyph unicode="&#xe968;" glyph-name="twitter" d="M896 686.125c-28.25-12.5-58.625-21-90.5-24.75 32.5 19.5 57.5 50.375 69.25 87.125-30.375-18-64.125-31.125-100-38.25-28.75 30.625-69.75 49.875-115 49.875-87 0-157.625-70.625-157.625-157.625 0-12.375 1.375-24.375 4.125-35.875-131 6.5-247.125 69.25-324.75 164.625-13.625-23.25-21.375-50.375-21.375-79.25 0-54.625 27.75-102.875 70.125-131.125-25.875 0.875-50.125 7.875-71.375 19.75 0-0.75 0-1.375 0-2 0-76.375 54.25-140.125 126.375-154.5-13.25-3.625-27.125-5.625-41.5-5.625-10.125 0-20.125 1-29.625 2.875 20-62.625 78.25-108.125 147.125-109.5-53.875-42.25-121.875-67.375-195.625-67.375-12.75 0-25.25 0.75-37.625 2.25 69.75-44.75 152.5-70.875 241.5-70.875 289.875 0 448.375 240.125 448.375 448.375 0 6.75-0.25 13.625-0.5 20.375 30.75 22.25 57.5 50 78.625 81.5z" />
<glyph unicode="&#xe969;" glyph-name="upload-to-the-cloud" d="M512 832c-131.75 0-235.5-100.125-250-228-57.375-9.625-103.875-48.625-123-103-78.75-22.75-139-93-139-181 0-106.375 85.625-192 192-192h640c106.375 0 192 85.625 192 192 0 56.375-27.375 106.75-67 142-7.375 112.5-97.125 202.125-210 208-38.5 93.75-126.875 162-235 162zM512 768c88.375 0 159.125-56.625 184-137l7-23h33c88.125 0 160-71.875 160-160v-16l13-10c30.25-22.625 51-61.5 51-102 0-72.875-55.125-128-128-128h-640c-72.875 0-128 55.125-128 128 0 64.625 46.375 114.75 105 125l21 4 4 21c9.625 43.125 47.75 74 94 74h32v32c0 107.875 84.125 192 192 192zM512 589l-23-22-128-128 46-46 73 73v-210h64v210l73-73 46 46-128 128z" />
<glyph unicode="&#xe96a;" glyph-name="box1" d="M128 800v-192h32v-512h704v512h32v192zM192 736h640v-64h-640zM224 608h576v-448h-576zM410 544c-17.625-1.625-30.625-17.375-29-35s17.375-30.625 35-29h192c11.5-0.125 22.25 5.875 28.125 15.875 5.75 10 5.75 22.25 0 32.25-5.875 10-16.625 16-28.125 15.875h-192c-1 0-2 0-3 0s-2 0-3 0z" />
<glyph unicode="&#xe96b;" glyph-name="briefcase1" d="M512 864c-59.625 0-108.75-40.875-123-96h-293v-640h832v640h-293c-14.25 55.125-63.375 96-123 96zM512 800c25.875 0 45.75-12.375 56-32h-112c10.25 19.625 30.125 32 56 32zM160 704h704v-288h-704zM512 512c-17.625 0-32-14.375-32-32s14.375-32 32-32c17.625 0 32 14.375 32 32s-14.375 32-32 32zM160 352h704v-160h-704z" />
<glyph unicode="&#xe96c;" glyph-name="calendar" d="M288 832v-32h-128v-704h704v704h-128v32h-64v-32h-320v32zM224 736h64v-32h64v32h320v-32h64v32h64v-64h-576zM224 608h576v-448h-576zM416 544v-64h64v64zM544 544v-64h64v64zM672 544v-64h64v64zM288 416v-64h64v64zM416 416v-64h64v64zM544 416v-64h64v64zM672 416v-64h64v64zM288 288v-64h64v64zM416 288v-64h64v64zM544 288v-64h64v64z" />
<glyph unicode="&#xe96d;" glyph-name="cancel" d="M512 864c-229.375 0-416-186.625-416-416s186.625-416 416-416c229.375 0 416 186.625 416 416s-186.625 416-416 416zM512 800c194.75 0 352-157.25 352-352s-157.25-352-352-352c-194.75 0-352 157.25-352 352s157.25 352 352 352zM391 615l-46-46 121-121-121-121 46-46 121 121 121-121 46 46-121 121 121 121-46 46-121-121z" />
<glyph unicode="&#xe96e;" glyph-name="checked" d="M512 864c-230.375 0-416-185.625-416-416s185.625-416 416-416c230.375 0 416 185.625 416 416 0 44.75-6 89.375-22 131l-52-51c6.375-25.625 10-51.25 10-80 0-195.25-156.75-352-352-352s-352 156.75-352 352c0 195.25 156.75 352 352 352 96 0 182.25-38.25 243-99l45 45c-73.625 73.625-176 118-288 118zM873 727l-361-361-137 137-46-46 160-160 23-22 23 22 384 384z" />
<glyph unicode="&#xe96f;" glyph-name="bookmark-2" d="M224 800v-736l51 38 237 178 237-178 51-38v736zM288 736h448v-544l-205 154-19 14-19-14-205-154z" />
<glyph unicode="&#xe970;" glyph-name="bookmark" d="M288 832c-52.625 0-96-43.375-96-96v-576c0-52.625 43.375-96 96-96h544v768zM288 768h96v-365.25l128 128 128-128v365.25h128v-512h-480c-11.25 0-21.875-2.375-32-6v486c0 18.125 13.875 32 32 32zM448 768h128v-210.75l-64 64-64-64zM288 192h480v-64h-480c-18.125 0-32 13.875-32 32s13.875 32 32 32z" />
<glyph unicode="&#xe971;" glyph-name="user-male" d="M576 832c-117.25 0-206.25-27.625-266-84s-86-138.625-86-236v-29c-18.375-17.375-32-39.75-32-67 0-40.25 28.5-69 64-83 11.875-37.375 24.75-76.625 39-110 15.625-36.5 29.625-65.5 49-86 91.875-97.125 244.125-97.125 336 0 19.375 20.5 32.375 49.5 48 86 14.25 33.375 28.125 72.625 40 110 35.5 14 64 42.75 64 83 0 27.125-13.75 49.5-32 67v29c0 90.375-20.625 154.75-57 197-30.875 35.875-72.125 50.5-113 55l-34 68zM557 766l22-44c10.625-21.375 14.875-36.5 15-43s0.375-3.875-1-5c-2.75-2.375-29.75-9.25-63-11s-72.5-0.875-109-15c-36.5-14.125-68.625-52.125-69-104h64c0.25 31.5 7.625 36.125 28 44s55.625 10.25 90 12c34.375 1.75 69.875-0.375 100 25 15 12.625 24.625 34.5 24 56-0.125 4.75-1.25 9.25-2 14 13.875-5.875 26.75-14.875 38-28 23.25-27 42-74.375 42-155v-59l16-9c9.75-5.625 16-15.875 16-28 0-17.125-12.25-30.625-29-32l-22-1-6-21c-11.875-38.5-26.625-79.125-41-113s-30.875-62.625-36-68c-68.125-72-175.875-72-244 0-5.125 5.375-21.625 34.125-36 68s-29.125 74.5-41 113l-6 21-22 1c-16.75 1.375-29 14.875-29 32 0 12 6.125 22.375 16 28l16 9v59c0 86.25 21.875 148.375 66 190 41 38.75 107.875 60.75 203 64zM416 448c-17.625 0-32-14.375-32-32s14.375-32 32-32c17.625 0 32 14.375 32 32s-14.375 32-32 32zM608 448c-17.625 0-32-14.375-32-32s14.375-32 32-32c17.625 0 32 14.375 32 32s-14.375 32-32 32z" />
<glyph unicode="&#xe972;" glyph-name="rating" d="M128 832v-768h768v768zM192 768h640v-640h-640zM512 691l-74-166-182-19 138-122-39-179 157 93 157-93-39 179 138 122-182 19zM512 534l32-70 38-3 39-3-58-52 7-35 9-38-35 19-32 19-64-38 10 38 6 35-58 52 77 6 16 35z" />
<glyph unicode="&#xe973;" glyph-name="wallet" d="M735 832c-4.875-0.125-10-0.75-15-2l-520-137c-42-11-72-49.5-72-93v-440c0-52.625 43.375-96 96-96h576c52.625 0 96 43.375 96 96v416c0 52.625-43.375 96-96 96h-428l364 96v-64h64v64c0 36-30.625 64.5-65 64zM224 608h576c18.125 0 32-13.875 32-32v-416c0-18.125-13.875-32-32-32h-576c-18.125 0-32 13.875-32 32v416c0 18.125 13.875 32 32 32zM720 416c-26.5 0-48-21.5-48-48s21.5-48 48-48c26.5 0 48 21.5 48 48s-21.5 48-48 48z" />
<glyph unicode="&#xe974;" glyph-name="tick" d="M38.7 472.359l-38.7-42.724 328.433-332.429h38.7l656.866 660.862-38.7 40.726-637.516-636.531z" />
<glyph unicode="&#xe975;" glyph-name="tick-thin" d="M1017.76 783.106c-8.32 8.32-21.846 8.32-30.167 0l-624.907-624.953-326.279 326.237c-8.32 8.32-21.846 8.32-30.167 0s-8.32-21.846 0-30.167l341.341-341.341c4.182-4.138 9.642-6.23 15.104-6.23s10.922 2.090 15.062 6.272l640.014 640.014c8.318 8.322 8.318 21.848-0.002 30.169z" />
<glyph unicode="&#xe976;" glyph-name="help_outline" d="M512 682.667q70 0 120-50t50-120q0-54-64-111t-64-103h-84q0 46 20 79t44 48 44 37 20 50q0 34-26 59t-60 25-60-25-26-59h-84q0 70 50 120t120 50zM512 84.667q140 0 241 101t101 241-101 241-241 101-241-101-101-241 101-241 241-101zM512 852.667q176 0 301-125t125-301-125-301-301-125-301 125-125 301 125 301 301 125zM470 170.667v86h84v-86h-84z" />
<glyph unicode="&#xe977;" glyph-name="help" d="M642 458.667q40 40 40 96 0 70-50 120t-120 50-120-50-50-120h84q0 34 26 60t60 26 60-26 26-60-26-60l-52-54q-50-54-50-120v-22h84q0 66 50 120zM554 128.667v84h-84v-84h84zM512 852.667q176 0 301-125t125-301-125-301-301-125-301 125-125 301 125 301 301 125z" />
<glyph unicode="&#xe978;" glyph-name="phone" d="M981.333 216.747c0.683 30.464-10.069 59.904-28.715 82.901-19.627 24.149-48.171 41.259-82.133 46.080-34.133 4.181-72.32 13.397-110.336 27.563-18.475 6.784-38.101 9.301-57.344 7.424-28.288-2.731-55.765-14.891-77.611-36.48l-30.72-30.72c-75.52 47.659-143.36 113.792-195.541 195.797l30.976 30.976c13.739 14.080 24.021 30.976 30.165 49.323 9.045 26.965 9.131 57.003-1.664 85.803-12.331 32.128-22.101 70.144-27.477 110.72-4.437 30.507-19.413 57.472-41.088 77.013-22.997 20.693-53.589 33.195-86.485 32.853h-127.829c-3.755 0-7.765-0.171-11.648-0.512-35.157-3.2-65.792-20.395-86.741-45.483s-32.341-58.325-29.141-93.824c12.8-131.243 58.24-266.368 137.216-388.352 64.085-102.955 155.648-197.248 268.715-269.056 109.568-72.405 242.517-122.112 387.669-137.856 3.925-0.384 8.149-0.555 12.288-0.555 35.328 0.128 67.328 14.635 90.368 37.845s37.248 55.339 37.12 90.496zM896 216.747v-128c0.043-11.947-4.651-22.613-12.373-30.379s-18.304-12.587-30.123-12.629l-3.755 0.171c-130.56 14.208-250.581 59.221-348.757 124.117-103.595 65.835-185.984 150.955-243.285 242.944-72.405 111.787-113.28 233.856-124.757 351.488-1.024 11.435 2.731 22.443 9.771 30.891s17.195 14.080 28.928 15.147l131.712 0.171c11.563 0.128 21.632-4.011 29.312-10.923 7.253-6.571 12.288-15.616 13.781-25.941 6.059-45.739 17.408-90.325 32.299-129.067 3.456-9.216 3.413-19.072 0.427-28.075-2.091-6.187-5.589-11.989-10.325-16.853l-53.845-53.803c-13.824-13.824-16.171-34.731-6.912-51.243 67.584-118.827 163.797-211.499 272.256-272.128 16.939-9.472 37.632-6.144 50.987 7.083l54.187 54.187c7.083 6.997 16.085 10.965 25.515 11.904 6.485 0.64 13.227-0.213 19.584-2.56 43.605-16.256 88.32-27.136 129.451-32.171 10.283-1.451 19.712-7.083 26.24-15.147 6.272-7.723 9.856-17.579 9.643-29.099z" />
<glyph unicode="&#xe979;" glyph-name="phone-call" d="M633.984 683.478c40.235-7.851 74.24-29.141 98.56-58.624 17.92-21.76 30.592-47.957 36.352-76.501 4.651-23.083 27.179-38.016 50.261-33.365s38.016 27.179 33.365 50.261c-8.533 42.325-27.349 81.365-54.144 113.877-36.437 44.203-87.765 76.331-148.053 88.064-23.125 4.523-45.525-10.581-50.048-33.707s10.581-45.525 33.707-50.048zM637.44 853.59c85.333-9.472 159.701-49.579 213.547-108.544 47.701-52.224 79.275-119.211 87.979-192.811 2.773-23.381 23.979-40.149 47.36-37.376s40.149 23.979 37.376 47.36c-10.795 91.605-50.176 175.189-109.696 240.384-67.328 73.728-160.512 123.989-267.136 135.808-23.424 2.603-44.501-14.293-47.104-37.675s14.293-44.501 37.675-47.104zM981.333 216.747c0.683 30.464-10.069 59.904-28.715 82.901-19.627 24.149-48.171 41.259-82.133 46.080-34.133 4.181-72.32 13.397-110.336 27.563-18.475 6.784-38.101 9.301-57.344 7.424-28.288-2.731-55.765-14.891-77.611-36.48l-30.72-30.72c-75.52 47.659-143.36 113.792-195.541 195.797l30.976 30.976c13.739 14.080 24.021 30.976 30.165 49.323 9.045 26.965 9.131 57.003-1.664 85.803-12.331 32.128-22.101 70.144-27.477 110.72-4.437 30.507-19.413 57.472-41.088 77.013-22.997 20.693-53.589 33.195-86.485 32.853h-127.829c-3.755 0-7.765-0.171-11.648-0.512-35.157-3.2-65.792-20.395-86.741-45.483s-32.341-58.325-29.141-93.824c12.8-131.243 58.24-266.368 137.216-388.352 64.085-102.955 155.648-197.248 268.715-269.056 109.568-72.405 242.517-122.112 387.669-137.856 3.925-0.384 8.149-0.555 12.288-0.555 35.328 0.128 67.328 14.635 90.368 37.845s37.248 55.339 37.12 90.496zM896 216.747v-128c0.043-11.947-4.651-22.613-12.373-30.379s-18.304-12.587-30.123-12.629l-3.755 0.171c-130.56 14.208-250.581 59.221-348.757 124.117-103.595 65.835-185.984 150.955-243.285 242.944-72.405 111.787-113.28 233.856-124.757 351.488-1.024 11.435 2.731 22.443 9.771 30.891s17.195 14.080 28.928 15.147l131.712 0.171c11.563 0.128 21.632-4.011 29.312-10.923 7.253-6.571 12.288-15.616 13.781-25.941 6.059-45.739 17.408-90.325 32.299-129.067 3.456-9.216 3.413-19.072 0.427-28.075-2.091-6.187-5.589-11.989-10.325-16.853l-53.845-53.803c-13.824-13.824-16.171-34.731-6.912-51.243 67.584-118.827 163.797-211.499 272.256-272.128 16.939-9.472 37.632-6.144 50.987 7.083l54.187 54.187c7.083 6.997 16.085 10.965 25.515 11.904 6.485 0.64 13.227-0.213 19.584-2.56 43.605-16.256 88.32-27.136 129.451-32.171 10.283-1.451 19.712-7.083 26.24-15.147 6.272-7.723 9.856-17.579 9.643-29.099z" />
<glyph unicode="&#xe97a;" glyph-name="facebook-filled" d="M736 832h-448.002c-88.35 0-160.001-71.647-160.001-160.001v-448.002c0-88.35 71.647-160.001 160.001-160.001h448.002c88.385 0 160.001 71.647 160.001 160.001v448.002c0 88.35-71.616 160.001-160.001 160.001zM639.998 608.001h-61.567c-19.68 0-34.433-8.064-34.433-28.447v-35.551h96l-7.615-96h-88.385v-256.001h-96v256.001h-64.001v96h64.001v61.536c0 64.704 34.049 98.465 110.753 98.465h81.246v-96z" />
<glyph unicode="&#xe97c;" glyph-name="linkedin-filled" d="M736 832.001h-448.002c-88.352 0-160.001-71.648-160.001-160.001v-448.002c0-88.352 71.648-160.001 160.001-160.001h448.002c88.385 0 160.001 71.648 160.001 160.001v448.002c0 88.352-71.616 160.001-160.001 160.001zM384 224h-96v352.002h96v-352.002zM336 616.577c-30.912 0-56 25.28-56 56.448s25.088 56.448 56 56.448 56-25.28 56-56.448-25.056-56.448-56-56.448zM768.001 224h-96v179.329c0 107.777-128 99.617-128 0v-179.329h-96v352.002h96v-56.48c44.672 82.752 224 88.865 224-79.232v-216.289z" />
<glyph unicode="&#xe97d;" glyph-name="android" d="M896 576c-35.2 0-64-28.8-64-64v-256c0-35.2 28.8-64 64-64s64 28.8 64 64v256c0 35.2-28.8 64-64 64zM128 576c-35.2 0-64-28.8-64-64v-256c0-35.2 28.8-64 64-64s64 28.8 64 64v256c0 35.2-28.802 64-64 64zM224 224c0-53.020 42.98-96 96-96v0-128c0-35.2 28.8-64 64-64s64 28.8 64 64v128h128v-128c0-35.2 28.8-64 64-64s64 28.8 64 64v128c53.020 0 96 42.98 96 96v352h-576v-352zM798.216 639.998c-9.716 87.884-59.004 163.792-129.62 209.646l32.024 64.046c7.904 15.806 1.496 35.028-14.31 42.932s-35.030 1.496-42.932-14.312l-32.142-64.286-8.35 3.316c-28.568 9.502-59.122 14.66-90.886 14.66-31.762 0-62.316-5.158-90.888-14.656l-8.348-3.316-32.142 64.282c-7.904 15.808-27.128 22.212-42.932 14.312-15.808-7.904-22.214-27.126-14.312-42.932l32.022-64.046c-70.616-45.852-119.904-121.762-129.622-209.644v-32h574.222v31.998h-1.784zM416 704c-17.674 0-32 14.328-32 32 0 17.648 14.288 31.958 31.93 31.996 0.032 0 0.062-0.002 0.094-0.002 0.018 0 0.036 0.002 0.052 0.002 17.638-0.042 31.924-14.35 31.924-31.996 0-17.672-14.326-32-32-32zM608 704c-17.674 0-32 14.328-32 32 0 17.646 14.286 31.954 31.924 31.996 0.016 0 0.034-0.002 0.050-0.002 0.032 0 0.064 0.002 0.096 0.002 17.64-0.038 31.93-14.348 31.93-31.996 0-17.672-14.326-32-32-32z" />
<glyph unicode="&#xe97e;" glyph-name="googleplay" horiz-adv-x="917" d="M39.205 927.069c18.237 19.017 44.926 28.9 71.062 28.249 4.063 0.358 5.819-4.324 8.452-6.599 134.778-166.246 270.271-331.939 404.724-498.444-138.419-170.017-276.643-340.228-415.451-509.952-26.136 0.78-52.5 10.598-70.282 30.265-25.941 27.892-35.109 67.779-33.581 105.001 0 248.166 0 496.299 0 744.464-1.593 38.034 7.867 79.027 35.076 107.016zM216.47 914.521c67.779-37.222 133.998-77.304 201.322-115.371 88.162-51.623 177.331-101.587 265.070-153.86-41.968-50.062-82.7-101.197-124.050-151.812-114.135 140.337-228.076 280.836-342.341 421.043zM730.291 618.439c40.18-22.723 80.165-45.869 119.987-69.242 34.003-20.675 63.618-55.036 65.438-96.386 2.601-43.041-26.331-81.14-61.18-103.245-39.66-24.478-80.945-46.324-120.702-70.705-47.267 56.791-93.72 114.33-139.947 171.967 45.544 55.784 91.12 111.6 136.403 167.611zM207.986-24.048c116.183 144.465 233.96 287.663 350.793 431.608 41.968-52.338 84.911-103.928 126.651-156.461-159.419-91.185-318.025-183.897-477.444-275.147z" />
<glyph unicode="&#xe97f;" glyph-name="googleplay-filled" d="M192.953 918.169c33.007 6.564 66.389-5.090 94.744-21.438 208.745-119.422 417.406-239.011 626.13-358.453 27.025-15.289 53.198-35.604 66.265-64.582 10.012-21.209 9.826-46.676-0.187-67.843-13.045-28.313-38.554-48.421-65.081-63.481-210.51-120.461-420.833-241.212-631.49-361.424-26.298-14.479-56.855-24.616-87.121-19.63-23.66 3.573-44.932 18.467-57.249 38.845-15.247 24.428-19.547 53.885-19.526 82.218 0 238.907-0.041 477.792 0.021 716.699 0.062 30.577 5.505 62.816 24.324 87.806 11.841 15.974 29.622 27.42 49.169 31.283z" />
<glyph unicode="&#xe980;" glyph-name="apple" d="M791.498 415.908c-1.294 129.682 105.758 191.876 110.542 194.966-60.152 88.020-153.85 100.078-187.242 101.472-79.742 8.074-155.596-46.948-196.066-46.948-40.368 0-102.818 45.754-168.952 44.552-86.916-1.292-167.058-50.538-211.812-128.38-90.304-156.698-23.126-388.84 64.89-515.926 43.008-62.204 94.292-132.076 161.626-129.58 64.842 2.588 89.362 41.958 167.756 41.958s100.428-41.958 169.050-40.67c69.774 1.296 113.982 63.398 156.692 125.796 49.39 72.168 69.726 142.038 70.924 145.626-1.548 0.706-136.060 52.236-137.408 207.134zM662.562 796.478c35.738 43.358 59.86 103.512 53.28 163.522-51.478-2.096-113.878-34.29-150.81-77.55-33.142-38.376-62.148-99.626-54.374-158.436 57.466-4.484 116.128 29.204 151.904 72.464z" />
<glyph unicode="&#xe982;" glyph-name="linkedin2" d="M290.617 716.060c0-43.55-35.003-78.84-78.208-78.84s-78.208 35.286-78.208 78.84c0 43.52 35.003 78.84 78.208 78.84s78.208-35.32 78.208-78.84zM291.244 574.146h-157.681v-504.578h157.681v504.578zM542.968 574.146h-156.672v-504.578h156.702v264.874c0 147.271 190.134 159.319 190.134 0v-264.874h157.301v319.492c0 248.504-281.367 239.456-347.464 117.124v67.96z" />
<glyph unicode="&#xe99c;" glyph-name="edit" d="M765 833c-33.5 0-67-13-93-39l-506-506-2-10-35-176-10-47 47 10 186 37 506 506c52 52 52 134 0 186-26 26-59.5 39-93 39zM765 772c16.125 0 32.375-7.375 48-23 31.125-31.125 31.125-64.875 0-96l-23-22-95 95 22 23c15.625 15.625 31.875 23 48 23zM650 681l95-95-387-387c-21 41-54 74-95 95zM222 242c38.375-15.5 68.5-45.625 84-84l-105-21z" />
<glyph unicode="&#xe9b2;" glyph-name="index" d="M64 704v-192h192v192zM320 704v-64h640v64zM128 640h64v-64h-64zM320 576v-64h512v64zM64 384v-192h192v192zM320 384v-64h640v64zM128 320h64v-64h-64zM320 256v-64h512v64z" />
<glyph unicode="&#xe9c6;" glyph-name="overview" d="M192 832v-768h640v768zM256 768h512v-640h-512zM320 672v-64h384v64zM320 544v-64h256v64zM640 544v-64h64v64zM320 416v-64h128v64zM640 416v-64h64v64zM320 288v-64h192v64zM640 288v-64h64v64z" />
<glyph unicode="&#xe9c8;" glyph-name="paint" d="M794 831c-26.75 0-53.75-10.75-74-31l-406-400-20-19c-24-4.5-46.875-16.25-65-36-26.625-29.125-31.875-64.75-42-103s-23-80.875-54-128l-32-50h59c125.25 0 207.875 59.875 250 102l1 1c19.25 19.75 30 44.625 34 70l16 15 406 400v1c40.5 40.5 40.5 106.5 0 147-20.25 20.25-46.25 31-73 31zM794 768c10 0 19.5-4.5 28-13 17.125-17.125 17.125-39.875 0-57l-289-286-58 58 290 285c8.5 8.5 19 13 29 13zM429 425l58-58-48-47-58 58zM319 319c16.125-0.5 33.625-6.75 47-19 24.875-22.75 25.5-62.5-1-89-27.75-27.75-77-63.5-149-77 15.375 33.625 26.125 65 33 91 10.625 40.125 18.5 67.625 27 77 11.125 12.125 26.875 17.5 43 17z" />
<glyph unicode="&#xe9c9;" glyph-name="paint-palette" d="M499 865c-17-0.5-34.5-2.375-52-5h-1c-170.375-27.875-308.375-162.125-343-332-10.375-48.375-9.75-93.5-3-138 0.25-0.125 0-0.75 0-1 10.5-75.125 108-108 163-53 39.375 39.375 97.625 39.375 137 0s39.375-97.625 0-137c-55-55-22.125-152.5 53-163 0.25 0 0.875 0.25 1 0 44.125-6.75 89-7.125 137 3 0.375 0 0.625 0 1 0 170.375 31.75 304.25 173 332 343v1c36.25 244.5-142.5 458-375 480-16.625 1.625-33 2.5-50 2zM500 801c14.5 0.5 28.875 0.25 43-1 198.25-18.125 349-198.875 318-408-23.375-143.25-138.25-263.75-281-290h-1c-40.875-8.75-78.625-8.875-117-3-26.25 3.25-38.375 32.625-17 54 63 63 63 165 0 228s-165 63-228 0c-21.375-21.375-50.75-9.25-54 17-5.875 38.375-5.75 76.125 3 117 29.375 143.625 146.75 258.625 290 282 15 2.25 29.5 3.5 44 4zM448 736c-35.375 0-64-28.625-64-64s28.625-64 64-64c35.375 0 64 28.625 64 64s-28.625 64-64 64zM672 672c-35.375 0-64-28.625-64-64s28.625-64 64-64c35.375 0 64 28.625 64 64s-28.625 64-64 64zM288 608c-35.375 0-64-28.625-64-64s28.625-64 64-64c35.375 0 64 28.625 64 64s-28.625 64-64 64zM736 448c-35.375 0-64-28.625-64-64s28.625-64 64-64c35.375 0 64 28.625 64 64s-28.625 64-64 64zM608 288c-35.375 0-64-28.625-64-64s28.625-64 64-64c35.375 0 64 28.625 64 64s-28.625 64-64 64z" />
<glyph unicode="&#xe9ca;" glyph-name="paint-roller" d="M160 832v-256h576v256zM224 768h448v-128h-448zM768 736v-64h32v-136l-320-96v-88h-64v-288h192v288h-64v40l320 96v248zM480 288h64v-160h-64z" />
<glyph unicode="&#xe9d0;" glyph-name="pencil" d="M790 831c-26.75 0-52.75-10.75-73-31l-3-3-20 19-528-528-2-10-35-176-10-47 47 10 186 37 528 528-19 19 2 2 1 2c40.5 40.5 40.5 106.5 0 147-20.25 20.25-47.25 31-74 31zM790 768c10 0 20.5-4.5 29-13 17.125-17.125 17.125-39.875 0-57l-3-3-57 57 3 3c8.5 8.5 18 13 28 13zM695 726l95-95-46-47-96 96zM604 634l94-94-334-335-13 58-4 20-20 4-58 13zM223 245l70-16 16-70-65-13-34 34z" />
<glyph unicode="&#xe9dc;" glyph-name="rotate" d="M512 864c-229.375 0-416-186.625-416-416s186.625-416 416-416c229.375 0 416 186.625 416 416 0 128.625-58.625 243.625-150.5 320h118.5v64h-256v-256h64v166.875c96.25-62.75 160-171.125 160-294.875 0-194.75-157.25-352-352-352s-352 157.25-352 352c0 194.75 157.25 352 352 352z" />
<glyph unicode="&#xe9f6;" glyph-name="trash" d="M480 832c-16.75 0-33.875-5.875-46-18s-18-29.25-18-46v-32h-192v-64h32v-512c0-52.625 43.375-96 96-96h384c52.625 0 96 43.375 96 96v512h32v64h-192v32c0 16.75-5.875 33.875-18 46s-29.25 18-46 18zM480 768h128v-32h-128zM320 672h448v-512c0-17.75-14.25-32-32-32h-384c-17.75 0-32 14.25-32 32zM384 576v-352h64v352zM512 576v-352h64v352zM640 576v-352h64v352z" />
<glyph unicode="&#xe9ff;" glyph-name="vector" d="M384 768v-96h-198c-13.375 37-48.625 64-90 64-52.625 0-96-43.375-96-96s43.375-96 96-96c41.375 0 76.625 27 90 64h74c-13.125-12.5-24.5-26.125-35-41-37-52.375-58.75-117-64-183h-97v-256h256v256h-94c5.25 53.5 22.75 106 51 146 27.5 39 62.875 66.25 107 75v-93h256v93c44.125-8.75 79.5-36 107-75 28.25-40 45.75-92.5 51-146h-94v-256h256v256h-97c-5.25 66-27 130.625-64 183-10.5 14.875-21.875 28.5-35 41h74c13.375-37 48.625-64 90-64 52.625 0 96 43.375 96 96s-43.375 96-96 96c-41.375 0-76.625-27-90-64h-198v96zM448 704h128v-128h-128zM96 672c18 0 32-14 32-32s-14-32-32-32c-18 0-32 14-32 32s14 32 32 32zM928 672c18 0 32-14 32-32s-14-32-32-32c-18 0-32 14-32 32s14 32 32 32zM128 320h128v-128h-128zM768 320h128v-128h-128z" />
<glyph unicode="&#xea0f;" glyph-name="bookmark-page" d="M192 864v-832h640v621l-9 10-192 192-10 9zM256 800h320v-192h192v-512h-512zM640 754l82-82h-82zM512 573l-54-125-138-16 102-93-28-134 118 67 118-67-28 134 102 93-138 16zM512 413l13-29 29-3-23-19 7-29-26 16-26-16 7 29-23 22 29 3z" />
<glyph unicode="&#xea1c;" glyph-name="open-archive" d="M192 864v-832h640v832zM288 800h448l13-35c6.375 3.25 12.625 3 19 3v-672h-512v672c0 0 12.625 0.25 19-3zM358 787l-38-51c12.75-9.625 25.25-22.25 38-35l48 41c-16 16-32 32.25-48 45zM666 784c-16-12.75-32-29-48-45l48-41c12.75 16 25.25 28.375 38 38zM448 691l-54-38c12.75-12.75 22.375-28.75 32-48l57 32c-12.75 19.25-22.25 38-35 54zM576 691c-12.75-16-25.375-34.75-35-54l57-32c9.625 19.25 19.375 35 29 51zM512 579l-61-25c6.375-19.25 12.625-35.75 19-55l42 13 45-13c3.25 19.25 9.625 35.75 16 55zM480 448v-70c-37-13.375-64-48.625-64-90 0-52.625 43.375-96 96-96s96 43.375 96 96c0 41.375-27 76.625-64 90v70zM512 320c18 0 32-14 32-32s-14-32-32-32c-18 0-32 14-32 32s14 32 32 32z" />
<glyph unicode="&#xea1d;" glyph-name="pdf" d="M192 864v-832h640v832zM256 800h512v-704h-512zM493 629c-9.75 0.125-21.125-3.375-29-10-8.125-6.875-11.75-15.375-14-24-4.375-17.25-3.125-35.125 1-55 4.875-23.25 18.75-51.25 30-78-5.75-24.375-7.25-46-16-71-7.5-21.5-17.125-33.875-26-53-20.125-7.625-44.125-12.125-60-22-17.125-10.625-32.125-22.375-41-39s-7.875-40.125 4-57c5.875-8.875 13.625-15.875 24-20s21.625-4.25 31-1c18.875 6.5 32.25 21 45 38 11.875 15.75 20.25 42.5 31 64 16.125 5.375 27.75 12.125 45 16 18 4 30.125 2.125 47 4 7.25-8.25 13.375-21.5 21-28 15.25-13.25 32-23.75 52-25s40 11.25 51 30h1v1c4.875 8.5 8.25 17.75 8 28s-5.375 21-12 28c-13.125 14-29.875 17.625-48 20-14 1.875-33.5-3.125-50-4-14.5 19.125-28.875 33.5-42 58-7.125 13.25-9 24.5-15 38 4.625 21.75 13.75 46 15 65 1.5 23 0.625 42.875-6 61-3.375 9.125-8.75 18.125-17 25-8 6.625-18.375 10.75-29 11-0.375 0-0.625 0-1 0zM514 392c5.75-10.125 12.875-16.5 19-26-9-1.625-15.875 0-25-2-1.5-0.375-2.5-1.625-4-2 1.875 5 4.25 8 6 13 2 5.875 2.125 11.125 4 17zM632 327c10.75-1.375 14.625-3.375 16-4-0.25-0.5 0.375-0.375 0-1-4-6.625-4.375-6.125-7-6-2.125 0.125-10.25 4.5-18 10 2.25-0.125 7 1.25 9 1zM408 277c-1.75-2.625-3.25-8.75-5-11-9.75-13-18.75-19-21-20-0.375 0.5 0.625 0 0 1h-1c-3.25 4.625-2.375 2.75 0 7s9.875 12.875 23 21c1 0.625 3 1.375 4 2z" />
<glyph unicode="&#xea27;" glyph-name="archive" d="M192 864v-832h640v832zM256 800h224v-32h64v32h224v-704h-512zM480 736v-64h64v64zM480 640v-64h64v64zM480 544v-70c-37-13.375-64-48.625-64-90 0-52.625 43.375-96 96-96s96 43.375 96 96c0 41.375-27 76.625-64 90v70zM512 416c18 0 32-14 32-32s-14-32-32-32c-18 0-32 14-32 32s14 32 32 32z" />
<glyph unicode="&#xea2f;" glyph-name="alphabetical-sorting" d="M262 800l-7-21-62-171h-1v-2l-30-83-2-5v-38h64v27l13 37h102l13-37v-27h64v38l-2 5-30 83v2h-1l-62 171-7 21zM704 800v-598l-83 83-45-45 137-138 23-22 23 22 137 138-45 45-83-83v598zM288 683l27-75h-54zM160 416v-64h178l-169-169-9-10v-77h256v64h-178l169 169 9 10v77z" />
<glyph unicode="&#xea30;" glyph-name="alphabetical-sorting-2" d="M160 800v-64h178l-169-169-9-10v-77h256v64h-178l169 169 9 10v77zM704 800v-598l-83 83-45-45 137-138 23-22 23 22 137 138-45 45-83-83v598zM262 416l-7-21-62-171h-1v-2l-30-83-2-5v-38h64v27l13 37h102l13-37v-27h64v38l-2 5-30 83v2h-1l-62 171-7 21zM288 299l27-75h-54z" />
<glyph unicode="&#xea31;" glyph-name="area-chart" d="M896 830l-52-40-148-116-191 32-11-7-182-121-146 29-38 8v-551h768zM832 699v-172l-135-107-190 63-13-8-178-119-124 50v131l122-24 13-3 11 7 181 121 180-30 14-2 11 9zM832 445v-317h-640v208l116-46 16-6 14 9 180 120 176-59 16-6 14 11z" />
<glyph unicode="&#xea32;" glyph-name="ascending-sorting" d="M128 800v-64h64v64zM672 800v-598l-83 83-45-45 137-138 23-22 23 22 137 138-45 45-83-83v598zM128 672v-64h128v64zM128 544v-64h192v64zM128 416v-64h256v64zM128 288v-64h320v64zM128 160v-64h384v64z" />
<glyph unicode="&#xea38;" glyph-name="combo-chart" d="M871 820l-109-136-103 78-25 18-19-24-112-140-105 53-25 12-16-23-109-164-101 76-38-52 128-96 27-20 19 28 112 168 103-51 23-11 16 20 109 136 103-78 25-18 19 24 128 160zM864 576v-512h64v512zM608 480v-416h64v416zM352 448v-384h64v384zM736 416v-352h64v352zM96 384v-320h64v320zM480 384v-320h64v320zM224 288v-224h64v224z" />
<glyph unicode="&#xea39;" glyph-name="conversion" d="M160 832v-75l7-9 249-311v-373l51 38 128 96 13 10v229l249 311 7 9v75zM233 768h558l-51-64h-456zM335 640h354l-138-172-7-9v-219l-64-48v267l-7 9z" />
<glyph unicode="&#xea49;" glyph-name="descending-sorting" d="M128 800v-64h384v64zM672 800v-598l-83 83-45-45 137-138 23-22 23 22 137 138-45 45-83-83v598zM128 672v-64h320v64zM128 544v-64h256v64zM128 416v-64h192v64zM128 288v-64h128v64zM128 160v-64h64v64z" />
<glyph unicode="&#xea50;" glyph-name="filter" d="M160 832v-75l7-9 249-311v-373l51 38 128 96 13 10v229l249 311 7 9v75zM233 768h558l-230-288h-98zM480 416h64v-176l-64-48z" />
<glyph unicode="&#xea62;" glyph-name="mind-map" d="M256 864c-70.375 0-128-57.625-128-128s57.625-128 128-128c22.625 0 43.5 6.5 62 17l70-78c-22.125-27.5-36-61.375-36-99 0-34.875 11.75-66.625 31-93l-56-57c-0.25 0.125-0.75-0.125-1 0-20.25 13.5-44 22-70 22-70.375 0-128-57.625-128-128s57.625-128 128-128c70.375 0 128 57.625 128 128 0 21-5.875 40.5-15 58l61 61c24.125-14.625 52-23 82-23 22.75 0 44.375 5.25 64 14l37-53c-22.625-23.125-37-54.375-37-89 0-70.375 57.625-128 128-128s128 57.625 128 128c0 70.375-57.625 128-128 128-12.5 0-24.625-2.625-36-6l-40 57c20 21.25 34.875 47.5 41 77h40c14.25-55 63.75-96 123-96 70.375 0 128 57.625 128 128s-57.625 128-128 128c-59.25 0-108.75-41-123-96h-40c-7.625 36.75-28.75 69-57 92l14 38c4.625-0.5 9.25-2 14-2 70.375 0 128 57.625 128 128s-57.625 128-128 128c-70.375 0-128-57.625-128-128 0-42.5 21.875-79.625 54-103l-12-31c-13.5 3.75-27.375 6-42 6-27.25 0-52.375-7.75-75-20l-73 80c12.625 19.75 20 43 20 68 0 70.375-57.625 128-128 128zM256 800c35.75 0 64-28.25 64-64 0-17.875-7.5-33.5-19-45s-27.125-19-45-19c-35.75 0-64 28.25-64 64s28.25 64 64 64zM640 800c35.75 0 64-28.25 64-64s-28.25-64-64-64c-35.75 0-64 28.25-64 64s28.25 64 64 64zM512 544c53 0 96-43 96-96-0.125-1.375-0.125-2.625 0-4-2.125-51-44.375-92-96-92-24 0-46.125 8.5-63 23-20.375 17.625-33 44-33 73 0 53 43 96 96 96zM832 512c35.75 0 64-28.25 64-64s-28.25-64-64-64c-35.75 0-64 28.25-64 64s28.25 64 64 64zM256 256c35.75 0 64-28.25 64-64s-28.25-64-64-64c-35.75 0-64 28.25-64 64s28.25 64 64 64zM704 224c35.75 0 64-28.25 64-64s-28.25-64-64-64c-35.75 0-64 28.25-64 64 0 21.25 10.375 39.375 26 51 4.875 1.625 9.375 4.375 13 8 0.375 0.125 0.625 0.875 1 1 7.375 2.875 15.5 4 24 4z" />
<glyph unicode="&#xea66;" glyph-name="numeric" d="M275 800l-5-25c0 0-5.25-18.375-18-37s-28.625-34-60-34v-64c44 0 74.25 21.625 96 45v-205h64v320zM704 800v-598l-83 83-45-45 137-138 23-22 23 22 137 138-45 45-83-83v598zM272 416c-61.5 0-112-50.5-112-112v-16h64v16c0 28 20 48 48 48h32c28 0 48-20 48-48 0-14.625-11.25-31.375-30-43-39.5-24.25-74.125-39.75-103-56-14.5-8.125-27.75-15.875-39-28s-20-30.375-20-49v-32h256v64h-146c23.5 12.125 50.625 24.25 86 46 32.5 20.375 60 55 60 98 0 61.5-50.5 112-112 112z" />
<glyph unicode="&#xea72;" glyph-name="reversed-numerical-sorting" d="M272 800c-61.5 0-112-50.5-112-112v-16h64v16c0 28 20 48 48 48h32c28 0 48-20 48-48 0-14.625-11.25-31.375-30-43-39.5-24.25-74.125-39.75-103-56-14.5-8.125-27.75-15.875-39-28s-20-30.375-20-49v-32h256v64h-146c23.5 12.125 50.625 24.25 86 46 32.5 20.375 60 55 60 98 0 61.5-50.5 112-112 112zM704 800v-598l-83 83-45-45 137-138 23-22 23 22 137 138-45 45-83-83v598zM275 416l-5-25c0 0-5.25-18.375-18-37s-28.625-34-60-34v-64c44 0 74.25 21.625 96 45v-205h64v320z" />
<glyph unicode="&#xea8b;" glyph-name="cheap" d="M512 800c-194 0-352-158-352-352s158-352 352-352c194 0 352 158 352 352s-158 352-352 352zM512 736c159.375 0 288-128.625 288-288s-128.625-288-288-288c-159.375 0-288 128.625-288 288s128.625 288 288 288zM480 608c0-35.75-28.25-64-64-64v-64c23.5 0 45 6.875 64 18v-146h-64v-64h192v64h-64v256z" />
<glyph unicode="&#xea8c;" glyph-name="cheap-2" d="M512 800c-194 0-352-158-352-352s158-352 352-352c194 0 352 158 352 352s-158 352-352 352zM512 736c159.375 0 288-128.625 288-288s-128.625-288-288-288c-159.375 0-288 128.625-288 288s128.625 288 288 288zM480 640v-38c-37-13.375-64-48.625-64-90 0-52.625 43.375-96 96-96 18.125 0 32-13.875 32-32s-13.875-32-32-32c-18.125 0-32 13.875-32 32h-64c0-41.375 27-76.625 64-90v-38h64v38c37 13.375 64 48.625 64 90 0 52.625-43.375 96-96 96-18.125 0-32 13.875-32 32s13.875 32 32 32c18.125 0 32-13.875 32-32h64c0 41.375-27 76.625-64 90v38z" />
<glyph unicode="&#xea8d;" glyph-name="check" d="M224 800v-480h-96v-256h64v192h32v-96h576v96h32v-192h64v256h-96v479l-43-16-115-44-116 54-14 7-14-7-115-54-115 45zM512 728l127-59 12 5 85 33v-483h-448v483l84-33 13-5 13 6zM352 544v-64h192v64zM608 544v-64h64v64zM352 416v-64h192v64zM608 416v-64h64v64z" />
<glyph unicode="&#xea8e;" glyph-name="checkout" d="M128 736c-17.625 0-32-14.375-32-32s14.375-32 32-32h71l84-336c7.125-28.5 32.625-48 62-48h399c28.875 0 53.375 19.125 61 47l83 305h-67l-77-288h-399l-84 336c-7.125 28.5-32.625 48-62 48zM704 288c-52.625 0-96-43.375-96-96s43.375-96 96-96c52.625 0 96 43.375 96 96s-43.375 96-96 96zM416 288c-52.625 0-96-43.375-96-96s43.375-96 96-96c52.625 0 96 43.375 96 96s-43.375 96-96 96zM576 704v-96h-160v-64h160v-96l128 128zM416 224c18 0 32-14 32-32s-14-32-32-32c-18 0-32 14-32 32s14 32 32 32zM704 224c18 0 32-14 32-32s-14-32-32-32c-18 0-32 14-32 32s14 32 32 32z" />
<glyph unicode="&#xea8f;" glyph-name="clear-shopping-cart" d="M128 736c-17.625 0-32-14.375-32-32s14.375-32 32-32h71l84-336c7.125-28.5 32.625-48 62-48h399c28.875 0 53.375 19.125 61 47l83 305h-67l-77-288h-399l-84 336c-7.125 28.5-32.625 48-62 48zM704 288c-52.625 0-96-43.375-96-96s43.375-96 96-96c52.625 0 96 43.375 96 96s-43.375 96-96 96zM416 288c-52.625 0-96-43.375-96-96s43.375-96 96-96c52.625 0 96 43.375 96 96s-43.375 96-96 96zM471 695l-46-46 73-73-73-73 46-46 73 73 73-73 46 46-73 73 73 73-46 46-73-73zM416 224c18 0 32-14 32-32s-14-32-32-32c-18 0-32 14-32 32s14 32 32 32zM704 224c18 0 32-14 32-32s-14-32-32-32c-18 0-32 14-32 32s14 32 32 32z" />
<glyph unicode="&#xea90;" glyph-name="click--collect" d="M512 860.75l-284.75-284.75h-163.25v-192h40.25l96-320h385.625l-25.625 64h-312.5l-96 320h-23.75v64h768v-64h-23.875l-21.625-72.5 61.25-18.375 8.125 26.875h40.125v192h-163.25zM512 770.25l194.25-194.25h-388.5zM489.625 433.625l24.75-61.5 149.875-375 73.875 105.5 96.875-83.5 106.875 120.25-102 84.625 88.5 78.125zM598.375 334.375l201.25-60.375-58.125-51.5 108.5-90.125-21-23.5-102.75 88.5-46.625-66.5z" />
<glyph unicode="&#xea91;" glyph-name="clothes" d="M349 808l-16-17-260-277-20-21 19-22 121-139 23-25 39 39v-250h514v250l20-21 184 184-22 23-276 276-21-10c0 0-67.625-31-142-31s-142 31-142 31zM365 732c24.625-10.25 75.625-29 147-29 72.125 0 124 19 148 29l223-223-94-93-84 84v-340h-386v340l-100-100-80 91z" />
<glyph unicode="&#xea92;" glyph-name="confectionery" d="M448 832v-32c0-29.5-7.375-34.75-22-49-7.375-7.125-17.125-15.25-26-28-3.875-5.5-4.25-14.75-7-22-33.375-3.375-64.625-11.875-89-32-23.5-19.375-36.125-49.25-42-82-78.75-12.75-134-76.625-134-155 0-53.375 28-100.5 75-130l48-190c7.125-28.375 32.75-48 62-48h398c29.25 0 54.875 19.625 62 48l50 201c27.625 22.375 73 70.75 73 148 0 118-98.125 196.25-201 207-10.75 47.875-40 87.25-77 111-44.625 28.625-95.375 43.5-129 52l-3 1zM502 758c26.75-8.25 55.25-16.5 81-33 34.625-22.25 57-48.25 57-85v-32h32c78.875 0 160-58.625 160-147 0-38.875-15.375-64.875-31-82-9.25 10.75-20.5 21.5-33 23-30.75 3.75-53.625-8.75-85-21-62.625-24.5-151.125-61-272-61-80.375 0-137.75 13.75-172 34s-47 42.875-47 78c0 51 26.125 85 75 93 10.25-26.25 26.125-49 49-63 32.875-20 72.75-30.5 111-37 76.5-13 151-9 151-9l-4 64c0 0-69.5-3.375-137 8-33.75 5.75-65.875 15.125-87 28s-30 24.5-30 44c0 29.375 9.625 46.25 25 59s39.375 21 71 21h32v32c0 7.625 0.875 9.625 4 14s9.375 10.625 18 19c11.125 10.75 23.375 29.875 32 53zM754 336c0.5-2.625 1-3 1-10v-22l-44-176h-398l-36 143c20.125-5.25 42.125-8.625 66-11l9-68h64l-9 64c1.375 0 2.625 0 4 0 24.125 0 47.125 1.625 69 4v-68h64v78c28 5.75 53.875 12.625 77 20l-13-98h64l17 123c5.375 2.125 12.125 4.125 17 6 27.25 10.625 43.625 14 48 15z" />
<glyph unicode="&#xea93;" glyph-name="counter" d="M64 704v-512h928v512zM128 640h224v-384h-224zM416 640h224v-384h-224zM704 640h224v-384h-224zM736 608v-48c0-44.125 35.875-80 80-80s80 35.875 80 80c0 18.125-5.875 34.625-16 48zM240 576c-43.75 0-80-36.25-80-80v-96c0-43.75 36.25-80 80-80s80 36.25 80 80v96c0 43.75-36.25 80-80 80zM528 576c-43.75 0-80-36.25-80-80v-96c0-43.75 36.25-80 80-80s80 36.25 80 80v96c0 43.75-36.25 80-80 80zM816 576c8.875 0 16-7.125 16-16s-7.125-16-16-16c-8.875 0-16 7.125-16 16s7.125 16 16 16zM240 512c9.125 0 16-6.875 16-16v-96c0-9.125-6.875-16-16-16s-16 6.875-16 16v96c0 9.125 6.875 16 16 16zM528 512c9.125 0 16-6.875 16-16v-96c0-9.125-6.875-16-16-16s-16 6.875-16 16v96c0 9.125 6.875 16 16 16zM736 448v-64h82c-11.75-23-26.625-56.625-37-96h67c17.25 55 42.625 93.375 43 94l5 8v58z" />
<glyph unicode="&#xea95;" glyph-name="delivery" d="M32 800v-672h101c14.25-55 63.75-96 123-96s108.75 41 123 96h266c14.25-55 63.75-96 123-96s108.75 41 123 96h101v333l-9 10-192 192-10 9h-173v128zM96 736h448v-544h-165c-14.25 55-63.75 96-123 96s-108.75-41-123-96h-37zM320 704c-105.625 0-192-86.375-192-192s86.375-192 192-192c105.625 0 192 86.375 192 192s-86.375 192-192 192zM320 640c71.125 0 128-56.875 128-128s-56.875-128-128-128c-71.125 0-128 56.875-128 128s56.875 128 128 128zM288 608v-109l9-10 46-45 45 45-36 37v82zM608 608h146l174-174v-242h-37c-14.25 55-63.75 96-123 96s-108.75-41-123-96h-37zM256 224c35.75 0 64-28.25 64-64s-28.25-64-64-64c-35.75 0-64 28.25-64 64s28.25 64 64 64zM768 224c35.75 0 64-28.25 64-64s-28.25-64-64-64c-35.75 0-64 28.25-64 64s28.25 64 64 64z" />
<glyph unicode="&#xea96;" glyph-name="discount" d="M512 877l-22-22-84-81-115 16-31 5-5-31-20-114-131-70 14-27 51-105-51-105-14-27 28-15 103-55 20-114 5-31 31 5 115 16 84-81 22-22 22 22 84 81 115-16 31-5 5 31 20 114 131 70-14 27-51 105 51 105 14 27-28 15-103 55-20 114-5 31-31-5-115-16-84 81zM512 788l73-71 11-11 15 2 100 15 18-100 3-15 14-8 88-47-44-91-6-14 6-14 44-91-88-47-14-8-3-15-18-100-100 15-15 2-11-11-73-71-73 71-11 11-15-2-100-15-18 100-3 15-14 8-88 47 44 91 6 14-6 14-44 91 88 47 14 8 3 15 18 100 100-15 15-2 11 11zM576 640l-192-384h64l192 384zM400 576c-26.5 0-48-21.5-48-48s21.5-48 48-48c26.5 0 48 21.5 48 48s-21.5 48-48 48zM624 416c-26.5 0-48-21.5-48-48s21.5-48 48-48c26.5 0 48 21.5 48 48s-21.5 48-48 48z" />
<glyph unicode="&#xea9d;" glyph-name="food" d="M160 800v-288c0-112.5 83.75-205.375 192-221v-131h-128v-64h320v64h-128v131c108.25 15.625 192 108.5 192 221v288zM672 800v-224h32c17.625 0 32 14.375 32 32v192zM800 800v-224c0-53.375-42.625-96-96-96h-32v-384h64v327c72.25 15.375 128 76.375 128 153v224zM224 736h320v-224c0-88.75-71.25-160-160-160s-160 71.25-160 160z" />
<glyph unicode="&#xea9f;" glyph-name="free-shipping" d="M32 832v-672h101c14.25-55 63.75-96 123-96s108.75 41 123 96h266c14.25-55 63.75-96 123-96s108.75 41 123 96h101v333l-9 10-192 192-10 9h-173v128zM96 768h448v-544h-165c-14.25 55-63.75 96-123 96s-108.75-41-123-96h-37zM608 640h146l174-174v-242h-37c-14.25 55-63.75 96-123 96s-108.75-41-123-96h-37zM128 608v-160h32v64h42v32h-42v32h42v32zM224 608v-160h32v54l28-54h36l-35 66 29 31v33l-29 30zM342 608v-160h74v32h-42v32h42v32h-42v32h42v32zM438 608v-160h74v32h-42v32h42v32h-42v32h42v32zM256 576h16l10-11v-8l-10-11h-16zM256 256c35.75 0 64-28.25 64-64s-28.25-64-64-64c-35.75 0-64 28.25-64 64s28.25 64 64 64zM768 256c35.75 0 64-28.25 64-64s-28.25-64-64-64c-35.75 0-64 28.25-64 64s28.25 64 64 64z" />
<glyph unicode="&#xeaa0;" glyph-name="gift" d="M384 800c-52.625 0-96-43.375-96-96 0-11.25 2.375-21.875 6-32h-166v-192h32v-416h704v416h32v192h-166c3.625 10.125 6 20.75 6 32 0 52.625-43.375 96-96 96-56 0-94-42.5-119-78-3.375-4.75-6-9.375-9-14-3 4.625-5.625 9.25-9 14-25 35.5-63 78-119 78zM384 736c20 0 46-21.5 66-50 4.875-7 4.125-7.375 8-14h-74c-18.125 0-32 13.875-32 32s13.875 32 32 32zM640 736c18.125 0 32-13.875 32-32s-13.875-32-32-32h-74c3.875 6.625 3.125 7 8 14 20 28.5 46 50 66 50zM192 608h640v-64h-288v32h-64v-32h-288zM224 480h576v-352h-256v320h-64v-320h-256z" />
<glyph unicode="&#xeaa1;" glyph-name="gift-card" d="M160 768c-52.625 0-96-43.375-96-96v-448c0-52.625 43.375-96 96-96h704c52.625 0 96 43.375 96 96v448c0 52.625-43.375 96-96 96zM160 704h192v-96h64v96h448c18.125 0 32-13.875 32-32v-192h-256v-64h256v-192c0-18.125-13.875-32-32-32h-448v160h-64v-160h-192c-18.125 0-32 13.875-32 32v448c0 18.125 13.875 32 32 32zM256 608c-52.625 0-96-43.375-96-96s43.375-96 96-96h15.375c-21.5-22.5-39.875-51.875-46.875-90.25l63-11.5c11.25 61.75 74.75 91 96 99.25 21-8.875 86-40.375 97-99.5l63 12c-7.25 38-26 67.5-48 90h16.5c52.625 0 96 43.375 96 96s-43.375 96-96 96c-56 0-93.75-42.125-118.625-77.625-3.5-5-6.375-9.625-9.375-14.5-3 4.875-5.875 9.5-9.375 14.5-24.875 35.5-62.625 77.625-118.625 77.625zM256 544c20 0 46.25-21.875 66.375-50.375 4.625-6.75 3.75-7.25 7.5-13.625h-73.875c-18.125 0-32 13.875-32 32s13.875 32 32 32zM512 544c18.125 0 32-13.875 32-32s-13.875-32-32-32h-73.875c3.75 6.375 2.875 6.875 7.5 13.625 20.125 28.5 46.375 50.375 66.375 50.375z" />
<glyph unicode="&#xeaa4;" glyph-name="handshake-1" d="M618 737c-17.75-0.125-35.375-1-54-6s-37.25-13-57-26c-24.5 14.375-48.25 26.25-71 29-28.25 3.5-54.5 1.625-85 1-36.125-0.75-59.75-19.25-98-34s-87.5-29-157-29h-32v-308l18-9 59-29 211-235c24-23.75 56.375-29.625 85-28s55.5 10 77 23c47.25 28.5 176 118 176 118l3 2 2 2c15.25 15.125 22.875 33.625 28 53l123 62 92 31 22 7v311h-32c-69.375 0-118.75 15-157 30s-61.5 33.25-98 34c-19.5 0.375-37.25 1.125-55 1zM619 673c14.375 0.125 31-0.625 52-1 3.375-0.125 34.125-13.25 77-30 36.25-14.25 86.625-26.875 148-31v-204l-74-25h-2l-2-1-97-49c-5.375 14.625-12.75 28.125-24 40l-2 3-136 167-20 25-25-20-86-70c-28.875-20-52.25-14.25-76-3-6.875 3.25-6.5 4.25-12 8l146 121 2 2c43.375 43 70 57.875 93 64 11.5 3.125 23.625 3.875 38 4zM396 672c12.25 0.25 22.5 0.125 32-1 8.375-1 17.875-8.125 26-11-3.25-3-5.625-4.75-9-8-0.75-0.75-1.25-1.25-2-2l-175-145-27-22 24-25c0 0 23.125-25 59-42s91.25-26.625 141 8l2 2 62 51 118-145 1-2 1-1c21.125-20.875 20.625-53.75 0-75-0.25-0.25 0.25-0.75 0-1-0.25-0.125-4.5-2.625-5-3l-42 57-52-38 41-55c-16.625-11.25-24.125-17.125-42-29l-43 58-52-38 41-55c-3.625-2.25-11.125-7.25-14-9-10.125-6.125-29.625-13-47-14-16.375-0.875-28.875 2.875-35 8l-1 1-214 237-4 5-52 26v207c61.125 4 111.875 16.125 148 30 42.75 16.375 73.25 29.875 77 30 16.375 0.375 30.75 0.75 43 1z" />
<glyph unicode="&#xeaa8;" glyph-name="in-transit" d="M0 768v-64h608v-480h-197c-14.25 55-63.75 96-123 96s-108.75-41-123-96h-37v160h-64v-224h101c14.25-55 63.75-96 123-96s108.75 41 123 96h266c14.25-55 63.75-96 123-96s108.75 41 123 96h101v261l-2 5-64 192-7 22h-279v128zM32 640v-64h288v64zM672 576h233l55-164v-188h-37c-14.25 55-63.75 96-123 96s-108.75-41-123-96h-5zM64 512v-64h192v64zM288 256c35.75 0 64-28.25 64-64s-28.25-64-64-64c-35.75 0-64 28.25-64 64s28.25 64 64 64zM800 256c35.75 0 64-28.25 64-64s-28.25-64-64-64c-35.75 0-64 28.25-64 64s28.25 64 64 64z" />
<glyph unicode="&#xeaa9;" glyph-name="jewel" d="M499 832l-10-9-158-159-35-35-159-158-9-10v-330l29-3 742-67-3 38-64 704-3 29zM564 768h158l-105-105zM503 745l51-100-139 12zM775 729l41-465-169 337zM363 597l173-15-158-158zM599 553l193-385-385 193zM303 545l12-139-100 51zM192 396l105-53-105-105zM359 313l338-169-466 41z" />
</font>
</defs>
</svg>
