<svg xmlns="http://www.w3.org/2000/svg" width="512" height="512" enable-background="new 0 0 512 512" viewBox="0 0 512 512"><path stroke="#000" stroke-miterlimit="10" d="M391.982,488.368H119.997c-24.484,0-44.403-19.783-44.403-44.101V67.985
				c0-24.453,19.919-44.347,44.403-44.347h192.969l123.439,122.945v297.685C436.405,468.585,416.478,488.368,391.982,488.368z
				 M119.997,41.638c-14.559,0-26.403,11.819-26.403,26.347v376.283c0,14.392,11.844,26.101,26.403,26.101h271.985
				c14.569,0,26.423-11.709,26.423-26.101V154.06L305.531,41.638H119.997z"/><path stroke="#000" stroke-miterlimit="10" d="M436.142 171.796l-108.723-.869c-23.216 0-38.264-17.727-38.264-45.162l-.876-101.596h23.622v18h-5.466l.72 83.519c0 8.245 1.981 27.24 20.336 27.24l90.65.724v-5.453h18V171.796zM197.231 281.297h42.116c4.047 0 6.977.632 8.79 1.894 1.813 1.263 2.719 3.347 2.719 6.251 0 1.768-1.065 4.104-3.193 7.007-2.129 2.904-4.553 6.114-7.272 9.628-2.719 3.515-5.523 7.882-8.411 13.1-2.888 5.22-5.533 11.596-7.937 19.13-1.012 3.325-1.729 6.082-2.15 8.27-.422 2.189-.885 5.03-1.391 8.523-.506 3.494-.949 6.166-1.328 8.018-.885 4.293-2.14 7.271-3.763 8.934-1.623 1.662-3.784 2.493-6.481 2.493-2.572 0-4.638-.895-6.197-2.683-1.56-1.789-2.34-4.43-2.34-7.924 0-2.692.569-6.354 1.708-10.984s2.993-10.175 5.564-16.636c2.571-6.46 5.787-13.089 9.644-19.887 3.857-6.796 8.442-13.563 13.754-20.297h-33.832c-3.541 0-6.187-.641-7.936-1.926-1.75-1.283-2.625-3.292-2.625-6.028 0-2.904.927-4.776 2.783-5.619C191.308 281.718 193.9 281.297 197.231 281.297zM258.82 351.374l47.618-56.883h-40.915c-2.867 0-5.027-.631-6.481-1.894s-2.182-2.925-2.182-4.987c0-2.146.728-3.883 2.182-5.209 1.454-1.325 3.614-1.988 6.481-1.988h52.74c6.829 0 10.244 3.179 10.244 9.533 0 3.03-.569 5.451-1.707 7.26-1.139 1.811-3.437 4.735-6.894 8.775l-44.519 52.905h49.072c2.908 0 5.079.6 6.513 1.799 1.433 1.199 2.15 2.873 2.15 5.02 0 2.23-.718 3.999-2.15 5.303-1.434 1.305-3.604 1.957-6.513 1.957h-60.202c-4.09 0-7.167-.915-9.232-2.746-2.066-1.831-3.099-4.282-3.099-7.355 0-1.051.168-2.02.506-2.903.337-.884.791-1.715 1.36-2.494.569-.778 1.359-1.768 2.371-2.967C257.177 353.299 258.062 352.258 258.82 351.374z"/></svg>