<svg xmlns="http://www.w3.org/2000/svg" width="512" height="512" enable-background="new 0 0 512 512" viewBox="0 0 512 512"><path stroke="#000" stroke-miterlimit="10" d="M391.736,488.368H120.035c-24.495,0-44.422-19.783-44.422-44.101V67.985
				c0-24.453,19.928-44.347,44.422-44.347h192.931l123.421,122.945v297.684C436.387,468.585,416.356,488.368,391.736,488.368z
				 M120.035,41.638c-14.569,0-26.422,11.819-26.422,26.347v376.283c0,14.392,11.853,26.101,26.422,26.101h271.701
				c14.944,0,26.65-11.465,26.65-26.101V154.06L305.53,41.638H120.035z"/><path stroke="#000" stroke-miterlimit="10" d="M436.122 171.775l-108.701-.848c-23.207 0-38.247-17.727-38.247-45.162L288.298 24.15h23.604v18h-5.447l.72 83.538c0 8.245 1.979 27.24 20.317 27.24l90.631.707v-5.417h18V171.775zM163.905 372.515h-28.33c-4.089 0-7.009-.915-8.758-2.746-1.75-1.831-2.625-4.745-2.625-8.744v-69.571c0-4.082.896-7.018 2.688-8.807 1.791-1.789 4.689-2.684 8.695-2.684h30.038c4.427 0 8.262.274 11.509.82 3.246.548 6.155 1.601 8.727 3.157 2.191 1.305 4.131 2.957 5.818 4.956 1.686 1.999 2.972 4.209 3.857 6.629s1.328 4.978 1.328 7.67c0 9.26-4.638 16.036-13.912 20.329 12.183 3.872 18.275 11.406 18.275 22.601 0 5.177-1.328 9.839-3.984 13.984-2.656 4.146-6.24 7.208-10.75 9.186-2.825 1.179-6.071 2.011-9.738 2.494C173.075 372.273 168.795 372.515 163.905 372.515zM142.974 294.041v23.928h17.2c4.68 0 8.294-.442 10.845-1.326 2.55-.884 4.5-2.566 5.85-5.051 1.053-1.768 1.581-3.745 1.581-5.935 0-4.671-1.666-7.774-4.996-9.312-3.331-1.536-8.411-2.305-15.24-2.305H142.974zM162.514 331.416h-19.54v27.021h20.172c12.689 0 19.034-4.566 19.034-13.7 0-4.672-1.644-8.059-4.932-10.164C173.96 332.468 169.048 331.416 162.514 331.416zM248.251 358.563l-14.861-58.966v63.89c0 3.536-.791 6.188-2.372 7.955-1.581 1.768-3.678 2.651-6.292 2.651-2.529 0-4.596-.874-6.197-2.62-1.603-1.746-2.403-4.408-2.403-7.986v-73.232c0-4.041 1.053-6.766 3.162-8.176 2.108-1.41 4.954-2.115 8.537-2.115h5.818c3.499 0 6.039.315 7.62.947 1.581.631 2.75 1.768 3.51 3.409.759 1.642 1.622 4.314 2.592 8.018l13.469 50.695 13.47-50.695c.97-3.703 1.834-6.376 2.593-8.018s1.929-2.778 3.51-3.409c1.581-.632 4.12-.947 7.62-.947h5.817c3.583 0 6.429.705 8.537 2.115 2.107 1.41 3.162 4.135 3.162 8.176v73.232c0 3.536-.79 6.188-2.371 7.955s-3.699 2.651-6.355 2.651c-2.488 0-4.532-.884-6.134-2.651-1.603-1.768-2.403-4.419-2.403-7.955v-63.89l-14.86 58.966c-.971 3.83-1.761 6.64-2.372 8.428-.611 1.79-1.738 3.42-3.383 4.894-1.645 1.473-3.921 2.209-6.83 2.209-2.192 0-4.047-.474-5.564-1.42-1.518-.947-2.698-2.156-3.541-3.631-.844-1.473-1.508-3.103-1.992-4.893C249.252 362.361 248.757 360.499 248.251 358.563zM363.921 336.466h-17.2v26.2c0 3.746-.886 6.588-2.656 8.522-1.771 1.936-4.006 2.904-6.703 2.904-2.825 0-5.102-.958-6.829-2.872-1.729-1.915-2.593-4.725-2.593-8.429v-71.339c0-4.124.948-7.071 2.846-8.839 1.896-1.768 4.91-2.651 9.043-2.651h24.093c7.124 0 12.605.548 16.441 1.642 3.795 1.053 7.072 2.8 9.834 5.24 2.761 2.441 4.858 5.429 6.292 8.964 1.433 3.536 2.149 7.514 2.149 11.933 0 9.429-2.908 16.572-8.727 21.434C384.094 334.035 375.43 336.466 363.921 336.466zM359.368 294.041h-12.647v28.283h12.647c4.427 0 8.126-.462 11.098-1.389 2.973-.925 5.238-2.44 6.798-4.545s2.34-4.861 2.34-8.271c0-4.082-1.201-7.407-3.604-9.976C373.301 295.409 367.757 294.041 359.368 294.041z"/></svg>