<svg xmlns="http://www.w3.org/2000/svg" width="512" height="512" enable-background="new 0 0 512 512" viewBox="0 0 512 512"><path stroke="#000" stroke-miterlimit="10" d="M391.964,488.368H120.263c-24.62,0-44.65-19.903-44.65-44.367V68.004
				c0-24.463,20.03-44.366,44.65-44.366H312.96l123.427,122.694v297.668C436.387,468.465,416.459,488.368,391.964,488.368z
				 M120.263,41.638c-14.695,0-26.65,11.828-26.65,26.366v375.997c0,14.539,11.955,26.367,26.65,26.367h271.701
				c14.569,0,26.423-11.828,26.423-26.367V153.82L305.536,41.638H120.263z"/><path stroke="#000" stroke-miterlimit="10" d="M436.122 171.794l-108.701-.849c-23.207 0-38.247-17.719-38.247-45.143l-.876-101.634h23.87v18h-5.714l.72 83.557c0 8.239 1.979 27.221 20.317 27.221l90.631.708v-5.437h18V171.794zM205.467 327.426c0 2.946-.728 6.135-2.182 9.564-1.455 3.432-3.742 6.798-6.861 10.102-3.121 3.305-7.104 5.987-11.952 8.049-4.849 2.063-10.498 3.094-16.948 3.094-4.891 0-9.338-.464-13.343-1.389-4.006-.926-7.642-2.367-10.909-4.324-3.268-1.957-6.271-4.535-9.011-7.734-2.445-2.903-4.532-6.155-6.26-9.754-1.729-3.599-3.025-7.438-3.889-11.521-.865-4.082-1.296-8.417-1.296-13.005 0-7.45 1.085-14.12 3.257-20.013 2.17-5.893 5.28-10.932 9.327-15.12 4.047-4.188 8.79-7.376 14.229-9.565 5.438-2.188 11.234-3.282 17.39-3.282 7.503 0 14.186 1.494 20.046 4.482 5.859 2.988 10.349 6.682 13.47 11.079 3.119 4.398 4.68 8.555 4.68 12.469 0 2.146-.759 4.041-2.277 5.683-1.518 1.641-3.352 2.462-5.501 2.462-2.403 0-4.205-.568-5.407-1.705-1.202-1.136-2.541-3.093-4.016-5.871-2.445-4.587-5.323-8.018-8.632-10.29-3.31-2.273-7.389-3.409-12.236-3.409-7.715 0-13.86 2.926-18.434 8.775-4.575 5.851-6.861 14.163-6.861 24.937 0 7.197 1.012 13.185 3.036 17.961 2.023 4.777 4.89 8.345 8.6 10.701 3.709 2.357 8.052 3.535 13.027 3.535 5.396 0 9.96-1.335 13.691-4.009 3.731-2.672 6.545-6.597 8.442-11.773.8-2.44 1.792-4.43 2.972-5.967 1.18-1.535 3.077-2.304 5.691-2.304 2.234 0 4.152.779 5.754 2.336C204.666 323.176 205.467 325.112 205.467 327.426zM278.43 346.177l-4.426-11.617h-37.69l-4.427 11.869c-1.729 4.631-3.204 7.756-4.426 9.375-1.223 1.62-3.225 2.431-6.008 2.431-2.361 0-4.448-.863-6.26-2.588-1.813-1.726-2.719-3.683-2.719-5.872 0-1.263.21-2.566.632-3.914.421-1.347 1.117-3.22 2.087-5.618l23.714-60.103c.674-1.725 1.486-3.798 2.435-6.218s1.96-4.43 3.035-6.029c1.075-1.6 2.487-2.894 4.237-3.883 1.749-.988 3.91-1.483 6.481-1.483 2.614 0 4.795.495 6.545 1.483 1.748.989 3.162 2.263 4.236 3.819 1.076 1.558 1.98 3.23 2.719 5.02s1.676 4.177 2.814 7.165l24.221 59.724c1.896 4.545 2.846 7.85 2.846 9.911 0 2.146-.896 4.114-2.688 5.903-1.793 1.788-3.953 2.683-6.482 2.683-1.477 0-2.74-.264-3.795-.789-1.053-.526-1.939-1.241-2.656-2.146-.717-.904-1.484-2.293-2.307-4.167C279.727 349.26 279.02 347.607 278.43 346.177zM241.247 320.481h27.697l-13.975-38.195L241.247 320.481zM323.38 264.104h24.473c6.365 0 11.825.59 16.378 1.768 4.553 1.179 8.685 3.389 12.395 6.629 9.653 8.25 14.481 20.792 14.481 37.627 0 5.556-.485 10.628-1.455 15.215-.97 4.588-2.466 8.723-4.489 12.405-2.023 3.684-4.616 6.977-7.778 9.88-2.488 2.231-5.207 4.021-8.157 5.366-2.952 1.348-6.124 2.295-9.518 2.842s-7.22.82-11.478.82h-24.473c-3.415 0-5.986-.515-7.715-1.547-1.729-1.03-2.856-2.482-3.383-4.356-.528-1.872-.791-4.303-.791-7.291v-67.867c0-4.041.906-6.966 2.72-8.775C316.401 265.01 319.332 264.104 323.38 264.104zM330.651 278.94v62.816h14.229c3.119 0 5.565-.084 7.336-.252s3.604-.589 5.501-1.263c1.897-.673 3.542-1.62 4.933-2.841 6.281-5.304 9.423-14.436 9.423-27.399 0-9.133-1.382-15.973-4.143-20.519-2.762-4.545-6.165-7.438-10.213-8.681-4.047-1.24-8.938-1.862-14.671-1.862H330.651z"/></svg>