<svg xmlns="http://www.w3.org/2000/svg" width="512" height="512" enable-background="new 0 0 512 512" viewBox="0 0 512 512"><path stroke="#000" stroke-miterlimit="10" d="M391.851,488.5H120.149c-24.495,0-44.422-19.902-44.422-44.366V67.871
				c0-24.463,19.928-44.365,44.422-44.365h192.703l123.421,122.946v297.683C436.272,468.598,416.345,488.5,391.851,488.5z
				 M120.149,41.505c-14.569,0-26.422,11.828-26.422,26.365v376.263c0,14.538,11.853,26.366,26.422,26.366h271.702
				c14.569,0,26.422-11.828,26.422-26.366V153.928L305.416,41.505H120.149z"/><path stroke="#000" stroke-miterlimit="10" d="M436.272 171.953l-109.01-1.159c-23.031 0-37.976-17.719-37.976-45.142l-.875-101.35h23.624v18h-5.468l.719 83.272c0 8.239 1.956 27.22 20.071 27.22l90.914.966v-5.676h18V171.953zM207.458 316.523c0 2.946-.728 6.135-2.182 9.564-1.455 3.432-3.742 6.798-6.861 10.102-3.121 3.305-7.104 5.987-11.952 8.049-4.849 2.063-10.498 3.094-16.948 3.094-4.891 0-9.338-.464-13.343-1.389-4.006-.926-7.642-2.367-10.909-4.324-3.268-1.957-6.271-4.535-9.011-7.734-2.445-2.903-4.532-6.155-6.26-9.754-1.729-3.599-3.025-7.438-3.889-11.521-.865-4.082-1.296-8.417-1.296-13.005 0-7.45 1.085-14.12 3.257-20.013 2.17-5.893 5.28-10.932 9.327-15.12 4.047-4.188 8.79-7.376 14.229-9.565 5.438-2.188 11.234-3.283 17.39-3.283 7.503 0 14.186 1.494 20.046 4.482 5.859 2.988 10.349 6.682 13.47 11.079 3.119 4.398 4.68 8.555 4.68 12.469 0 2.146-.759 4.041-2.277 5.683-1.518 1.641-3.352 2.462-5.501 2.462-2.403 0-4.205-.568-5.407-1.705-1.202-1.136-2.541-3.093-4.016-5.871-2.445-4.587-5.323-8.018-8.632-10.29-3.31-2.273-7.389-3.409-12.236-3.409-7.715 0-13.86 2.926-18.434 8.775-4.575 5.851-6.861 14.163-6.861 24.937 0 7.197 1.012 13.185 3.036 17.961 2.023 4.777 4.89 8.345 8.6 10.701 3.709 2.357 8.052 3.535 13.027 3.535 5.396 0 9.96-1.335 13.691-4.009 3.731-2.672 6.545-6.597 8.442-11.773.8-2.44 1.792-4.43 2.972-5.967 1.18-1.535 3.077-2.304 5.691-2.304 2.234 0 4.152.779 5.754 2.336C206.656 312.273 207.458 314.21 207.458 316.523zM291.549 317.976c0 5.599-1.443 10.628-4.33 15.089-2.889 4.462-7.115 7.954-12.68 10.479s-12.164 3.788-19.793 3.788c-9.148 0-16.694-1.726-22.639-5.177-4.216-2.482-7.642-5.797-10.276-9.943-2.635-4.145-3.952-8.176-3.952-12.09 0-2.272.79-4.219 2.371-5.84 1.581-1.619 3.594-2.431 6.039-2.431 1.981 0 3.657.632 5.027 1.895 1.37 1.263 2.54 3.136 3.51 5.618 1.18 2.947 2.456 5.409 3.826 7.387 1.37 1.979 3.298 3.609 5.786 4.893 2.487 1.284 5.755 1.926 9.802 1.926 5.565 0 10.086-1.294 13.565-3.883 3.479-2.588 5.217-5.817 5.217-9.69 0-3.072-.939-5.565-2.814-7.481-1.877-1.914-4.301-3.377-7.271-4.388-2.973-1.01-6.947-2.083-11.921-3.22-6.662-1.557-12.236-3.377-16.726-5.461-4.49-2.083-8.053-4.924-10.687-8.522-2.635-3.599-3.952-8.07-3.952-13.416 0-5.092 1.391-9.616 4.173-13.573 2.783-3.956 6.808-6.997 12.079-9.123 5.269-2.125 11.466-3.188 18.591-3.188 5.691 0 10.613.705 14.765 2.115 4.152 1.411 7.6 3.283 10.34 5.619s4.742 4.788 6.008 7.355 1.896 5.072 1.896 7.513c0 2.23-.789 4.24-2.371 6.028-1.58 1.79-3.553 2.684-5.912 2.684-2.15 0-3.785-.537-4.9-1.61-1.119-1.073-2.33-2.83-3.637-5.271-1.688-3.492-3.711-6.218-6.07-8.175-2.361-1.958-6.156-2.937-11.383-2.937-4.849 0-8.758 1.063-11.73 3.188-2.972 2.126-4.458 4.683-4.458 7.671 0 1.853.506 3.451 1.518 4.798 1.012 1.348 2.403 2.505 4.174 3.473 1.771.968 3.562 1.726 5.375 2.272 1.812.547 4.806 1.348 8.98 2.398 5.227 1.222 9.959 2.568 14.197 4.041 4.236 1.474 7.84 3.262 10.813 5.366s5.291 4.767 6.957 7.986C290.717 309.358 291.549 313.304 291.549 317.976zM318.101 263.935l20.994 62.059 21.058-62.5c1.096-3.283 1.918-5.566 2.467-6.85.547-1.284 1.454-2.44 2.719-3.473 1.265-1.031 2.993-1.546 5.186-1.546 1.602 0 3.088.4 4.458 1.199 1.37.8 2.444 1.862 3.226 3.188.779 1.326 1.17 2.662 1.17 4.009 0 .926-.127 1.926-.38 2.999s-.569 2.125-.948 3.156c-.38 1.032-.759 2.095-1.139 3.188l-22.449 60.48c-.801 2.315-1.603 4.514-2.402 6.598-.802 2.083-1.729 3.914-2.782 5.492-1.055 1.578-2.457 2.872-4.206 3.883-1.75 1.01-3.889 1.515-6.418 1.515s-4.67-.495-6.419-1.483c-1.75-.988-3.162-2.294-4.236-3.914-1.075-1.62-2.014-3.462-2.814-5.524-.802-2.062-1.603-4.25-2.403-6.565l-22.069-59.976c-.38-1.094-.77-2.167-1.17-3.22-.401-1.052-.738-2.188-1.012-3.409-.274-1.221-.411-2.251-.411-3.094 0-2.146.863-4.104 2.593-5.871 1.729-1.768 3.899-2.651 6.514-2.651 3.203 0 5.47.979 6.798 2.936S316.709 259.642 318.101 263.935z"/></svg>