<svg xmlns="http://www.w3.org/2000/svg" width="512" height="512" enable-background="new 0 0 512 512" viewBox="0 0 512 512"><path stroke="#000" stroke-miterlimit="10" d="M391.851,488.5H120.149c-24.495,0-44.422-19.902-44.422-44.366V67.871
				c0-24.463,19.928-44.365,44.422-44.365h192.684l123.439,122.946v297.683C436.272,468.598,416.345,488.5,391.851,488.5z
				 M120.149,41.505c-14.569,0-26.422,11.828-26.422,26.365v376.263c0,14.538,11.853,26.366,26.422,26.366h271.702
				c14.569,0,26.422-11.828,26.422-26.366V153.928L305.397,41.505H120.149z"/><path stroke="#000" stroke-miterlimit="10" d="M436.272 171.953l-109.01-1.159c-23.031 0-37.976-17.719-37.976-45.142l-.875-101.35h23.624v18h-5.468l.719 83.272c0 8.239 1.956 27.22 20.071 27.22l90.914.966v-5.676h18V171.953zM133.451 253.202h24.473c6.365 0 11.826.59 16.378 1.768 4.553 1.179 8.684 3.389 12.395 6.629 9.653 8.25 14.481 20.792 14.481 37.627 0 5.556-.485 10.628-1.455 15.215-.97 4.588-2.466 8.723-4.49 12.405-2.024 3.684-4.616 6.977-7.778 9.88-2.488 2.231-5.207 4.021-8.158 5.366-2.951 1.348-6.124 2.295-9.517 2.842-3.394.547-7.22.82-11.478.82H133.83c-3.415 0-5.987-.515-7.715-1.547-1.729-1.03-2.856-2.482-3.383-4.356-.527-1.872-.79-4.303-.79-7.291v-67.867c0-4.041.906-6.966 2.719-8.775C126.473 254.108 129.404 253.202 133.451 253.202zM140.723 268.038v62.816h14.228c3.12 0 5.565-.084 7.335-.252 1.771-.168 3.604-.589 5.502-1.263 1.897-.673 3.541-1.62 4.932-2.841 6.281-5.304 9.422-14.436 9.422-27.399 0-9.133-1.381-15.973-4.142-20.519-2.761-4.545-6.166-7.438-10.212-8.681-4.047-1.24-8.938-1.862-14.671-1.862H140.723zM255.232 251.624c9.611 0 17.865 1.947 24.758 5.839 6.893 3.895 12.109 9.429 15.65 16.604 3.541 7.177 5.313 15.604 5.313 25.284 0 7.156-.971 13.658-2.91 19.508-1.939 5.851-4.848 10.922-8.727 15.215s-8.643 7.576-14.291 9.849c-5.65 2.273-12.121 3.409-19.414 3.409-7.251 0-13.744-1.168-19.477-3.504-5.734-2.336-10.519-5.628-14.354-9.88-3.837-4.251-6.735-9.364-8.695-15.341s-2.94-12.438-2.94-19.382c0-7.112 1.021-13.637 3.067-19.571 2.044-5.935 5.006-10.984 8.885-15.151 3.878-4.167 8.6-7.354 14.165-9.564S248.15 251.624 255.232 251.624zM281.918 299.226c0-6.776-1.096-12.647-3.287-17.614-2.193-4.966-5.324-8.722-9.391-11.269-4.07-2.546-8.738-3.819-14.008-3.819-3.753 0-7.22.705-10.402 2.114-3.184 1.411-5.924 3.463-8.221 6.155-2.298 2.694-4.11 6.135-5.438 10.322-1.328 4.188-1.992 8.892-1.992 14.11 0 5.262.664 10.018 1.992 14.268 1.328 4.252 3.203 7.776 5.628 10.575 2.424 2.799 5.206 4.893 8.347 6.281 3.14 1.389 6.586 2.083 10.339 2.083 4.806 0 9.222-1.199 13.249-3.598 4.025-2.399 7.229-6.103 9.611-11.111C280.727 312.715 281.918 306.549 281.918 299.226zM395.221 316.523c0 2.946-.727 6.135-2.182 9.564-1.454 3.432-3.741 6.798-6.861 10.102-3.12 3.305-7.104 5.987-11.951 8.049-4.849 2.063-10.498 3.094-16.947 3.094-4.892 0-9.339-.464-13.344-1.389-4.006-.926-7.642-2.367-10.908-4.324-3.268-1.957-6.271-4.535-9.011-7.734-2.446-2.903-4.533-6.155-6.261-9.754-1.729-3.599-3.025-7.438-3.89-11.521-.864-4.082-1.296-8.417-1.296-13.005 0-7.45 1.085-14.12 3.257-20.013 2.171-5.893 5.28-10.932 9.327-15.12 4.047-4.188 8.79-7.376 14.229-9.565 5.438-2.188 11.234-3.283 17.39-3.283 7.504 0 14.187 1.494 20.047 4.482 5.859 2.988 10.349 6.682 13.469 11.079 3.12 4.398 4.68 8.555 4.68 12.469 0 2.146-.759 4.041-2.276 5.683-1.518 1.641-3.352 2.462-5.502 2.462-2.402 0-4.205-.568-5.406-1.705-1.201-1.136-2.54-3.093-4.016-5.871-2.445-4.587-5.323-8.018-8.632-10.29-3.31-2.273-7.389-3.409-12.236-3.409-7.715 0-13.859 2.926-18.434 8.775-4.575 5.851-6.861 14.163-6.861 24.937 0 7.197 1.012 13.185 3.035 17.961 2.023 4.777 4.891 8.345 8.601 10.701 3.709 2.357 8.052 3.535 13.026 3.535 5.396 0 9.96-1.335 13.691-4.009 3.73-2.672 6.545-6.597 8.442-11.773.8-2.44 1.791-4.43 2.972-5.967 1.18-1.535 3.077-2.304 5.691-2.304 2.234 0 4.151.779 5.755 2.336C394.42 312.273 395.221 314.21 395.221 316.523z"/></svg>