<svg xmlns="http://www.w3.org/2000/svg" width="512" height="512" enable-background="new 0 0 512 512" viewBox="0 0 512 512"><path stroke="#000" stroke-miterlimit="10" d="M391.718,488.368H119.997c-24.484,0-44.403-19.903-44.403-44.367V68.004
				c0-24.463,19.919-44.366,44.403-44.366h192.672l123.736,122.688v297.675C436.405,468.465,416.358,488.368,391.718,488.368z
				 M119.997,41.638c-14.559,0-26.403,11.828-26.403,26.366v375.997c0,14.539,11.844,26.367,26.403,26.367h271.721
				c14.716,0,26.688-11.828,26.688-26.367V153.827L305.258,41.638H119.997z"/><path stroke="#000" stroke-miterlimit="10" d="M436.104 171.794l-108.968-.849c-23.068 0-38.02-17.719-38.02-45.143l-.854-101.634h23.62v18h-5.468l.701 83.559c0 8.237 1.958 27.219 20.09 27.219l90.897.708v-5.437h18V171.794zM118.325 283.938h19.229c5.001 0 9.291.463 12.869 1.389 3.577.926 6.823 2.662 9.738 5.208 7.585 6.482 11.378 16.337 11.378 29.564 0 4.365-.381 8.351-1.143 11.954-.762 3.604-1.938 6.854-3.528 9.747-1.59 2.895-3.627 5.481-6.111 7.763-1.955 1.754-4.091 3.159-6.41 4.217-2.319 1.059-4.812 1.803-7.478 2.232-2.667.43-5.673.645-9.018.645h-19.229c-2.683 0-4.704-.404-6.062-1.215-1.359-.811-2.245-1.951-2.658-3.423-.415-1.472-.621-3.381-.621-5.729v-53.324c0-3.175.712-5.473 2.136-6.895C112.843 284.648 115.146 283.938 118.325 283.938zM124.04 295.594v49.356h11.179c2.451 0 4.373-.066 5.764-.199 1.391-.132 2.832-.462 4.323-.992 1.49-.528 2.782-1.272 3.875-2.231 4.935-4.167 7.403-11.343 7.403-21.528 0-7.176-1.085-12.55-3.255-16.121-2.17-3.571-4.844-5.845-8.024-6.82-3.18-.976-7.023-1.464-11.527-1.464H124.04zM215.334 282.697c7.552 0 14.036 1.529 19.452 4.588 5.416 3.06 9.515 7.408 12.297 13.046 2.783 5.639 4.174 12.261 4.174 19.866 0 5.622-.762 10.731-2.286 15.328-1.524 4.597-3.81 8.581-6.856 11.954-3.048 3.373-6.791 5.952-11.229 7.738-4.439 1.786-9.523 2.679-15.254 2.679-5.698 0-10.799-.918-15.303-2.753-4.505-1.836-8.265-4.423-11.279-7.764-3.015-3.339-5.292-7.357-6.832-12.054-1.54-4.695-2.31-9.771-2.31-15.228 0-5.589.803-10.715 2.41-15.378 1.606-4.662 3.933-8.631 6.981-11.904 3.047-3.274 6.757-5.779 11.129-7.516C204.8 283.565 209.769 282.697 215.334 282.697zM236.301 320.099c0-5.324-.862-9.938-2.583-13.84-1.723-3.901-4.182-6.854-7.378-8.854-3.197-2-6.865-3.001-11.005-3.001-2.949 0-5.673.555-8.174 1.662-2.501 1.108-4.654 2.721-6.459 4.836-1.806 2.117-3.229 4.82-4.273 8.11-1.043 3.291-1.565 6.986-1.565 11.087 0 4.134.521 7.87 1.565 11.21 1.043 3.341 2.517 6.11 4.422 8.309 1.904 2.2 4.091 3.845 6.559 4.936 2.467 1.092 5.175 1.637 8.124 1.637 3.776 0 7.246-.942 10.409-2.827 3.163-1.885 5.68-4.794 7.552-8.73C235.365 330.697 236.301 325.853 236.301 320.099zM328.581 333.689c0 2.315-.571 4.82-1.714 7.516-1.144 2.695-2.94 5.341-5.392 7.937s-5.582 4.704-9.391 6.324c-3.81 1.62-8.248 2.431-13.315 2.431-3.843 0-7.338-.364-10.484-1.092-3.146-.727-6.004-1.859-8.57-3.397-2.567-1.538-4.928-3.563-7.08-6.076-1.922-2.282-3.562-4.837-4.919-7.664-1.359-2.827-2.378-5.845-3.056-9.053-.68-3.207-1.019-6.613-1.019-10.219 0-5.853.853-11.094 2.559-15.724 1.705-4.63 4.148-8.59 7.328-11.881 3.181-3.29 6.907-5.795 11.18-7.515 4.273-1.719 8.827-2.579 13.664-2.579 5.896 0 11.146 1.174 15.75 3.521 4.604 2.349 8.132 5.25 10.583 8.706 2.451 3.455 3.677 6.721 3.677 9.796 0 1.687-.596 3.175-1.788 4.465s-2.634 1.935-4.323 1.935c-1.888 0-3.304-.446-4.248-1.34-.943-.893-1.996-2.431-3.155-4.612-1.921-3.604-4.182-6.3-6.781-8.086-2.602-1.786-5.806-2.679-9.614-2.679-6.063 0-10.891 2.299-14.484 6.896s-5.391 11.128-5.391 19.593c0 5.655.795 10.359 2.385 14.112 1.59 3.754 3.843 6.557 6.758 8.408 2.914 1.853 6.326 2.777 10.235 2.777 4.239 0 7.825-1.049 10.757-3.149 2.932-2.1 5.143-5.184 6.633-9.251.629-1.918 1.408-3.48 2.336-4.688.927-1.207 2.417-1.811 4.472-1.811 1.755 0 3.262.612 4.521 1.835C327.951 330.35 328.581 331.871 328.581 333.689zM337.942 342.52l16.297-23.761-13.713-21.131c-1.292-2.05-2.261-3.812-2.907-5.283-.646-1.471-.969-2.885-.969-4.241 0-1.389.621-2.637 1.863-3.745 1.242-1.107 2.758-1.661 4.547-1.661 2.053 0 3.651.604 4.794 1.811 1.144 1.207 2.725 3.447 4.745 6.721l10.932 17.659 11.676-17.659c.96-1.487 1.78-2.761 2.46-3.819.678-1.058 1.333-1.935 1.962-2.629s1.333-1.215 2.112-1.563c.777-.347 1.681-.521 2.708-.521 1.854 0 3.369.554 4.546 1.661 1.175 1.108 1.764 2.423 1.764 3.943 0 2.217-1.275 5.226-3.826 9.028l-14.358 21.429 15.452 23.761c1.391 2.083 2.401 3.812 3.03 5.184s.944 2.671.944 3.894c0 1.158-.282 2.216-.845 3.175-.563.959-1.358 1.72-2.385 2.281-1.027.563-2.187.844-3.479.844-1.391 0-2.567-.29-3.527-.868-.961-.578-1.739-1.298-2.335-2.158-.597-.859-1.707-2.529-3.329-5.01l-12.819-20.139-13.614 20.734c-1.06 1.653-1.813 2.811-2.26 3.472-.447.662-.986 1.307-1.615 1.935-.63.629-1.375 1.124-2.236 1.488-.861.363-1.871.546-3.03.546-1.789 0-3.271-.546-4.447-1.637-1.176-1.092-1.764-2.679-1.764-4.763C334.315 349.051 335.524 346.058 337.942 342.52z"/></svg>