<svg xmlns="http://www.w3.org/2000/svg" width="512" height="512" enable-background="new 0 0 512 512" viewBox="0 0 512 512"><path stroke="#000" stroke-miterlimit="10" d="M391.851,488.368H120.149c-24.495,0-44.422-19.783-44.422-44.101V67.985
				c0-24.453,19.928-44.347,44.422-44.347h192.665l123.459,122.945v297.685C436.272,468.585,416.345,488.368,391.851,488.368z
				 M120.149,41.638c-14.569,0-26.422,11.819-26.422,26.347v376.283c0,14.392,11.853,26.101,26.422,26.101h271.702
				c14.569,0,26.422-11.709,26.422-26.101V154.061L305.38,41.638H120.149z"/><path stroke="#000" stroke-miterlimit="10" d="M436.272 171.775l-109.005-.848c-23.207 0-38.247-17.727-38.247-45.162L288.149 24.15h23.866v18h-5.712l.717 83.538c0 8.244 1.979 27.24 20.317 27.24l90.935.707v-5.417h18V171.775zM127.879 286.574h22.725c5.911 0 10.98.547 15.208 1.641 4.228 1.095 8.064 3.146 11.509 6.156 8.964 7.66 13.447 19.307 13.447 34.938 0 5.159-.451 9.869-1.351 14.128-.901 4.261-2.29 8.101-4.169 11.52-1.879 3.42-4.287 6.478-7.223 9.175-2.311 2.071-4.835 3.732-7.575 4.982-2.74 1.252-5.687 2.131-8.837 2.639-3.151.508-6.704.762-10.657.762h-22.725c-3.17 0-5.559-.479-7.164-1.437-1.605-.957-2.652-2.306-3.142-4.045-.49-1.738-.734-3.995-.734-6.771v-63.02c0-3.752.841-6.468 2.525-8.148C121.4 287.415 124.121 286.574 127.879 286.574zM134.632 300.351v58.329h13.212c2.896 0 5.167-.078 6.812-.234s3.347-.547 5.108-1.173c1.762-.624 3.289-1.504 4.58-2.638 5.833-4.925 8.75-13.404 8.75-25.442 0-8.48-1.283-14.831-3.846-19.053-2.564-4.221-5.725-6.907-9.483-8.061-3.758-1.152-8.299-1.729-13.623-1.729H134.632zM270.413 358.973l-13.917-51.529-14.093 51.529c-1.096 3.908-1.967 6.713-2.613 8.412-.646 1.7-1.772 3.225-3.376 4.573-1.605 1.348-3.739 2.022-6.4 2.022-2.153 0-3.925-.401-5.314-1.202-1.39-.801-2.516-1.935-3.376-3.4-.862-1.465-1.566-3.204-2.114-5.217-.548-2.013-1.038-3.879-1.468-5.599l-14.328-57.86c-.862-3.361-1.292-5.921-1.292-7.68 0-2.228.783-4.104 2.349-5.628 1.565-1.524 3.503-2.286 5.813-2.286 3.171 0 5.304 1.017 6.4 3.048 1.096 2.033 2.055 4.983 2.877 8.853l11.274 50.181 12.625-46.957c.939-3.595 1.781-6.331 2.525-8.207.743-1.876 1.957-3.497 3.641-4.865 1.683-1.367 3.973-2.052 6.87-2.052 2.937 0 5.216.714 6.841 2.14 1.624 1.427 2.75 2.98 3.377 4.66.625 1.681 1.468 4.456 2.524 8.324l12.742 46.957 11.274-50.181c.548-2.618 1.066-4.67 1.557-6.155.488-1.485 1.33-2.814 2.524-3.986 1.193-1.173 2.926-1.759 5.197-1.759 2.27 0 4.198.753 5.783 2.257 1.586 1.505 2.379 3.391 2.379 5.657 0 1.603-.432 4.162-1.292 7.68l-14.328 57.86c-.979 3.908-1.791 6.771-2.437 8.588-.646 1.817-1.742 3.41-3.288 4.778-1.547 1.367-3.729 2.052-6.548 2.052-2.662 0-4.796-.665-6.4-1.993-1.605-1.328-2.722-2.823-3.347-4.485C272.429 365.842 271.548 362.999 270.413 358.973zM399.205 337.575v16.474c0 2.188-.216 3.938-.646 5.246-.431 1.311-1.224 2.492-2.378 3.547-1.155 1.056-2.633 2.072-4.434 3.049-5.206 2.813-10.217 4.865-15.032 6.155-4.814 1.289-10.062 1.935-15.736 1.935-6.616 0-12.646-1.017-18.086-3.049-5.441-2.031-10.081-4.982-13.917-8.852-3.837-3.869-6.782-8.56-8.837-14.069-2.056-5.511-3.083-11.666-3.083-18.467 0-6.683.998-12.799 2.995-18.349 1.996-5.549 4.932-10.259 8.808-14.128 3.875-3.869 8.593-6.83 14.151-8.882s11.861-3.077 18.908-3.077c5.793 0 10.922.772 15.385 2.315 4.462 1.544 8.083 3.488 10.862 5.833s4.874 4.827 6.283 7.445 2.114 4.944 2.114 6.976c0 2.189-.813 4.056-2.437 5.599-1.625 1.544-3.573 2.315-5.843 2.315-1.254 0-2.457-.293-3.611-.879-1.155-.586-2.124-1.407-2.907-2.462-2.153-3.361-3.974-5.901-5.461-7.621-1.488-1.72-3.493-3.166-6.019-4.338-2.524-1.173-5.745-1.759-9.659-1.759-4.032 0-7.634.694-10.805 2.081-3.171 1.388-5.882 3.399-8.133 6.038-2.251 2.638-3.974 5.872-5.167 9.702-1.194 3.83-1.791 8.07-1.791 12.721 0 10.083 2.319 17.842 6.958 23.273 4.639 5.433 11.107 8.148 19.407 8.148 4.031 0 7.818-.527 11.362-1.583 3.542-1.055 7.135-2.56 10.775-4.514v-13.952h-13.506c-3.25 0-5.706-.488-7.369-1.466-1.665-.977-2.496-2.638-2.496-4.982 0-1.915.694-3.498 2.085-4.749 1.389-1.25 3.278-1.876 5.666-1.876h19.789c2.427 0 4.481.216 6.165.646 1.683.43 3.044 1.388 4.081 2.872C398.686 332.378 399.205 334.605 399.205 337.575z"/></svg>