<?xml version="1.0" encoding="UTF-8"?><!DOCTYPE svg PUBLIC "-//W3C//DTD SVG 1.1//EN" "http://www.w3.org/Graphics/SVG/1.1/DTD/svg11.dtd"><svg xmlns="http://www.w3.org/2000/svg" xmlns:xlink="http://www.w3.org/1999/xlink" version="1.1" id="Layer_1" x="0px" y="0px" viewBox="0 0 256 256" xml:space="preserve"><circle fill="#BBC2C6" cx="128" cy="128" r="127"/><path fill="#527F99" d="M79.9 47.4h53.6V89H79.9z"/><path fill="#E65336" d="M138.2 89h-63c-4.5 0-8.1 3.6-8.1 8.1v97.7c0 4.5 3.6 8.1 8.1 8.1h63c4.5 0 8.1-3.6 8.1-8.1V97.2c.1-4.5-3.6-8.2-8.1-8.2z"/><g fill="#F2CD56"><path d="M84.7 57.1h6.7v22.2h-6.7z"/><path d="M97.2 61.4h6.7v17.9h-6.7z"/><path d="M109.6 61.4h6.7v17.9h-6.7z"/><path d="M122.1 57.1h6.7v22.2h-6.7z"/></g><path fill="#C9A234" d="M164.4 106.4l-38.9 13.9v38.9s2.2 24.7 38.9 49.4c36.7-24.7 38.9-49.4 38.9-49.4v-38.9l-38.9-13.9z"/><path fill="#F2CD56" d="M164.4 194.2c-22.8-17.5-26.7-33-27.2-35.9v-29.8l27.2-9.7 27.2 9.7v29.8c-.6 2.9-4.4 18.4-27.2 35.9z"/><metadata><rdf:RDF xmlns:rdf="http://www.w3.org/1999/02/22-rdf-syntax-ns#" xmlns:rdfs="http://www.w3.org/2000/01/rdf-schema#" xmlns:dc="http://purl.org/dc/elements/1.1/"><rdf:Description about="https://iconscout.com/legal#licenses" dc:publisher="Iconscout" dc:date="2018-04-11" dc:format="image/svg+xml" dc:language="en"><dc:creator><rdf:Bag><rdf:li>Creative Stall</rdf:li></rdf:Bag></dc:creator></rdf:Description></rdf:RDF></metadata></svg>