<svg xmlns="http://www.w3.org/2000/svg" width="512" height="512" enable-background="new 0 0 512 512" viewBox="0 0 512 512"><path stroke="#000" stroke-miterlimit="10" d="M391.851,488.368H120.14c-24.489,0-44.413-19.783-44.413-44.101V67.985
				c0-24.453,19.924-44.347,44.413-44.347h192.692l123.44,122.945v297.685C436.272,468.585,416.345,488.368,391.851,488.368z
				 M120.14,41.638c-14.564,0-26.413,11.819-26.413,26.347v376.283c0,14.392,11.849,26.101,26.413,26.101h271.711
				c14.569,0,26.422-11.709,26.422-26.101V154.06L305.397,41.638H120.14z"/><path stroke="#000" stroke-miterlimit="10" d="M436.272 171.796l-108.985-.869c-23.056 0-38-17.727-38-45.162l-.875-101.596h23.604v18h-5.447l.719 83.519c0 8.245 1.956 27.24 20.071 27.24l90.914.725v-5.454h18V171.796zM145.217 290.198v26.516h40.535v-26.516c0-3.787.854-6.629 2.561-8.522 1.708-1.894 3.953-2.841 6.735-2.841 2.824 0 5.111.937 6.861 2.81 1.749 1.873 2.624 4.725 2.624 8.554v72.918c0 3.83-.885 6.692-2.656 8.586s-4.047 2.841-6.83 2.841c-2.825 0-5.081-.958-6.766-2.872-1.687-1.915-2.53-4.767-2.53-8.555v-31.124h-40.535v31.124c0 3.83-.885 6.692-2.656 8.586-1.771 1.894-4.047 2.841-6.83 2.841-2.825 0-5.081-.958-6.766-2.872-1.687-1.915-2.529-4.767-2.529-8.555v-72.918c0-3.787.832-6.629 2.498-8.522 1.665-1.894 3.931-2.841 6.798-2.841 2.824 0 5.111.937 6.861 2.81C144.342 283.518 145.217 286.369 145.217 290.198zM288.145 295.881h-20.488v67.235c0 3.873-.865 6.745-2.592 8.617-1.73 1.873-3.965 2.81-6.703 2.81-2.783 0-5.05-.947-6.799-2.841-1.75-1.894-2.624-4.756-2.624-8.586v-67.235H228.45c-3.205 0-5.587-.705-7.146-2.115-1.56-1.41-2.34-3.272-2.34-5.587 0-2.399.812-4.293 2.435-5.683 1.623-1.389 3.973-2.083 7.051-2.083h59.695c3.246 0 5.66.716 7.242 2.146 1.58 1.432 2.371 3.305 2.371 5.619s-.803 4.177-2.404 5.587S291.348 295.881 288.145 295.881zM342.391 359.013l-14.86-58.966v63.89c0 3.536-.79 6.188-2.371 7.955s-3.679 2.651-6.292 2.651c-2.53 0-4.596-.874-6.197-2.62-1.604-1.746-2.403-4.408-2.403-7.986v-73.232c0-4.041 1.054-6.766 3.162-8.176 2.107-1.41 4.953-2.115 8.537-2.115h5.817c3.499 0 6.039.315 7.62.947 1.581.631 2.751 1.768 3.51 3.409s1.622 4.314 2.593 8.018l13.469 50.695 13.47-50.695c.97-3.703 1.834-6.376 2.593-8.018s1.929-2.778 3.51-3.409c1.581-.632 4.12-.947 7.62-.947h5.817c3.583 0 6.429.705 8.537 2.115 2.107 1.41 3.162 4.135 3.162 8.176v73.232c0 3.536-.79 6.188-2.371 7.955s-3.699 2.651-6.355 2.651c-2.488 0-4.532-.884-6.134-2.651-1.603-1.768-2.403-4.419-2.403-7.955v-63.89l-14.86 58.966c-.971 3.83-1.761 6.64-2.372 8.428-.611 1.79-1.738 3.42-3.383 4.894-1.645 1.473-3.921 2.209-6.83 2.209-2.192 0-4.047-.474-5.564-1.42-1.518-.947-2.698-2.156-3.541-3.631-.844-1.473-1.508-3.103-1.992-4.893C343.392 362.812 342.896 360.949 342.391 359.013z"/></svg>