<svg xmlns="http://www.w3.org/2000/svg" width="512" height="512" enable-background="new 0 0 512 512" viewBox="0 0 512 512"><path stroke="#000" stroke-miterlimit="10" d="M391.851,488.368H120.149c-24.495,0-44.422-19.903-44.422-44.367V68.004
				c0-24.463,19.928-44.366,44.422-44.366h192.697l123.427,122.694v297.668C436.272,468.465,416.345,488.368,391.851,488.368z
				 M120.149,41.638c-14.569,0-26.422,11.828-26.422,26.366v375.997c0,14.539,11.853,26.367,26.422,26.367h271.702
				c14.569,0,26.422-11.828,26.422-26.367V153.82L305.422,41.638H120.149z"/><path stroke="#000" stroke-miterlimit="10" d="M436.272 171.794l-109.005-.849c-23.045 0-37.98-17.719-37.98-45.143l-.875-101.634h23.604v18h-5.447l.719 83.557c0 8.239 1.954 27.221 20.051 27.221l90.935.708v-5.437h18V171.794zM120.193 285.714v22.728h34.744v-22.728c0-3.247.731-5.682 2.195-7.306 1.463-1.623 3.388-2.435 5.772-2.435 2.42 0 4.381.803 5.881 2.408 1.499 1.605 2.25 4.05 2.25 7.332v62.501c0 3.283-.759 5.735-2.276 7.359-1.518 1.623-3.469 2.435-5.854 2.435-2.421 0-4.355-.82-5.8-2.462-1.446-1.641-2.168-4.086-2.168-7.332v-26.678h-34.744v26.678c0 3.283-.759 5.735-2.277 7.359-1.518 1.623-3.469 2.435-5.854 2.435-2.421 0-4.354-.82-5.799-2.462-1.446-1.641-2.168-4.086-2.168-7.332v-62.501c0-3.247.713-5.682 2.141-7.306 1.427-1.623 3.369-2.435 5.827-2.435 2.421 0 4.381.803 5.881 2.408C119.442 279.987 120.193 282.432 120.193 285.714zM238.928 290.584h-17.562v57.631c0 3.319-.741 5.781-2.222 7.386-1.482 1.605-3.397 2.408-5.746 2.408-2.385 0-4.328-.812-5.827-2.435-1.5-1.624-2.25-4.076-2.25-7.359v-57.631H187.76c-2.747 0-4.789-.604-6.125-1.813-1.337-1.209-2.005-2.805-2.005-4.789 0-2.057.695-3.68 2.087-4.87 1.391-1.19 3.405-1.786 6.043-1.786h51.168c2.782 0 4.851.614 6.206 1.84 1.355 1.227 2.033 2.832 2.033 4.816s-.687 3.58-2.06 4.789C243.733 289.98 241.674 290.584 238.928 290.584zM288.089 344.697l-12.737-50.542v54.763c0 3.03-.678 5.303-2.033 6.818-1.354 1.516-3.152 2.272-5.393 2.272-2.169 0-3.939-.749-5.313-2.245-1.373-1.497-2.06-3.779-2.06-6.846v-62.771c0-3.463.903-5.799 2.71-7.008 1.807-1.208 4.246-1.813 7.317-1.813h4.987c2.999 0 5.176.271 6.531.812s2.357 1.516 3.008 2.922c.65 1.407 1.391 3.698 2.223 6.873l11.545 43.453 11.546-43.453c.831-3.175 1.571-5.466 2.222-6.873.65-1.406 1.653-2.381 3.009-2.922 1.354-.541 3.531-.812 6.531-.812h4.986c3.071 0 5.511.604 7.318 1.813 1.806 1.209 2.71 3.545 2.71 7.008v62.771c0 3.03-.678 5.303-2.033 6.818-1.354 1.516-3.171 2.272-5.447 2.272-2.133 0-3.885-.757-5.258-2.272s-2.06-3.788-2.06-6.818v-54.763l-12.737 50.542c-.832 3.283-1.51 5.691-2.033 7.224-.524 1.534-1.49 2.932-2.899 4.194s-3.36 1.894-5.854 1.894c-1.879 0-3.469-.405-4.77-1.217-1.301-.813-2.313-1.849-3.035-3.112-.724-1.262-1.293-2.66-1.708-4.193S288.522 346.357 288.089 344.697zM369.502 285.714v57.738h32.631c2.602 0 4.598.632 5.989 1.895 1.391 1.263 2.087 2.851 2.087 4.762 0 1.948-.688 3.526-2.06 4.735-1.374 1.209-3.38 1.813-6.017 1.813h-38.864c-3.505 0-6.025-.775-7.561-2.327-1.537-1.551-2.304-4.059-2.304-7.521v-61.094c0-3.247.731-5.682 2.195-7.306 1.463-1.623 3.388-2.435 5.772-2.435 2.42 0 4.381.803 5.881 2.408C368.752 279.987 369.502 282.432 369.502 285.714z"/></svg>