<svg xmlns="http://www.w3.org/2000/svg" width="512" height="512" enable-background="new 0 0 512 512" viewBox="0 0 512 512"><path stroke="#000" stroke-miterlimit="10" d="M391.851,488.368H120.149c-24.495,0-44.422-19.783-44.422-44.101V67.985
				c0-24.453,19.928-44.347,44.422-44.347h192.683l123.44,122.945v297.685C436.272,468.585,416.345,488.368,391.851,488.368z
				 M120.149,41.638c-14.569,0-26.422,11.819-26.422,26.347v376.283c0,14.392,11.853,26.101,26.422,26.101h271.702
				c14.569,0,26.422-11.709,26.422-26.101V154.06L305.397,41.638H120.149z"/><path stroke="#000" stroke-miterlimit="10" d="M436.272 171.796l-108.985-.869c-23.218 0-38.267-17.727-38.267-45.162l-.871-101.596h23.887v18h-5.732l.717 83.519c0 8.244 1.981 27.24 20.338 27.24l90.914.725v-5.454h18V171.796zM166.571 278.835c9.612 0 17.864 1.947 24.757 5.84 6.893 3.894 12.11 9.428 15.651 16.604 3.542 7.177 5.312 15.604 5.312 25.284 0 7.156-.97 13.658-2.909 19.508-1.94 5.851-4.849 10.922-8.727 15.215-3.879 4.293-8.643 7.576-14.292 9.849-5.649 2.273-12.121 3.409-19.414 3.409-7.251 0-13.744-1.168-19.477-3.504-5.734-2.336-10.519-5.628-14.354-9.88-3.837-4.251-6.735-9.364-8.695-15.341s-2.94-12.438-2.94-19.382c0-7.112 1.021-13.637 3.067-19.571 2.044-5.935 5.006-10.984 8.885-15.151 3.878-4.167 8.6-7.355 14.165-9.564C153.165 279.939 159.488 278.835 166.571 278.835zM193.257 326.437c0-6.776-1.097-12.647-3.289-17.614-2.192-4.966-5.323-8.722-9.391-11.269-4.069-2.546-8.737-3.819-14.007-3.819-3.753 0-7.22.705-10.402 2.114-3.184 1.411-5.924 3.463-8.221 6.155-2.298 2.694-4.11 6.135-5.438 10.322-1.328 4.188-1.992 8.892-1.992 14.11 0 5.262.664 10.018 1.992 14.268 1.328 4.252 3.203 7.776 5.628 10.575 2.424 2.799 5.206 4.893 8.347 6.281 3.14 1.389 6.586 2.083 10.339 2.083 4.806 0 9.222-1.199 13.248-3.598 4.025-2.399 7.23-6.103 9.612-11.111C192.065 339.926 193.257 333.76 193.257 326.437zM239.212 280.413h24.474c6.365 0 11.824.59 16.377 1.768 4.553 1.179 8.686 3.389 12.395 6.629 9.654 8.25 14.482 20.792 14.482 37.627 0 5.556-.486 10.628-1.455 15.215-.971 4.588-2.467 8.723-4.49 12.405-2.023 3.684-4.615 6.977-7.777 9.88-2.488 2.231-5.207 4.021-8.158 5.366-2.951 1.348-6.123 2.295-9.518 2.842-3.393.547-7.219.82-11.477.82h-24.473c-3.415 0-5.987-.515-7.715-1.547-1.729-1.03-2.856-2.482-3.383-4.356-.527-1.872-.79-4.303-.79-7.291v-67.867c0-4.041.906-6.966 2.719-8.775C232.234 281.318 235.165 280.413 239.212 280.413zM246.484 295.249v62.816h14.229c3.119 0 5.564-.084 7.336-.252 1.77-.168 3.604-.589 5.5-1.263 1.898-.673 3.543-1.62 4.934-2.841 6.281-5.304 9.422-14.436 9.422-27.399 0-9.133-1.381-15.973-4.143-20.519-2.762-4.545-6.164-7.438-10.213-8.681-4.047-1.24-8.938-1.862-14.67-1.862H246.484zM380.407 295.881h-20.488v67.235c0 3.873-.865 6.745-2.593 8.617-1.729 1.873-3.964 2.81-6.703 2.81-2.782 0-5.05-.947-6.798-2.841-1.75-1.894-2.625-4.756-2.625-8.586v-67.235h-20.488c-3.204 0-5.587-.705-7.146-2.115-1.561-1.41-2.34-3.272-2.34-5.587 0-2.399.811-4.293 2.435-5.683 1.622-1.389 3.973-2.083 7.051-2.083h59.695c3.246 0 5.66.716 7.241 2.146 1.58 1.432 2.371 3.305 2.371 5.619s-.802 4.177-2.403 5.587C386.014 295.176 383.61 295.881 380.407 295.881z"/></svg>