<svg xmlns="http://www.w3.org/2000/svg" width="512" height="512" enable-background="new 0 0 512 512" viewBox="0 0 512 512"><path stroke="#000" stroke-miterlimit="10" d="M391.718,488.368H120.006c-24.489,0-44.412-19.783-44.412-44.101V67.994
				c0-24.458,19.923-44.356,44.412-44.356h192.687l123.712,122.939v297.69C436.405,468.585,416.358,488.368,391.718,488.368z
				 M120.006,41.638c-14.563,0-26.412,11.823-26.412,26.356v376.273c0,14.392,11.849,26.101,26.412,26.101h271.711
				c14.716,0,26.688-11.709,26.688-26.101V154.066L305.271,41.638H120.006z"/><path stroke="#000" stroke-miterlimit="10" d="M436.142 171.795l-108.988-.859c-23.055 0-37.998-17.723-37.998-45.152l-.876-101.616h23.622v18h-5.466l.72 83.538c0 8.242 1.956 27.23 20.069 27.23l90.917.716v-5.445h18V171.795zM172.792 328.543h-17.2v26.2c0 3.746-.885 6.588-2.656 8.522-1.771 1.936-4.005 2.904-6.703 2.904-2.825 0-5.101-.958-6.83-2.872-1.729-1.915-2.593-4.725-2.593-8.429V283.53c0-4.124.949-7.071 2.846-8.839 1.897-1.768 4.911-2.651 9.043-2.651h24.093c7.124 0 12.605.548 16.442 1.642 3.794 1.053 7.071 2.8 9.833 5.24 2.761 2.441 4.858 5.429 6.292 8.964 1.433 3.536 2.15 7.514 2.15 11.933 0 9.429-2.909 16.572-8.727 21.434C192.965 326.112 184.301 328.543 172.792 328.543zM168.239 286.118h-12.647v28.283h12.647c4.426 0 8.126-.462 11.098-1.389 2.972-.925 5.238-2.44 6.798-4.545 1.559-2.104 2.34-4.861 2.34-8.271 0-4.082-1.202-7.407-3.604-9.976C182.172 287.486 176.628 286.118 168.239 286.118zM240.915 272.04h24.473c6.365 0 11.825.59 16.378 1.768 4.553 1.179 8.685 3.389 12.395 6.629 9.653 8.25 14.481 20.792 14.481 37.627 0 5.556-.485 10.628-1.455 15.215-.97 4.588-2.466 8.723-4.489 12.405-2.023 3.684-4.616 6.977-7.778 9.88-2.488 2.231-5.207 4.021-8.157 5.366-2.952 1.348-6.124 2.295-9.518 2.842s-7.22.82-11.478.82h-24.473c-3.415 0-5.987-.515-7.715-1.547-1.729-1.03-2.856-2.482-3.383-4.356-.527-1.872-.79-4.303-.79-7.291V283.53c0-4.041.906-6.966 2.719-8.775C233.937 272.945 236.868 272.04 240.915 272.04zM248.187 286.876v62.816h14.228c3.119 0 5.565-.084 7.336-.252s3.604-.589 5.501-1.263c1.897-.673 3.542-1.62 4.933-2.841 6.281-5.304 9.423-14.436 9.423-27.399 0-9.133-1.382-15.973-4.143-20.519-2.762-4.545-6.165-7.438-10.213-8.681-4.047-1.24-8.938-1.862-14.671-1.862H248.187zM386.37 286.497h-36.994v23.675h30.923c2.867 0 5.006.643 6.419 1.926 1.412 1.284 2.118 2.998 2.118 5.145 0 2.147-.717 3.852-2.149 5.114-1.435 1.263-3.563 1.894-6.388 1.894h-30.923v30.493c0 3.873-.875 6.745-2.624 8.617-1.75 1.873-3.995 2.81-6.734 2.81-2.783 0-5.05-.947-6.798-2.841-1.75-1.894-2.625-4.756-2.625-8.586V283.53c0-2.693.4-4.893 1.202-6.598.8-1.704 2.055-2.945 3.762-3.725 1.708-.778 3.89-1.168 6.546-1.168h44.266c2.993 0 5.217.663 6.671 1.988 1.455 1.326 2.182 3.063 2.182 5.209 0 2.188-.727 3.945-2.182 5.271C391.587 285.834 389.363 286.497 386.37 286.497z"/></svg>