<svg xmlns="http://www.w3.org/2000/svg" width="512" height="512" enable-background="new 0 0 512 512" viewBox="0 0 512 512"><path stroke="#000" stroke-miterlimit="10" d="M391.982,488.368H120.017c-24.495,0-44.422-19.783-44.422-44.101V67.985
				c0-24.453,19.928-44.347,44.422-44.347h192.968l123.421,122.945v297.684C436.405,468.585,416.478,488.368,391.982,488.368z
				 M120.017,41.638c-14.569,0-26.422,11.819-26.422,26.347v376.283c0,14.392,11.853,26.101,26.422,26.101h271.966
				c14.569,0,26.423-11.709,26.423-26.101V154.06L305.549,41.638H120.017z"/><path stroke="#000" stroke-miterlimit="10" d="M436.104 171.775l-108.701-.848c-23.23 0-38.286-17.727-38.286-45.162L288.283 24.15h23.6v18h-5.451l.685 83.542c0 8.241 1.983 27.236 20.356 27.236l90.631.707v-5.417h18V171.775zM163.351 334.953h-13.515v20.586c0 2.943-.696 5.176-2.087 6.696s-3.147 2.282-5.267 2.282c-2.22 0-4.008-.753-5.366-2.257-1.358-1.505-2.037-3.712-2.037-6.622v-56.053c0-3.24.746-5.556 2.236-6.944 1.491-1.389 3.858-2.083 7.105-2.083h18.93c5.598 0 9.904.43 12.918 1.289 2.981.827 5.556 2.2 7.726 4.117 2.169 1.918 3.817 4.266 4.944 7.044 1.125 2.777 1.689 5.902 1.689 9.375 0 7.408-2.286 13.021-6.857 16.841C179.201 333.044 172.394 334.953 163.351 334.953zM159.773 301.62h-9.937v22.223h9.937c3.478 0 6.385-.364 8.72-1.092 2.335-.727 4.115-1.917 5.341-3.571 1.225-1.653 1.838-3.819 1.838-6.498 0-3.207-.944-5.82-2.832-7.838C170.721 302.695 166.365 301.62 159.773 301.62zM228.169 334.953h-13.515v20.586c0 2.943-.696 5.176-2.087 6.696s-3.147 2.282-5.267 2.282c-2.22 0-4.008-.753-5.366-2.257-1.358-1.505-2.037-3.712-2.037-6.622v-56.053c0-3.24.746-5.556 2.236-6.944 1.491-1.389 3.858-2.083 7.105-2.083h18.93c5.598 0 9.904.43 12.918 1.289 2.981.827 5.556 2.2 7.726 4.117 2.169 1.918 3.817 4.266 4.944 7.044 1.125 2.777 1.689 5.902 1.689 9.375 0 7.408-2.286 13.021-6.857 16.841C244.02 333.044 237.212 334.953 228.169 334.953zM224.592 301.62h-9.937v22.223h9.937c3.478 0 6.385-.364 8.72-1.092 2.335-.727 4.115-1.917 5.341-3.571 1.225-1.653 1.838-3.819 1.838-6.498 0-3.207-.944-5.82-2.832-7.838C235.539 302.695 231.183 301.62 224.592 301.62zM312.018 302.711H295.92v52.828c0 3.043-.68 5.3-2.037 6.771-1.359 1.471-3.113 2.207-5.268 2.207-2.186 0-3.967-.744-5.34-2.232-1.375-1.488-2.063-3.736-2.063-6.746v-52.828h-16.098c-2.52 0-4.391-.553-5.615-1.661-1.227-1.108-1.838-2.571-1.838-4.391 0-1.885.637-3.373 1.912-4.464 1.275-1.092 3.121-1.637 5.541-1.637h46.902c2.551 0 4.447.563 5.689 1.687s1.863 2.596 1.863 4.414c0 1.819-.629 3.282-1.889 4.391C316.424 302.158 314.535 302.711 312.018 302.711zM326.751 349.141l16.297-23.761-13.713-21.131c-1.292-2.05-2.261-3.812-2.907-5.283-.646-1.471-.969-2.885-.969-4.241 0-1.389.621-2.637 1.863-3.745 1.242-1.107 2.758-1.661 4.547-1.661 2.053 0 3.651.604 4.794 1.811 1.144 1.207 2.725 3.447 4.745 6.721l10.932 17.659 11.676-17.659c.96-1.487 1.78-2.761 2.46-3.819.678-1.058 1.333-1.935 1.962-2.629s1.333-1.215 2.112-1.563c.777-.347 1.681-.521 2.708-.521 1.854 0 3.369.554 4.546 1.661 1.175 1.108 1.764 2.423 1.764 3.943 0 2.217-1.275 5.226-3.826 9.028l-14.358 21.429 15.452 23.761c1.391 2.083 2.401 3.812 3.03 5.184s.944 2.671.944 3.894c0 1.158-.282 2.216-.845 3.175-.563.959-1.358 1.72-2.385 2.281-1.027.563-2.187.844-3.479.844-1.391 0-2.567-.29-3.527-.868-.961-.578-1.739-1.298-2.335-2.158-.597-.859-1.707-2.529-3.329-5.01l-12.819-20.139-13.614 20.734c-1.06 1.653-1.813 2.811-2.26 3.472-.447.662-.986 1.307-1.615 1.935-.63.629-1.375 1.124-2.236 1.488-.861.363-1.871.546-3.03.546-1.789 0-3.271-.546-4.447-1.637-1.176-1.092-1.764-2.679-1.764-4.763C323.124 355.672 324.333 352.679 326.751 349.141z"/></svg>