<svg xmlns="http://www.w3.org/2000/svg" width="512" height="512" enable-background="new 0 0 512 512" viewBox="0 0 512 512"><path stroke="#000" stroke-miterlimit="10" d="M392.003,488.368H120.035c-24.495,0-44.422-19.903-44.422-44.367V68.004
				c0-24.463,19.928-44.366,44.422-44.366H312.96l123.427,122.694v297.668C436.387,468.465,416.477,488.368,392.003,488.368z
				 M120.035,41.638c-14.569,0-26.422,11.828-26.422,26.366v375.997c0,14.539,11.853,26.367,26.422,26.367h271.968
				c14.548,0,26.384-11.828,26.384-26.367V153.82L305.536,41.638H120.035z"/><path stroke="#000" stroke-miterlimit="10" d="M436.16 171.794l-108.702-.849c-23.229 0-38.284-17.719-38.284-45.143l-.876-101.634h23.87v18h-5.714l.72 83.557c0 8.239 1.983 27.221 20.354 27.221l90.632.708v-5.437h18V171.794zM165.846 320.607h-17.2v26.2c0 3.746-.885 6.588-2.656 8.522-1.771 1.936-4.005 2.904-6.703 2.904-2.825 0-5.101-.958-6.83-2.872-1.729-1.915-2.593-4.725-2.593-8.429v-71.339c0-4.124.949-7.071 2.846-8.839 1.897-1.768 4.911-2.651 9.043-2.651h24.093c7.124 0 12.605.548 16.442 1.642 3.794 1.053 7.071 2.8 9.833 5.24 2.761 2.441 4.858 5.429 6.292 8.964 1.433 3.536 2.15 7.514 2.15 11.933 0 9.429-2.909 16.572-8.727 21.434C186.019 318.177 177.355 320.607 165.846 320.607zM161.293 278.183h-12.647v28.283h12.647c4.426 0 8.126-.462 11.098-1.389 2.972-.925 5.238-2.44 6.798-4.545 1.559-2.104 2.34-4.861 2.34-8.271 0-4.082-1.202-7.407-3.604-9.976C175.226 279.551 169.682 278.183 161.293 278.183zM283.583 328.878c0 5.599-1.444 10.628-4.331 15.089-2.889 4.462-7.114 7.954-12.68 10.479-5.564 2.525-12.163 3.788-19.793 3.788-9.148 0-16.694-1.726-22.639-5.177-4.216-2.482-7.642-5.797-10.276-9.943-2.635-4.145-3.952-8.176-3.952-12.09 0-2.272.79-4.219 2.371-5.84 1.581-1.619 3.594-2.431 6.039-2.431 1.981 0 3.657.632 5.027 1.895 1.37 1.263 2.54 3.136 3.51 5.618 1.18 2.947 2.456 5.409 3.826 7.387 1.37 1.979 3.298 3.609 5.786 4.893 2.487 1.284 5.755 1.926 9.802 1.926 5.565 0 10.086-1.294 13.564-3.883 3.479-2.588 5.217-5.817 5.217-9.69 0-3.072-.938-5.565-2.813-7.481-1.877-1.914-4.301-3.377-7.272-4.388-2.972-1.01-6.946-2.083-11.92-3.22-6.662-1.557-12.236-3.377-16.726-5.461-4.49-2.083-8.053-4.924-10.687-8.522-2.635-3.599-3.952-8.07-3.952-13.416 0-5.092 1.391-9.616 4.173-13.573 2.783-3.956 6.808-6.997 12.079-9.122 5.269-2.125 11.466-3.188 18.591-3.188 5.691 0 10.613.705 14.766 2.115s7.599 3.282 10.34 5.618c2.739 2.336 4.742 4.788 6.007 7.355 1.266 2.567 1.897 5.072 1.897 7.513 0 2.23-.79 4.24-2.371 6.028-1.581 1.79-3.553 2.684-5.913 2.684-2.149 0-3.784-.537-4.9-1.61-1.118-1.073-2.33-2.83-3.637-5.271-1.687-3.492-3.71-6.218-6.07-8.175-2.361-1.958-6.156-2.937-11.383-2.937-4.849 0-8.758 1.063-11.73 3.188-2.972 2.126-4.458 4.683-4.458 7.671 0 1.853.506 3.451 1.518 4.798 1.012 1.348 2.403 2.505 4.174 3.473 1.771.968 3.562 1.726 5.375 2.272 1.812.547 4.806 1.348 8.979 2.398 5.227 1.222 9.96 2.568 14.197 4.041 4.236 1.474 7.841 3.262 10.813 5.366 2.972 2.104 5.29 4.767 6.956 7.986C282.75 320.261 283.583 324.206 283.583 328.878zM308.047 264.104h24.473c6.365 0 11.825.59 16.378 1.768 4.553 1.179 8.685 3.389 12.395 6.629 9.653 8.25 14.481 20.792 14.481 37.627 0 5.556-.485 10.628-1.455 15.215-.97 4.588-2.466 8.723-4.489 12.405-2.023 3.684-4.616 6.977-7.778 9.88-2.488 2.231-5.207 4.021-8.157 5.366-2.952 1.348-6.124 2.295-9.518 2.842s-7.22.82-11.478.82h-24.473c-3.415 0-5.986-.515-7.715-1.547-1.729-1.03-2.856-2.482-3.383-4.356-.528-1.872-.791-4.303-.791-7.291v-67.867c0-4.041.906-6.966 2.72-8.775C301.068 265.01 303.999 264.104 308.047 264.104zM315.318 278.94v62.816h14.229c3.119 0 5.565-.084 7.336-.252s3.604-.589 5.501-1.263c1.897-.673 3.542-1.62 4.933-2.841 6.281-5.304 9.423-14.436 9.423-27.399 0-9.133-1.382-15.973-4.143-20.519-2.762-4.545-6.165-7.438-10.213-8.681-4.047-1.24-8.938-1.862-14.671-1.862H315.318z"/></svg>