<svg xmlns="http://www.w3.org/2000/svg" width="512" height="512" enable-background="new 0 0 512 512" viewBox="0 0 512 512"><path stroke="#000" stroke-miterlimit="10" d="M391.718,488.368H120.017c-24.495,0-44.422-19.903-44.422-44.367V68.004
				c0-24.463,19.928-44.366,44.422-44.366h192.69l123.698,122.688v297.674C436.405,468.465,416.358,488.368,391.718,488.368z
				 M120.017,41.638c-14.569,0-26.422,11.828-26.422,26.366v375.997c0,14.539,11.853,26.367,26.422,26.367h271.701
				c14.716,0,26.688-11.828,26.688-26.367V153.826L305.295,41.638H120.017z"/><path stroke="#000" stroke-miterlimit="10" d="M436.142 171.794l-108.968-.849c-23.067 0-38.019-17.719-38.019-45.143l-.876-101.634h23.643v18h-5.486l.72 83.557c0 8.239 1.957 27.221 20.089 27.221l90.897.708v-5.437h18V171.794zM150.339 317.072h-6.577v29.735c0 3.914-.865 6.798-2.593 8.649-1.729 1.852-3.984 2.777-6.767 2.777-2.994 0-5.312-.969-6.956-2.904-1.644-1.935-2.466-4.776-2.466-8.522v-71.213c0-4.041.906-6.966 2.719-8.775 1.813-1.81 4.743-2.715 8.79-2.715h30.543c4.215 0 7.82.18 10.813.537 2.993.357 5.691 1.084 8.094 2.178 2.909 1.221 5.48 2.967 7.715 5.24 2.234 2.272 3.93 4.914 5.09 7.923 1.159 3.01 1.739 6.197 1.739 9.564 0 6.903-1.951 12.416-5.85 16.54-3.9 4.126-9.813 7.051-17.738 8.775 3.33 1.769 6.513 4.378 9.549 7.829 3.035 3.451 5.744 7.124 8.125 11.017 2.381 3.894 4.237 7.408 5.565 10.543 1.328 3.136 1.992 5.293 1.992 6.471 0 1.222-.391 2.431-1.17 3.63-.781 1.2-1.845 2.146-3.193 2.842-1.35.694-2.909 1.041-4.68 1.041-2.108 0-3.879-.495-5.312-1.483-1.434-.988-2.667-2.241-3.699-3.757-1.034-1.515-2.435-3.745-4.205-6.691l-7.525-12.5c-2.698-4.587-5.112-8.081-7.241-10.48-2.129-2.398-4.29-4.04-6.482-4.924C156.43 317.515 153.668 317.072 150.339 317.072zM161.089 278.183h-17.327v25.442h16.821c4.511 0 8.305-.389 11.383-1.168 3.077-.778 5.427-2.104 7.051-3.978 1.623-1.872 2.435-4.45 2.435-7.733 0-2.566-.654-4.829-1.96-6.786-1.307-1.957-3.12-3.419-5.438-4.388C171.86 278.646 167.539 278.183 161.089 278.183zM277.054 346.177l-4.427-11.617h-37.689l-4.427 11.869c-1.729 4.631-3.204 7.756-4.426 9.375-1.223 1.62-3.225 2.431-6.008 2.431-2.361 0-4.448-.863-6.26-2.588-1.813-1.726-2.719-3.683-2.719-5.872 0-1.263.21-2.566.632-3.914.421-1.347 1.117-3.22 2.087-5.618l23.714-60.103c.674-1.725 1.486-3.798 2.435-6.218s1.96-4.43 3.035-6.029c1.075-1.6 2.487-2.894 4.237-3.883 1.749-.988 3.91-1.483 6.481-1.483 2.614 0 4.795.495 6.545 1.483 1.749.989 3.162 2.263 4.237 3.819 1.075 1.558 1.98 3.23 2.719 5.02.737 1.789 1.676 4.177 2.814 7.165l24.22 59.724c1.897 4.545 2.846 7.85 2.846 9.911 0 2.146-.896 4.114-2.688 5.903-1.793 1.788-3.952 2.683-6.482 2.683-1.476 0-2.74-.264-3.794-.789-1.054-.526-1.939-1.241-2.656-2.146-.717-.904-1.485-2.293-2.308-4.167C278.35 349.26 277.644 347.607 277.054 346.177zM239.87 320.481h27.697l-13.975-38.195L239.87 320.481zM335.599 317.072h-6.577v29.735c0 3.914-.864 6.798-2.593 8.649s-3.983 2.777-6.766 2.777c-2.994 0-5.313-.969-6.956-2.904-1.645-1.935-2.467-4.776-2.467-8.522v-71.213c0-4.041.906-6.966 2.72-8.775 1.812-1.81 4.742-2.715 8.79-2.715h30.543c4.215 0 7.819.18 10.813.537 2.993.357 5.691 1.084 8.095 2.178 2.908 1.221 5.479 2.967 7.715 5.24 2.233 2.272 3.931 4.914 5.091 7.923 1.158 3.01 1.738 6.197 1.738 9.564 0 6.903-1.95 12.416-5.85 16.54-3.899 4.126-9.813 7.051-17.737 8.775 3.33 1.769 6.514 4.378 9.549 7.829s5.743 7.124 8.126 11.017c2.381 3.894 4.236 7.408 5.564 10.543 1.328 3.136 1.992 5.293 1.992 6.471 0 1.222-.391 2.431-1.17 3.63-.78 1.2-1.845 2.146-3.193 2.842-1.35.694-2.909 1.041-4.68 1.041-2.108 0-3.879-.495-5.312-1.483-1.435-.988-2.667-2.241-3.7-3.757-1.033-1.515-2.435-3.745-4.205-6.691l-7.525-12.5c-2.698-4.587-5.112-8.081-7.24-10.48-2.129-2.398-4.29-4.04-6.481-4.924C341.69 317.515 338.929 317.072 335.599 317.072zM346.349 278.183h-17.327v25.442h16.821c4.511 0 8.305-.389 11.383-1.168 3.077-.778 5.428-2.104 7.051-3.978 1.622-1.872 2.435-4.45 2.435-7.733 0-2.566-.654-4.829-1.96-6.786-1.308-1.957-3.12-3.419-5.438-4.388C357.12 278.646 352.799 278.183 346.349 278.183z"/></svg>