<svg xmlns="http://www.w3.org/2000/svg" width="512" height="512" enable-background="new 0 0 512 512" viewBox="0 0 512 512"><path stroke="#000" stroke-miterlimit="10" d="M391.964,488.368H120.006c-24.484,0-44.403-19.783-44.403-44.101V68.022
				c0-24.474,19.919-44.384,44.403-44.384h192.959l123.421,122.945v297.684C436.387,468.585,416.459,488.368,391.964,488.368z
				 M120.006,41.638c-14.559,0-26.403,11.836-26.403,26.384v376.245c0,14.392,11.844,26.101,26.403,26.101h271.958
				c14.569,0,26.423-11.709,26.423-26.101V154.06L305.53,41.638H120.006z"/><path stroke="#000" stroke-miterlimit="10" d="M436.122 172.084l-108.726-1.139c-23.206 0-38.262-17.727-38.262-45.161l-.833-101.616h23.6v18h-5.451l.685 83.542c0 10.218 2.645 27.235 20.356 27.235l90.631.949v-5.659h18V172.084zM163.869 341.354h-6.577v29.735c0 3.914-.865 6.798-2.593 8.649-1.729 1.852-3.984 2.777-6.767 2.777-2.994 0-5.312-.969-6.956-2.904-1.644-1.935-2.466-4.776-2.466-8.522v-71.213c0-4.041.906-6.966 2.719-8.775 1.813-1.81 4.743-2.715 8.79-2.715h30.543c4.215 0 7.82.18 10.813.537 2.993.357 5.691 1.084 8.094 2.178 2.909 1.221 5.48 2.967 7.715 5.24 2.234 2.272 3.93 4.914 5.09 7.923 1.159 3.01 1.739 6.197 1.739 9.564 0 6.903-1.951 12.416-5.85 16.54-3.9 4.126-9.813 7.051-17.738 8.775 3.33 1.769 6.513 4.378 9.549 7.829 3.035 3.451 5.744 7.124 8.125 11.017 2.381 3.894 4.237 7.408 5.565 10.543 1.328 3.136 1.992 5.293 1.992 6.471 0 1.222-.391 2.431-1.17 3.63-.781 1.2-1.845 2.146-3.193 2.842-1.35.694-2.909 1.041-4.68 1.041-2.108 0-3.879-.495-5.312-1.483-1.434-.988-2.667-2.241-3.699-3.757-1.034-1.515-2.435-3.745-4.205-6.691l-7.525-12.5c-2.698-4.587-5.112-8.081-7.241-10.48-2.129-2.398-4.29-4.04-6.482-4.924C169.96 341.797 167.199 341.354 163.869 341.354zM174.619 302.465h-17.327v25.442h16.821c4.511 0 8.305-.389 11.383-1.168 3.077-.778 5.427-2.104 7.051-3.978 1.623-1.872 2.435-4.45 2.435-7.733 0-2.566-.654-4.829-1.96-6.786-1.307-1.957-3.12-3.419-5.438-4.388C185.39 302.929 181.069 302.465 174.619 302.465zM282.145 303.854h-20.488v67.235c0 3.873-.865 6.745-2.594 8.617-1.729 1.873-3.963 2.81-6.703 2.81-2.782 0-5.049-.947-6.798-2.841-1.75-1.894-2.624-4.756-2.624-8.586v-67.235h-20.489c-3.205 0-5.587-.705-7.146-2.115-1.56-1.41-2.34-3.272-2.34-5.587 0-2.399.812-4.293 2.435-5.683 1.623-1.389 3.973-2.083 7.051-2.083h59.696c3.246 0 5.66.716 7.24 2.146 1.58 1.432 2.371 3.305 2.371 5.619s-.801 4.177-2.402 5.587C287.75 303.149 285.348 303.854 282.145 303.854zM360.483 302.844h-36.994v23.675h30.923c2.867 0 5.006.643 6.419 1.926 1.412 1.284 2.118 2.998 2.118 5.145 0 2.147-.717 3.852-2.149 5.114-1.435 1.263-3.563 1.894-6.388 1.894h-30.923v30.493c0 3.873-.875 6.745-2.624 8.617-1.75 1.873-3.995 2.81-6.734 2.81-2.783 0-5.05-.947-6.798-2.841-1.75-1.894-2.625-4.756-2.625-8.586v-71.213c0-2.693.4-4.893 1.202-6.598.8-1.704 2.055-2.945 3.762-3.725 1.708-.778 3.89-1.168 6.546-1.168h44.266c2.993 0 5.217.663 6.671 1.988 1.455 1.326 2.182 3.063 2.182 5.209 0 2.188-.727 3.945-2.182 5.271C365.7 302.181 363.477 302.844 360.483 302.844z"/></svg>