<svg xmlns="http://www.w3.org/2000/svg" width="512" height="512" enable-background="new 0 0 512 512" viewBox="0 0 512 512"><path stroke="#000" stroke-miterlimit="10" d="M391.982,488.368H120.282c-24.641,0-44.688-19.894-44.688-44.347V67.739
				c0-24.317,20.047-44.101,44.688-44.101H312.94l123.465,122.674v297.709C436.405,468.475,416.478,488.368,391.982,488.368z
				 M120.282,41.638c-14.715,0-26.688,11.708-26.688,26.101v376.283c0,14.527,11.972,26.347,26.688,26.347h271.701
				c14.569,0,26.423-11.819,26.423-26.347V153.802L305.519,41.638H120.282z"/><path stroke="#000" stroke-miterlimit="10" d="M436.142 171.821l-108.765-1.16c-23.182 0-38.222-17.719-38.222-45.143l-.876-101.35h23.907v18h-5.751l.72 83.272c0 10.215 2.64 27.221 20.317 27.221l90.669.966v-5.411h18V171.821zM202.387 347.314c0 5.599-1.445 10.628-4.332 15.089-2.888 4.462-7.114 7.954-12.679 10.479s-12.163 3.788-19.793 3.788c-9.148 0-16.694-1.726-22.639-5.177-4.216-2.482-7.642-5.797-10.276-9.943-2.635-4.145-3.952-8.176-3.952-12.09 0-2.272.79-4.219 2.371-5.84 1.581-1.619 3.594-2.431 6.039-2.431 1.981 0 3.657.632 5.027 1.895 1.37 1.263 2.54 3.136 3.51 5.618 1.18 2.947 2.456 5.409 3.826 7.387 1.37 1.979 3.298 3.609 5.786 4.893 2.487 1.284 5.755 1.926 9.802 1.926 5.565 0 10.086-1.294 13.564-3.883 3.478-2.588 5.217-5.817 5.217-9.69 0-3.072-.939-5.565-2.814-7.481-1.876-1.914-4.3-3.377-7.272-4.388-2.972-1.01-6.946-2.083-11.92-3.22-6.662-1.557-12.236-3.377-16.726-5.461-4.49-2.083-8.053-4.924-10.687-8.522-2.635-3.599-3.952-8.07-3.952-13.416 0-5.092 1.391-9.616 4.173-13.573 2.783-3.956 6.808-6.997 12.079-9.122 5.269-2.125 11.466-3.188 18.591-3.188 5.691 0 10.613.705 14.766 2.115 4.152 1.41 7.598 3.282 10.339 5.618 2.74 2.336 4.743 4.788 6.007 7.355s1.897 5.072 1.897 7.513c0 2.23-.791 4.24-2.371 6.028-1.581 1.79-3.552 2.684-5.913 2.684-2.15 0-3.785-.537-4.901-1.61-1.118-1.073-2.33-2.83-3.636-5.271-1.687-3.492-3.71-6.218-6.071-8.175-2.361-1.958-6.156-2.937-11.383-2.937-4.849 0-8.758 1.063-11.73 3.188-2.972 2.126-4.458 4.683-4.458 7.671 0 1.853.506 3.451 1.518 4.798 1.012 1.348 2.403 2.505 4.174 3.473 1.771.968 3.562 1.726 5.375 2.272 1.812.547 4.806 1.348 8.979 2.398 5.227 1.222 9.96 2.568 14.197 4.041 4.237 1.474 7.841 3.262 10.813 5.366s5.29 4.767 6.956 7.986C201.554 338.697 202.387 342.643 202.387 347.314zM228.937 293.273l20.995 62.059 21.058-62.5c1.096-3.283 1.918-5.566 2.467-6.851.547-1.283 1.454-2.44 2.719-3.472s2.993-1.547 5.186-1.547c1.602 0 3.088.4 4.458 1.199 1.37.8 2.444 1.862 3.226 3.188.779 1.325 1.17 2.662 1.17 4.009 0 .926-.127 1.926-.38 2.999s-.569 2.125-.948 3.156c-.38 1.032-.759 2.095-1.139 3.188l-22.449 60.48c-.801 2.315-1.603 4.514-2.402 6.598-.802 2.083-1.729 3.914-2.782 5.492-1.055 1.578-2.457 2.872-4.206 3.883-1.75 1.01-3.889 1.515-6.418 1.515-2.53 0-4.67-.495-6.419-1.483-1.75-.988-3.162-2.294-4.237-3.914-1.075-1.62-2.014-3.462-2.814-5.524-.801-2.062-1.603-4.25-2.403-6.565l-22.07-59.976c-.379-1.094-.77-2.167-1.17-3.22-.401-1.052-.738-2.188-1.012-3.409-.275-1.221-.411-2.251-.411-3.094 0-2.146.864-4.104 2.593-5.871 1.728-1.768 3.899-2.651 6.513-2.651 3.204 0 5.47.979 6.798 2.936C226.186 285.855 227.546 288.98 228.937 293.273zM392.356 337.466v17.74c0 2.357-.232 4.241-.695 5.65-.465 1.41-1.318 2.684-2.562 3.819-1.243 1.137-2.835 2.231-4.774 3.283-5.607 3.03-11.003 5.24-16.188 6.629s-10.835 2.083-16.947 2.083c-7.125 0-13.618-1.095-19.477-3.282-5.86-2.188-10.856-5.367-14.987-9.533-4.133-4.167-7.305-9.218-9.518-15.152-2.213-5.934-3.32-12.563-3.32-19.886 0-7.197 1.075-13.784 3.226-19.761 2.15-5.976 5.312-11.048 9.485-15.215s9.254-7.355 15.24-9.564c5.985-2.21 12.773-3.314 20.362-3.314 6.238 0 11.762.831 16.568 2.493 4.806 1.663 8.705 3.757 11.698 6.282s5.249 5.198 6.767 8.018c1.518 2.82 2.276 5.325 2.276 7.513 0 2.357-.875 4.367-2.624 6.029-1.75 1.663-3.848 2.493-6.292 2.493-1.35 0-2.646-.315-3.89-.946-1.243-.632-2.287-1.516-3.13-2.651-2.319-3.62-4.279-6.355-5.881-8.208-1.603-1.852-3.763-3.409-6.481-4.672-2.72-1.262-6.188-1.894-10.403-1.894-4.342 0-8.221.748-11.635 2.241-3.415 1.494-6.335 3.662-8.759 6.503-2.425 2.841-4.279 6.324-5.564 10.448-1.287 4.125-1.929 8.691-1.929 13.699 0 10.859 2.497 19.214 7.493 25.063 4.996 5.851 11.962 8.775 20.899 8.775 4.342 0 8.421-.568 12.236-1.704 3.815-1.137 7.684-2.756 11.604-4.861V340.56h-14.545c-3.499 0-6.145-.525-7.936-1.578-1.793-1.052-2.688-2.841-2.688-5.366 0-2.062.748-3.767 2.244-5.114 1.496-1.347 3.531-2.02 6.103-2.02h21.312c2.613 0 4.826.231 6.64.694 1.812.463 3.277 1.494 4.395 3.093C391.798 331.869 392.356 334.268 392.356 337.466z"/></svg>