<svg xmlns="http://www.w3.org/2000/svg" width="512" height="512" enable-background="new 0 0 512 512" viewBox="0 0 512 512"><path stroke="#000" stroke-miterlimit="10" d="M391.851,488.5H120.149c-24.495,0-44.422-19.902-44.422-44.366V67.871
				c0-24.463,19.928-44.365,44.422-44.365h192.703l123.421,122.946v297.683C436.272,468.598,416.345,488.5,391.851,488.5z
				 M120.149,41.505c-14.569,0-26.422,11.828-26.422,26.365v376.263c0,14.538,11.853,26.366,26.422,26.366h271.702
				c14.569,0,26.422-11.828,26.422-26.366V153.928L305.416,41.505H120.149z"/><path stroke="#000" stroke-miterlimit="10" d="M436.272 171.953l-109.01-1.159c-23.031 0-37.976-17.719-37.976-45.142l-.875-101.35h23.624v18h-5.468l.719 83.272c0 10.214 2.607 27.22 20.071 27.22l90.914.966v-5.676h18V171.953zM205.26 268.67h-20.489v67.235c0 3.873-.864 6.745-2.593 8.617-1.729 1.873-3.963 2.81-6.703 2.81-2.782 0-5.049-.947-6.798-2.841-1.75-1.894-2.624-4.756-2.624-8.586V268.67h-20.489c-3.205 0-5.587-.705-7.146-2.115-1.56-1.41-2.34-3.272-2.34-5.587 0-2.399.812-4.293 2.435-5.682 1.623-1.389 3.973-2.083 7.051-2.083h59.695c3.246 0 5.66.716 7.241 2.146 1.581 1.431 2.372 3.305 2.372 5.619s-.801 4.177-2.403 5.587C210.866 267.965 208.463 268.67 205.26 268.67zM224.789 327.762l20.742-30.241-17.454-26.894c-1.644-2.609-2.877-4.851-3.699-6.724-.822-1.872-1.233-3.672-1.233-5.398 0-1.767.791-3.355 2.371-4.766 1.581-1.41 3.51-2.115 5.786-2.115 2.614 0 4.648.768 6.103 2.304 1.455 1.537 3.467 4.387 6.039 8.554l13.912 22.476 14.861-22.476c1.223-1.894 2.266-3.514 3.129-4.861.865-1.346 1.697-2.462 2.498-3.346s1.697-1.547 2.688-1.989 2.141-.663 3.447-.663c2.361 0 4.289.705 5.785 2.115 1.496 1.411 2.246 3.083 2.246 5.019 0 2.82-1.623 6.65-4.869 11.49l-18.275 27.272 19.666 30.241c1.771 2.651 3.057 4.851 3.857 6.597.801 1.747 1.201 3.399 1.201 4.956 0 1.474-.357 2.82-1.074 4.04-.717 1.222-1.729 2.189-3.035 2.904-1.309.716-2.783 1.073-4.428 1.073-1.77 0-3.268-.369-4.488-1.104-1.225-.736-2.215-1.651-2.973-2.746-.76-1.095-2.172-3.22-4.236-6.377l-16.316-25.632-17.327 26.39c-1.35 2.105-2.308 3.578-2.877 4.419-.569.843-1.255 1.663-2.056 2.463-.801.8-1.75 1.43-2.845 1.894-1.097.463-2.382.694-3.858.694-2.276 0-4.164-.694-5.66-2.083-1.497-1.389-2.245-3.409-2.245-6.061C220.172 336.074 221.711 332.266 224.789 327.762zM371.55 268.67h-20.488v67.235c0 3.873-.865 6.745-2.593 8.617-1.729 1.873-3.964 2.81-6.703 2.81-2.782 0-5.05-.947-6.798-2.841-1.75-1.894-2.625-4.756-2.625-8.586V268.67h-20.488c-3.204 0-5.587-.705-7.146-2.115-1.561-1.41-2.34-3.272-2.34-5.587 0-2.399.811-4.293 2.435-5.682 1.622-1.389 3.973-2.083 7.051-2.083h59.695c3.246 0 5.66.716 7.241 2.146 1.58 1.431 2.371 3.305 2.371 5.619s-.802 4.177-2.403 5.587C377.156 267.965 374.753 268.67 371.55 268.67z"/></svg>