<svg xmlns="http://www.w3.org/2000/svg" fill-rule="evenodd" stroke-linejoin="round" stroke-miterlimit="2" clip-rule="evenodd" viewBox="0 0 32 32"><g transform="scale(.21157 .17778)"><rect width="151.25" height="180" fill="none"/><clipPath id="a"><rect width="151.25" height="180"/></clipPath><g clip-path="url(#a)"><path d="M27,112.828C27,112.033 26.684,111.27 26.121,110.707C24.802,109.388 21.612,106.198 20.293,104.879C19.73,104.316 18.967,104 18.172,104L8,104C7.204,104 6.441,104.316 5.879,104.879C5.316,105.441 5,106.204 5,107C5,112.455 5,127.545 5,133C5,133.796 5.316,134.559 5.879,135.121C6.441,135.684 7.204,136 8,136C11.832,136 20.168,136 24,136C24.796,136 25.559,135.684 26.121,135.121C26.684,134.559 27,133.796 27,133L27,112.828ZM25,112.828C25,112.563 24.895,112.309 24.707,112.121C23.388,110.802 20.198,107.612 18.879,106.293C18.691,106.105 18.437,106 18.172,106C16.147,106 10.9,106 8,106C7.735,106 7.48,106.105 7.293,106.293C7.105,106.48 7,106.735 7,107C7,112.455 7,127.545 7,133C7,133.265 7.105,133.52 7.293,133.707C7.48,133.895 7.735,134 8,134C11.832,134 20.168,134 24,134C24.265,134 24.52,133.895 24.707,133.707C24.895,133.52 25,133.265 25,133L25,112.828Z" transform="matrix(4.72656 0 0 5.625 0 -585)"/><circle cx="16" cy="106" r="1" transform="matrix(4.72656 0 0 5.625 0 -461.25)"/><path d="M116.287,117.769C115.907,117.97 115.667,118.366 115.667,118.799L115.667,119.333C115.667,119.977 115.144,120.5 114.5,120.5C113.856,120.5 113.333,119.977 113.333,119.333C113.333,119.155 113.333,118.977 113.333,118.799C113.334,117.429 114.133,116.186 115.378,115.617C115.441,115.588 115.507,115.564 115.575,115.547C115.66,115.525 115.73,115.471 115.802,115.419C116.164,115.162 116.445,114.784 116.614,114.376C116.783,113.968 116.852,113.502 116.778,113.065C116.741,112.848 116.678,112.633 116.577,112.438C115.639,110.625 112.876,110.834 112.269,112.818C112.202,113.038 112.167,113.27 112.167,113.5C112.167,114.144 111.644,114.667 111,114.667C110.356,114.667 109.833,114.144 109.833,113.5C109.833,113.04 109.903,112.576 110.038,112.136C111.251,108.168 116.775,107.741 118.65,111.366C118.86,111.774 119.002,112.223 119.078,112.675C119.225,113.54 119.104,114.462 118.77,115.269C118.435,116.076 117.869,116.813 117.154,117.321C116.882,117.514 116.596,117.671 116.287,117.769Z" transform="matrix(4.05134 0 0 4.82143 -388.253 -462.857)"/><path d="M18,105.5L18,110C18,110.796 18.316,111.559 18.879,112.121C19.441,112.684 20.204,113 21,113L25.5,113C26.052,113 26.5,112.552 26.5,112C26.5,111.448 26.052,111 25.5,111L21,111C20.735,111 20.48,110.895 20.293,110.707C20.105,110.52 20,110.265 20,110L20,105.5C20,104.948 19.552,104.5 19,104.5C18.448,104.5 18,104.948 18,105.5Z" transform="matrix(4.72656 0 0 5.625 0 -585)"/></g></g></svg>