<svg xmlns="http://www.w3.org/2000/svg" width="512" height="512" enable-background="new 0 0 512 512" viewBox="0 0 512 512"><path stroke="#000" stroke-miterlimit="10" d="M391.964,488.368H119.997c-24.474,0-44.384-19.775-44.384-44.082V68.004
				c0-24.463,19.911-44.366,44.384-44.366h192.969l123.421,122.926v297.722C436.387,468.593,416.459,488.368,391.964,488.368z
				 M119.997,41.638c-14.548,0-26.384,11.828-26.384,26.366v376.282c0,14.382,11.836,26.082,26.384,26.082h271.967
				c14.569,0,26.423-11.7,26.423-26.082V154.041L305.53,41.638H119.997z"/><path stroke="#000" stroke-miterlimit="10" d="M436.122 171.794l-108.701-.849c-23.207 0-38.247-17.727-38.247-45.161L288.258 24.15h23.606v18h-5.444l.754 83.554c0 8.248 1.979 27.243 20.317 27.243l90.631.708v-5.437h18V171.794zM109.426 337.984l14.815-21.601-12.467-19.21c-1.174-1.864-2.055-3.465-2.643-4.803-.587-1.337-.88-2.623-.88-3.855 0-1.263.564-2.397 1.694-3.404 1.129-1.008 2.507-1.511 4.133-1.511 1.867 0 3.32.549 4.359 1.646 1.039 1.098 2.477 3.134 4.313 6.11l9.938 16.054 10.615-16.054c.873-1.353 1.618-2.51 2.236-3.473.617-.961 1.212-1.759 1.784-2.39.572-.631 1.212-1.104 1.919-1.421.708-.315 1.528-.473 2.462-.473 1.686 0 3.063.503 4.133 1.511 1.069 1.007 1.604 2.202 1.604 3.585 0 2.014-1.16 4.75-3.478 8.207l-13.054 19.48 14.047 21.601c1.265 1.894 2.183 3.465 2.755 4.712.572 1.248.858 2.428.858 3.54 0 1.053-.256 2.015-.768 2.886-.512.873-1.235 1.563-2.168 2.074-.934.512-1.987.767-3.162.767-1.265 0-2.334-.263-3.207-.789-.874-.525-1.581-1.179-2.123-1.961s-1.551-2.3-3.026-4.555l-11.654-18.309-12.376 18.85c-.964 1.504-1.648 2.556-2.055 3.156-.406.602-.896 1.188-1.468 1.759-.572.571-1.25 1.021-2.033 1.353-.783.331-1.702.496-2.755.496-1.626 0-2.974-.496-4.042-1.487-1.069-.992-1.604-2.436-1.604-4.329C106.128 343.922 107.227 341.201 109.426 337.984zM180.875 291.717v18.94h28.953v-18.94c0-2.705.61-4.734 1.83-6.087 1.219-1.354 2.823-2.029 4.811-2.029 2.017 0 3.651.669 4.901 2.006 1.249 1.339 1.875 3.375 1.875 6.11v52.084c0 2.736-.632 4.78-1.897 6.133-1.265 1.354-2.891 2.029-4.878 2.029-2.018 0-3.629-.684-4.833-2.052-1.205-1.367-1.807-3.404-1.807-6.11v-22.231h-28.953v22.231c0 2.736-.633 4.78-1.897 6.133-1.265 1.354-2.891 2.029-4.878 2.029-2.018 0-3.629-.684-4.833-2.052-1.205-1.367-1.807-3.404-1.807-6.11v-52.084c0-2.705.594-4.734 1.784-6.087 1.189-1.354 2.808-2.029 4.856-2.029 2.017 0 3.651.669 4.901 2.006C180.25 286.945 180.875 288.981 180.875 291.717zM275.195 295.775h-14.635v48.025c0 2.767-.617 4.818-1.852 6.156-1.235 1.337-2.831 2.006-4.788 2.006-1.988 0-3.606-.676-4.856-2.029-1.25-1.353-1.875-3.396-1.875-6.133v-48.025h-14.635c-2.289 0-3.99-.503-5.104-1.511-1.114-1.007-1.671-2.337-1.671-3.99 0-1.714.58-3.066 1.739-4.059 1.159-.992 2.838-1.488 5.036-1.488h42.64c2.318 0 4.043.512 5.172 1.533 1.129 1.022 1.693 2.36 1.693 4.014s-.572 2.983-1.715 3.99C279.199 295.272 277.484 295.775 275.195 295.775zM310.058 340.87l-10.615-42.118v45.636c0 2.525-.564 4.419-1.693 5.682s-2.628 1.894-4.494 1.894c-1.807 0-3.283-.624-4.427-1.871-1.145-1.247-1.717-3.148-1.717-5.704v-52.31c0-2.886.753-4.832 2.259-5.84 1.505-1.007 3.538-1.511 6.098-1.511h4.155c2.5 0 4.314.226 5.443.677 1.129.45 1.965 1.263 2.507 2.435.542 1.173 1.159 3.082 1.852 5.728l9.621 36.21 9.621-36.21c.692-2.646 1.311-4.555 1.853-5.728.542-1.172 1.377-1.984 2.507-2.435 1.129-.451 2.942-.677 5.442-.677h4.156c2.559 0 4.591.504 6.098 1.511 1.505 1.008 2.258 2.954 2.258 5.84v52.31c0 2.525-.564 4.419-1.693 5.682s-2.643 1.894-4.54 1.894c-1.776 0-3.237-.631-4.381-1.894-1.145-1.263-1.717-3.156-1.717-5.682v-45.636l-10.614 42.118c-.693 2.736-1.258 4.742-1.694 6.021-.437 1.277-1.242 2.442-2.416 3.494-1.175 1.052-2.801 1.578-4.879 1.578-1.565 0-2.891-.338-3.975-1.015-1.084-.676-1.928-1.54-2.529-2.593-.603-1.052-1.077-2.217-1.423-3.494C310.772 343.583 310.419 342.253 310.058 340.87zM374.849 291.717v48.116h27.192c2.168 0 3.831.526 4.991 1.578 1.158 1.053 1.738 2.375 1.738 3.969 0 1.623-.572 2.938-1.716 3.945-1.145 1.008-2.816 1.511-5.014 1.511h-32.387c-2.921 0-5.021-.646-6.301-1.939-1.28-1.292-1.92-3.382-1.92-6.268v-50.912c0-2.705.609-4.734 1.829-6.087 1.22-1.354 2.823-2.029 4.811-2.029 2.018 0 3.651.669 4.901 2.006C374.224 286.945 374.849 288.981 374.849 291.717z"/></svg>