<svg xmlns="http://www.w3.org/2000/svg" width="512" height="512" enable-background="new 0 0 512 512" viewBox="0 0 512 512"><path stroke="#000" stroke-miterlimit="10" d="M391.982,488.5H120.017c-24.495,0-44.422-19.902-44.422-44.366V67.871
				c0-24.463,19.928-44.365,44.422-44.365h192.968l123.421,122.956v297.673C436.405,468.598,416.478,488.5,391.982,488.5z
				 M120.017,41.505c-14.569,0-26.422,11.828-26.422,26.365v376.263c0,14.538,11.853,26.366,26.422,26.366h271.966
				c14.569,0,26.423-11.828,26.423-26.366V153.937L305.549,41.505H120.017z"/><path stroke="#000" stroke-miterlimit="10" d="M436.142 171.952l-108.763-1.139c-23.184 0-38.224-17.727-38.224-45.161l-.876-101.35h23.869v18h-5.713l.72 83.272c0 10.222 2.64 27.239 20.317 27.239l90.669.949v-5.678h18V171.952zM146.063 333.319l20.742-30.241-17.454-26.894c-1.644-2.609-2.877-4.851-3.699-6.724-.822-1.872-1.233-3.672-1.233-5.398 0-1.768.791-3.355 2.371-4.766 1.581-1.41 3.51-2.115 5.786-2.115 2.614 0 4.648.769 6.103 2.304 1.455 1.537 3.467 4.388 6.039 8.555l13.912 22.476 14.861-22.476c1.222-1.894 2.266-3.514 3.13-4.861.863-1.346 1.696-2.462 2.498-3.346.8-.884 1.697-1.547 2.688-1.988.99-.442 2.139-.663 3.447-.663 2.36 0 4.289.705 5.786 2.115 1.496 1.41 2.245 3.083 2.245 5.019 0 2.82-1.623 6.65-4.869 11.49l-18.275 27.272 19.667 30.241c1.771 2.651 3.056 4.851 3.857 6.597.801 1.747 1.202 3.399 1.202 4.956 0 1.474-.358 2.82-1.075 4.04-.717 1.222-1.729 2.189-3.035 2.904-1.307.716-2.782 1.073-4.427 1.073-1.771 0-3.268-.369-4.49-1.104-1.223-.736-2.213-1.651-2.972-2.746s-2.172-3.22-4.237-6.377l-16.315-25.632-17.327 26.39c-1.35 2.105-2.308 3.578-2.877 4.419-.569.843-1.255 1.663-2.056 2.463-.801.8-1.75 1.43-2.845 1.894-1.097.463-2.382.694-3.858.694-2.276 0-4.164-.694-5.66-2.083-1.497-1.389-2.245-3.409-2.245-6.061C141.446 341.632 142.985 337.823 146.063 333.319zM251.025 268.545v67.362h38.069c3.035 0 5.364.737 6.987 2.21 1.622 1.474 2.435 3.325 2.435 5.556 0 2.272-.801 4.114-2.403 5.523-1.603 1.411-3.942 2.115-7.019 2.115h-45.341c-4.089 0-7.03-.904-8.821-2.715-1.792-1.809-2.688-4.734-2.688-8.775v-71.276c0-3.787.854-6.629 2.562-8.522 1.707-1.894 3.952-2.841 6.734-2.841 2.824 0 5.111.937 6.861 2.81C250.149 261.864 251.025 264.716 251.025 268.545zM377.148 323.533c0 5.599-1.444 10.628-4.331 15.089-2.889 4.462-7.114 7.954-12.68 10.479-5.564 2.525-12.163 3.788-19.793 3.788-9.148 0-16.694-1.726-22.639-5.177-4.216-2.482-7.642-5.797-10.276-9.943-2.635-4.145-3.952-8.176-3.952-12.09 0-2.272.791-4.219 2.372-5.84 1.58-1.619 3.593-2.431 6.039-2.431 1.98 0 3.656.632 5.027 1.895 1.369 1.263 2.539 3.136 3.51 5.618 1.18 2.947 2.455 5.409 3.825 7.387 1.369 1.979 3.299 3.609 5.786 4.893 2.487 1.284 5.755 1.926 9.802 1.926 5.565 0 10.087-1.294 13.564-3.883 3.479-2.588 5.217-5.817 5.217-9.69 0-3.072-.938-5.565-2.813-7.481-1.877-1.914-4.301-3.377-7.272-4.388-2.973-1.01-6.946-2.083-11.92-3.22-6.662-1.557-12.236-3.377-16.727-5.461-4.489-2.083-8.053-4.924-10.687-8.522-2.636-3.599-3.953-8.07-3.953-13.416 0-5.092 1.392-9.616 4.174-13.573 2.782-3.956 6.808-6.997 12.078-9.122 5.27-2.125 11.467-3.188 18.592-3.188 5.691 0 10.613.705 14.766 2.115s7.599 3.282 10.34 5.618c2.739 2.336 4.742 4.788 6.007 7.355 1.266 2.567 1.897 5.072 1.897 7.513 0 2.23-.79 4.24-2.371 6.028-1.581 1.79-3.553 2.684-5.913 2.684-2.149 0-3.784-.537-4.9-1.61-1.118-1.073-2.33-2.83-3.637-5.271-1.687-3.492-3.71-6.218-6.07-8.175-2.361-1.958-6.156-2.937-11.383-2.937-4.849 0-8.758 1.063-11.73 3.188-2.972 2.126-4.458 4.683-4.458 7.671 0 1.853.506 3.451 1.518 4.798 1.012 1.348 2.403 2.505 4.174 3.473s3.562 1.726 5.375 2.272c1.813.547 4.806 1.348 8.979 2.398 5.228 1.222 9.96 2.568 14.197 4.041 4.236 1.474 7.841 3.262 10.813 5.366 2.972 2.104 5.29 4.767 6.956 7.986C376.315 314.916 377.148 318.861 377.148 323.533z"/></svg>