<svg xmlns="http://www.w3.org/2000/svg" width="512" height="512" enable-background="new 0 0 512 512" viewBox="0 0 512 512"><path stroke="#000" stroke-miterlimit="10" d="M391.718,488.368H119.997c-24.484,0-44.403-19.894-44.403-44.347V67.739
				c0-24.317,19.919-44.101,44.403-44.101h192.672l123.736,122.668v297.715C436.405,468.475,416.358,488.368,391.718,488.368z
				 M119.997,41.638c-14.559,0-26.403,11.708-26.403,26.101v376.283c0,14.527,11.844,26.347,26.403,26.347h271.721
				c14.716,0,26.688-11.819,26.688-26.347V153.808L305.259,41.638H119.997z"/><path stroke="#000" stroke-miterlimit="10" d="M436.104 171.82l-108.993-1.159c-23.043 0-37.994-17.719-37.994-45.143l-.854-101.35h23.62v18h-5.468l.701 83.274c0 8.237 1.958 27.219 20.09 27.219l90.897.966v-5.411h18V171.82zM134.324 351.77l16.297-23.761-13.713-21.131c-1.292-2.05-2.261-3.812-2.907-5.283-.646-1.471-.969-2.885-.969-4.241 0-1.389.621-2.637 1.863-3.745 1.242-1.107 2.758-1.661 4.546-1.661 2.054 0 3.652.604 4.795 1.811 1.143 1.207 2.724 3.447 4.745 6.721l10.931 17.659 11.676-17.659c.96-1.487 1.78-2.761 2.459-3.819.679-1.058 1.333-1.935 1.963-2.629.628-.694 1.333-1.215 2.111-1.563.778-.347 1.681-.521 2.708-.521 1.854 0 3.37.554 4.546 1.661 1.175 1.108 1.764 2.423 1.764 3.943 0 2.217-1.275 5.226-3.826 9.028l-14.359 21.429 15.453 23.761c1.391 2.083 2.401 3.812 3.031 5.184.629 1.372.944 2.671.944 3.894 0 1.158-.282 2.216-.845 3.175-.563.959-1.358 1.72-2.385 2.281-1.027.563-2.186.844-3.478.844-1.391 0-2.567-.29-3.528-.868-.961-.578-1.739-1.298-2.335-2.158-.597-.859-1.707-2.529-3.329-5.01l-12.819-20.139-13.614 20.734c-1.061 1.653-1.813 2.811-2.261 3.472-.447.662-.986 1.307-1.615 1.935-.63.629-1.375 1.124-2.236 1.488-.862.363-1.872.546-3.031.546-1.789 0-3.271-.546-4.447-1.637-1.176-1.092-1.764-2.679-1.764-4.763C130.697 358.301 131.906 355.308 134.324 351.77zM216.184 300.876v52.927h29.911c2.385 0 4.215.579 5.49 1.736 1.275 1.158 1.913 2.612 1.913 4.365 0 1.785-.629 3.232-1.888 4.34-1.259 1.108-3.098 1.662-5.515 1.662H210.47c-3.213 0-5.523-.711-6.931-2.133-1.408-1.422-2.111-3.721-2.111-6.896v-56.002c0-2.977.67-5.209 2.012-6.697 1.341-1.487 3.105-2.231 5.292-2.231 2.219 0 4.016.736 5.391 2.207C215.496 295.626 216.184 297.867 216.184 300.876zM312.635 344.081c0 4.398-1.135 8.35-3.402 11.854-2.27 3.506-5.59 6.25-9.963 8.234-4.371 1.984-9.557 2.977-15.551 2.977-7.189 0-13.117-1.355-17.789-4.067-3.313-1.951-6.004-4.556-8.072-7.813-2.071-3.257-3.106-6.424-3.106-9.499 0-1.786.621-3.315 1.863-4.589 1.243-1.272 2.823-1.91 4.745-1.91 1.557 0 2.873.496 3.949 1.488s1.996 2.464 2.758 4.415c.928 2.315 1.93 4.25 3.006 5.804 1.076 1.555 2.592 2.836 4.547 3.844 1.955 1.01 4.521 1.514 7.701 1.514 4.373 0 7.926-1.018 10.658-3.051 2.732-2.034 4.1-4.571 4.1-7.614 0-2.414-.738-4.373-2.211-5.878-1.475-1.505-3.379-2.654-5.715-3.447-2.336-.794-5.457-1.638-9.365-2.53-5.234-1.223-9.615-2.653-13.143-4.291-3.527-1.637-6.326-3.869-8.396-6.696s-3.105-6.341-3.105-10.541c0-4 1.093-7.556 3.279-10.664 2.186-3.108 5.35-5.498 9.49-7.168s9.01-2.505 14.607-2.505c4.473 0 8.338.554 11.602 1.661 3.262 1.108 5.971 2.58 8.123 4.415 2.154 1.835 3.727 3.762 4.721 5.779.994 2.017 1.49 3.985 1.49 5.902 0 1.753-.621 3.332-1.863 4.737-1.242 1.406-2.791 2.108-4.645 2.108-1.689 0-2.975-.422-3.852-1.266-.877-.843-1.83-2.224-2.857-4.142-1.324-2.744-2.914-4.886-4.77-6.424-1.855-1.537-4.836-2.307-8.943-2.307-3.809 0-6.881.836-9.217 2.505-2.334 1.671-3.502 3.68-3.502 6.027 0 1.455.396 2.712 1.191 3.77.795 1.059 1.889 1.968 3.279 2.729 1.393.761 2.799 1.356 4.225 1.786 1.424.43 3.775 1.059 7.055 1.885 4.107.959 7.826 2.018 11.154 3.175 3.33 1.157 6.162 2.563 8.496 4.216 2.336 1.654 4.156 3.745 5.467 6.275C311.98 337.31 312.635 340.41 312.635 344.081zM319.421 351.77l16.297-23.761-13.713-21.131c-1.292-2.05-2.261-3.812-2.907-5.283-.646-1.471-.969-2.885-.969-4.241 0-1.389.621-2.637 1.863-3.745 1.242-1.107 2.758-1.661 4.547-1.661 2.053 0 3.651.604 4.794 1.811 1.144 1.207 2.725 3.447 4.745 6.721l10.932 17.659 11.676-17.659c.96-1.487 1.78-2.761 2.46-3.819.678-1.058 1.333-1.935 1.962-2.629s1.333-1.215 2.112-1.563c.777-.347 1.681-.521 2.708-.521 1.854 0 3.369.554 4.546 1.661 1.175 1.108 1.764 2.423 1.764 3.943 0 2.217-1.275 5.226-3.826 9.028l-14.358 21.429 15.452 23.761c1.391 2.083 2.401 3.812 3.03 5.184s.944 2.671.944 3.894c0 1.158-.282 2.216-.845 3.175-.563.959-1.358 1.72-2.385 2.281-1.027.563-2.187.844-3.479.844-1.391 0-2.567-.29-3.527-.868-.961-.578-1.739-1.298-2.335-2.158-.597-.859-1.707-2.529-3.329-5.01l-12.819-20.139-13.614 20.734c-1.06 1.653-1.813 2.811-2.26 3.472-.447.662-.986 1.307-1.615 1.935-.63.629-1.375 1.124-2.236 1.488-.861.363-1.871.546-3.03.546-1.789 0-3.271-.546-4.447-1.637-1.176-1.092-1.764-2.679-1.764-4.763C315.794 358.301 317.003 355.308 319.421 351.77z"/></svg>