<svg xmlns="http://www.w3.org/2000/svg" width="512" height="512" enable-background="new 0 0 512 512" viewBox="0 0 512 512"><path stroke="#000" stroke-miterlimit="10" d="M391.851,488.368H120.149c-24.495,0-44.422-19.903-44.422-44.367V67.719
				c0-24.306,19.928-44.081,44.422-44.081h192.677l123.446,122.674v297.688C436.272,468.465,416.345,488.368,391.851,488.368z
				 M120.149,41.638c-14.569,0-26.422,11.7-26.422,26.081v376.282c0,14.539,11.853,26.367,26.422,26.367h271.702
				c14.569,0,26.422-11.828,26.422-26.367V153.802L305.403,41.638H120.149z"/><path stroke="#000" stroke-miterlimit="10" d="M436.272 171.799l-109.008-1.138c-23.195 0-38.244-17.719-38.244-45.143L288.148 24.15h23.888v18h-5.731l.716 83.292c0 10.214 2.643 27.22 20.338 27.22l90.914.949v-5.412h18V171.799zM122.368 355.611l20.742-30.241-17.454-26.894c-1.644-2.609-2.877-4.851-3.699-6.724-.822-1.872-1.233-3.672-1.233-5.398 0-1.768.791-3.355 2.371-4.766 1.581-1.41 3.51-2.115 5.786-2.115 2.614 0 4.648.769 6.103 2.304 1.455 1.537 3.467 4.388 6.039 8.555l13.912 22.476 14.861-22.476c1.222-1.894 2.266-3.514 3.13-4.861.863-1.346 1.696-2.462 2.498-3.346.8-.884 1.697-1.547 2.688-1.988.99-.442 2.139-.663 3.447-.663 2.36 0 4.289.705 5.786 2.115 1.496 1.41 2.245 3.083 2.245 5.019 0 2.82-1.623 6.65-4.869 11.49l-18.275 27.272 19.667 30.241c1.771 2.651 3.056 4.851 3.857 6.597.801 1.747 1.202 3.399 1.202 4.956 0 1.474-.358 2.82-1.075 4.04-.717 1.222-1.729 2.189-3.035 2.904-1.307.716-2.782 1.073-4.427 1.073-1.771 0-3.268-.369-4.49-1.104-1.223-.736-2.213-1.651-2.972-2.746s-2.172-3.22-4.237-6.377l-16.315-25.632-17.327 26.39c-1.35 2.105-2.308 3.578-2.877 4.419-.569.843-1.255 1.663-2.056 2.463-.801.8-1.75 1.43-2.845 1.894-1.097.463-2.382.694-3.858.694-2.276 0-4.164-.694-5.66-2.083-1.497-1.389-2.245-3.409-2.245-6.061C117.752 363.924 119.291 360.115 122.368 355.611zM240.231 359.651l-14.861-58.966v63.89c0 3.536-.791 6.188-2.372 7.955-1.581 1.768-3.678 2.651-6.292 2.651-2.529 0-4.596-.874-6.197-2.62-1.603-1.746-2.403-4.408-2.403-7.986v-73.232c0-4.041 1.053-6.766 3.162-8.176 2.108-1.41 4.954-2.115 8.537-2.115h5.818c3.499 0 6.039.315 7.62.947 1.581.631 2.75 1.768 3.51 3.409.759 1.642 1.622 4.314 2.592 8.018l13.47 50.695 13.469-50.695c.97-3.703 1.834-6.376 2.593-8.018s1.929-2.778 3.51-3.409c1.581-.632 4.12-.947 7.62-.947h5.817c3.583 0 6.429.705 8.537 2.115 2.107 1.41 3.162 4.135 3.162 8.176v73.232c0 3.536-.79 6.188-2.371 7.955s-3.699 2.651-6.355 2.651c-2.488 0-4.532-.884-6.134-2.651-1.603-1.768-2.403-4.419-2.403-7.955v-63.89l-14.86 58.966c-.971 3.83-1.761 6.64-2.372 8.428-.611 1.79-1.738 3.42-3.383 4.894-1.645 1.473-3.921 2.209-6.83 2.209-2.192 0-4.047-.474-5.565-1.42-1.518-.947-2.698-2.156-3.541-3.631-.844-1.473-1.508-3.103-1.992-4.893C241.231 363.45 240.737 361.588 240.231 359.651zM338.32 290.837v67.362h38.069c3.035 0 5.364.737 6.987 2.21 1.622 1.474 2.435 3.325 2.435 5.556 0 2.272-.801 4.114-2.403 5.523-1.603 1.411-3.942 2.115-7.019 2.115h-45.341c-4.09 0-7.03-.904-8.822-2.715-1.792-1.809-2.688-4.734-2.688-8.775v-71.276c0-3.787.854-6.629 2.562-8.522 1.707-1.894 3.952-2.841 6.734-2.841 2.824 0 5.111.937 6.861 2.81C337.445 284.156 338.32 287.008 338.32 290.837z"/></svg>