<svg xmlns="http://www.w3.org/2000/svg" width="512" height="512" enable-background="new 0 0 512 512" viewBox="0 0 512 512"><path stroke="#000" stroke-miterlimit="10" d="M391.851,488.5H120.149c-24.495,0-44.422-19.902-44.422-44.366V67.871
				c0-24.463,19.928-44.365,44.422-44.365h192.684l123.439,122.946v297.683C436.272,468.598,416.345,488.5,391.851,488.5z
				 M120.149,41.505c-14.569,0-26.422,11.828-26.422,26.365v376.263c0,14.538,11.853,26.366,26.422,26.366h271.702
				c14.569,0,26.422-11.828,26.422-26.366V153.928L305.397,41.505H120.149z"/><path stroke="#000" stroke-miterlimit="10" d="M436.272 171.953l-109.01-1.159c-23.031 0-37.976-17.719-37.976-45.142l-.875-101.35h23.624v18h-5.468l.719 83.272c0 8.239 1.956 27.22 20.071 27.22l90.914.966v-5.676h18V171.953zM157.65 324.163l47.617-56.883h-40.914c-2.868 0-5.027-.631-6.482-1.894s-2.182-2.925-2.182-4.987c0-2.146.727-3.883 2.182-5.208s3.614-1.989 6.482-1.989h52.739c6.83 0 10.245 3.178 10.245 9.533 0 3.03-.569 5.451-1.708 7.26-1.138 1.811-3.437 4.735-6.893 8.775l-44.519 52.905h49.072c2.909 0 5.08.6 6.514 1.799 1.433 1.199 2.15 2.873 2.15 5.02 0 2.23-.717 3.999-2.15 5.303-1.434 1.305-3.604 1.957-6.514 1.957h-60.202c-4.089 0-7.167-.915-9.232-2.746-2.066-1.831-3.099-4.282-3.099-7.355 0-1.051.168-2.02.506-2.903.337-.884.791-1.715 1.36-2.494.569-.778 1.359-1.768 2.371-2.967C156.005 326.088 156.891 325.047 157.65 324.163zM244.149 335.905v-72.918c0-3.787.863-6.628 2.592-8.522 1.729-1.894 3.962-2.841 6.703-2.841 2.824 0 5.112.937 6.862 2.809 1.748 1.874 2.623 4.725 2.623 8.554v72.918c0 3.83-.875 6.692-2.623 8.586-1.75 1.894-4.038 2.841-6.862 2.841-2.698 0-4.922-.958-6.671-2.872C245.023 342.545 244.149 339.693 244.149 335.905zM316.41 309.705h-17.2v26.2c0 3.746-.886 6.588-2.656 8.522-1.771 1.936-4.006 2.904-6.703 2.904-2.825 0-5.102-.958-6.829-2.872-1.729-1.915-2.593-4.725-2.593-8.429v-71.339c0-4.124.948-7.071 2.846-8.839 1.896-1.768 4.91-2.651 9.043-2.651h24.093c7.124 0 12.605.547 16.441 1.642 3.795 1.052 7.072 2.799 9.834 5.24 2.761 2.441 4.858 5.429 6.292 8.964 1.433 3.536 2.149 7.514 2.149 11.933 0 9.429-2.908 16.572-8.727 21.434C336.583 307.274 327.919 309.705 316.41 309.705zM311.857 267.28H299.21v28.283h12.647c4.427 0 8.126-.462 11.098-1.389 2.973-.925 5.238-2.44 6.798-4.545s2.34-4.861 2.34-8.271c0-4.082-1.201-7.407-3.604-9.976C325.79 268.648 320.246 267.28 311.857 267.28z"/></svg>