<svg xmlns="http://www.w3.org/2000/svg" id="Layer_1" enable-background="new 0 0 48 48" viewBox="0 0 48 48"><path fill="#ff9797" d="M12.78,24c0,3.12-2.53,5.64-5.64,5.64c-3.12,0-5.64-2.53-5.64-5.64s2.53-5.64,5.64-5.64C10.26,18.36,12.78,20.88,12.78,24z"/><path fill="#e47979" d="M7.14,26.64c-2.6,0-4.78-1.76-5.43-4.14C1.58,22.98,1.5,23.48,1.5,24c0,3.12,2.53,5.64,5.64,5.64c3.12,0,5.64-2.53,5.64-5.64c0-0.52-0.08-1.02-0.21-1.5C11.92,24.89,9.74,26.64,7.14,26.64z"/><path fill="#fff27d" d="M29.64,24c0,3.12-2.53,5.64-5.64,5.64c-3.12,0-5.64-2.53-5.64-5.64s2.53-5.64,5.64-5.64C27.12,18.36,29.64,20.88,29.64,24z"/><path fill="#e4c364" d="M24,26.64c-2.6,0-4.78-1.76-5.43-4.14c-0.13,0.48-0.21,0.98-0.21,1.5c0,3.12,2.53,5.64,5.64,5.64c3.12,0,5.64-2.53,5.64-5.64c0-0.52-0.08-1.02-0.21-1.5C28.78,24.89,26.6,26.64,24,26.64z"/><path fill="#96d7ff" d="M46.5,24c0,3.12-2.53,5.64-5.64,5.64c-3.12,0-5.64-2.53-5.64-5.64s2.53-5.64,5.64-5.64C43.97,18.36,46.5,20.88,46.5,24z"/><path fill="#82bce4" d="M40.86,26.64c-2.6,0-4.78-1.76-5.43-4.14c-0.13,0.48-0.21,0.98-0.21,1.5c0,3.12,2.53,5.64,5.64,5.64c3.12,0,5.64-2.53,5.64-5.64c0-0.52-0.08-1.02-0.21-1.5C45.63,24.89,43.45,26.64,40.86,26.64z"/><path d="M7.14 30.64c-3.66 0-6.64-2.98-6.64-6.64s2.98-6.64 6.64-6.64 6.64 2.98 6.64 6.64S10.8 30.64 7.14 30.64zM7.14 19.36c-2.56 0-4.64 2.08-4.64 4.64s2.08 4.64 4.64 4.64 4.64-2.08 4.64-4.64S9.7 19.36 7.14 19.36zM24 30.64c-3.66 0-6.64-2.98-6.64-6.64s2.98-6.64 6.64-6.64 6.64 2.98 6.64 6.64S27.66 30.64 24 30.64zM24 19.36c-2.56 0-4.64 2.08-4.64 4.64s2.08 4.64 4.64 4.64 4.64-2.08 4.64-4.64S26.56 19.36 24 19.36zM40.86 30.64c-3.66 0-6.64-2.98-6.64-6.64s2.98-6.64 6.64-6.64S47.5 20.34 47.5 24 44.52 30.64 40.86 30.64zM40.86 19.36c-2.56 0-4.64 2.08-4.64 4.64s2.08 4.64 4.64 4.64S45.5 26.56 45.5 24 43.42 19.36 40.86 19.36z"/></svg>