<svg xmlns="http://www.w3.org/2000/svg" xmlns:xlink="http://www.w3.org/1999/xlink" viewBox="0 0 762.59 755.85"><defs><linearGradient id="a" x1="1183.05" y1="584.27" x2="1226.52" y2="584.27" gradientUnits="userSpaceOnUse"><stop offset="0" stop-color="#018dec"/><stop offset="0.23" stop-color="#0184ef"/><stop offset="0.62" stop-color="#006af6"/><stop offset="0.99" stop-color="#004bff"/></linearGradient><linearGradient id="b" x1="1173.6" y1="280.35" x2="1213.82" y2="280.35" gradientUnits="userSpaceOnUse"><stop offset="0" stop-color="#fff"/><stop offset="0" stop-color="#c69c6d"/><stop offset="1" stop-color="#8c6239"/></linearGradient><linearGradient id="c" x1="1177.27" y1="317.45" x2="1196.74" y2="317.45" gradientUnits="userSpaceOnUse"><stop offset="0" stop-color="#2a0b00"/><stop offset="1"/></linearGradient><linearGradient id="d" x1="1238.71" y1="512.94" x2="1248.09" y2="512.94" gradientUnits="userSpaceOnUse"><stop offset="0" stop-color="#ce6b29"/><stop offset="1" stop-color="#a05320"/></linearGradient><linearGradient id="e" x1="1209.21" y1="357.21" x2="1327.31" y2="357.21" xlink:href="#c"/><linearGradient id="f" x1="1267.54" y1="571.31" x2="1221.46" y2="544.71" xlink:href="#d"/><linearGradient id="g" x1="1224.95" y1="586.86" x2="1248.06" y2="586.86" xlink:href="#d"/><linearGradient id="h" x1="1226.07" y1="588.99" x2="1247" y2="588.99" xlink:href="#d"/><linearGradient id="i" x1="1232.72" y1="510.71" x2="1238.53" y2="510.71" xlink:href="#d"/><linearGradient id="j" x1="1268.66" y1="552.57" x2="1268.66" y2="552.57" gradientUnits="userSpaceOnUse"><stop offset="0.39" stop-color="#3a4f88"/><stop offset="1" stop-color="#587bac"/></linearGradient></defs><title>lady-business2</title><path d="M1280,635.47c114.77,14.17,162.78,32.35,180.13,39.31,55.88,22.41,155.92,73.56,153,106.37-2.62,29.27-86.69,37.87-145.82,32.37-72-6.69-88.58-32.56-144.39-32.37-56.44.2-78.41,26.79-147.26,60.12-41.74,20.22-260.61,126.19-313.09,6.94-14.87-33.8-14.8-82.12-5.71-115.62,25.78-95,132.63-101.8,241.6-108.68C1156.62,620.23,1198.2,625.37,1280,635.47Z" transform="translate(-850.61 -148.14)" style="fill:#fff7e1;opacity:0.3"/><path d="M975.84,378.53c-1.14-30.93-3.48-93.86,36.77-147.07C1093,125.12,1292,126.08,1352.69,203.12c31.84,40.39,7.54,77.9,27.58,180.77,24,123.19,92.59,146.29,77.36,192.25-24.69,74.51-227.56,121.62-360,31.41C983.72,530,976.19,387.92,975.84,378.53Z" transform="translate(-850.61 -148.14)" style="fill:#30c9f8;opacity:0.2"/><path d="M1238.45,680.57a576.35,576.35,0,0,1,128.68,17.37c37.95,9.58,111.41,32.29,109.27,47-1.87,12.93-61.93,16.73-104.17,14.3-51.44-3-63.28-14.38-103.14-14.3-40.32.09-56,11.84-105.2,26.56-29.82,8.92-186.17,55.73-223.66,3.06-11.11-15.61-9.63-37-4.08-51.06,16.32-41.52,85.06-64.2,172.59-48" transform="translate(-850.61 -148.14)" style="fill:#fff7e1"/><path d="M1202.19,415.81c-.35-.86,4.34-2.34,5-5.83.11-.54.16-1.35.68-1.58s1.68.32,2,1.11c.8,1.75-1.56,5.22-4.64,6.26C1204,416.2,1202.39,416.29,1202.19,415.81Z" transform="translate(-850.61 -148.14)" style="fill:#f6c4b9"/><path d="M1228.67,733c-8.06-.85-12.08-2.28-14-3-3.63-1.37-7-3.43-9-2-1.44,1,.1,5.43-2,6a15.18,15.18,0,0,1-2.33.4q-5.71-2.6-10.66-4.91c0-1.22,0-2.48,0-3.8q4.92,2.31,10.63,4.9a15.18,15.18,0,0,0,2.33-.4c2.1-.57.56-5,2-6,2-1.43,5.37.63,9,2,1.92.72,5.94,2.15,14,3a166.48,166.48,0,0,0,21.21.8c2.18,1,4.45,2,6.79,3C1258.16,733.64,1243.38,734.54,1228.67,733Z" transform="translate(-850.61 -148.14)" style="fill:#111;stroke:#000;stroke-miterlimit:10"/><path d="M1186.5,739.5c-8.06-.85-12.08-2.28-14-3-3.63-1.37-7-3.43-9-2-1.44,1,.1,5.43-2,6-3.4.92-10,.6-13,0a19.05,19.05,0,0,1,0-2c0-2,0-4.18,0-6.48.07-4.49.3-9.57,1-15.52.55-4.94,9.68-1.27,17,1,3.36,1,12.64,5.77,27,12.49q4.93,2.31,10.66,4.91c1.73.78,3.5,1.58,5.33,2.39l5,2.21C1216,740.15,1201.21,741.05,1186.5,739.5Z" transform="translate(-850.61 -148.14)" style="stroke:#000;stroke-miterlimit:10"/><path d="M1209.5,737.29a163.08,163.08,0,0,1-23-.73c-8.06-.85-12.08-2.28-14-3-3.63-1.37-7-3.43-9-2-1.4,1-14.25.55-15,.46.07-4.49.3-9.57,1-15.52.55-4.94,9.68-1.27,17,1,3.36,1,12.64,5.77,27,12.49q4.93,2.31,10.66,4.91C1205.9,735.68,1207.67,736.48,1209.5,737.29Z" transform="translate(-850.61 -148.14)" style="fill:#222;stroke:#000;stroke-miterlimit:10"/><path d="M1164.47,716.88a9.15,9.15,0,0,1-2.94,1.14,19.93,19.93,0,0,1-4.29.44,16.17,16.17,0,0,1-6.41-1.14,4.63,4.63,0,0,1-1.38-.89,2.43,2.43,0,0,1,1.52-2.07c2.14-.88,6.23.2,10.46,1.54Z" transform="translate(-850.61 -148.14)" style="fill:#333"/><path d="M1161.53,718a19.93,19.93,0,0,1-4.29.44,19.5,19.5,0,0,1-3.9-.37,11.29,11.29,0,0,1-2.51-.77l.14-3,.29-5.82h9.83l.34,7.36Z" transform="translate(-850.61 -148.14)" style="fill:#f6c4b9"/><path d="M1153.34,708.54v9.55a11.29,11.29,0,0,1-2.51-.77l.14-3,.29-5.82Z" transform="translate(-850.61 -148.14)" style="fill:#f3a99c"/><path d="M1249.88,730a166.48,166.48,0,0,1-21.21-.8c-8.06-.85-12.08-2.28-14-3-3.63-1.37-7-3.43-9-2-1.44,1,.1,5.43-2,6a15.18,15.18,0,0,1-2.33.4q-5.7-2.58-10.63-4.9c.07-4.53.29-9.67,1-15.69,0,0,0,0,0-.07.57-4.41,8.17-1.77,15,.45l2,.62C1213,712.34,1227.38,719.91,1249.88,730Z" transform="translate(-850.61 -148.14)" style="fill:#222;stroke:#000;stroke-miterlimit:10"/><path d="M1206.7,710.37a10.93,10.93,0,0,1-4.23,1.37,21.73,21.73,0,0,1-3,.21c-3.4,0-6.33-.77-7.62-1.88l-.17-.15a3,3,0,0,1,.21-.8c1.07-2.52,5.53-1.63,10.45-.14C1203.78,709.42,1205.26,709.9,1206.7,710.37Z" transform="translate(-850.61 -148.14)" style="fill:#333"/><path d="M1203.07,711.74a21.73,21.73,0,0,1-3,.21,18.47,18.47,0,0,1-5.21-.69,6.76,6.76,0,0,1-2.41-1.19l0-1,.27-5.57,0-1h9.83l.3,6.45Z" transform="translate(-850.61 -148.14)" style="fill:#f6c4b9"/><path d="M1194.86,703.55v7.71a6.76,6.76,0,0,1-2.41-1.19l0-1,.27-5.57Z" transform="translate(-850.61 -148.14)" style="fill:#f3a99c"/><path d="M1225.9,472.75c-1.11,9.81-3.69,27.42-7.5,59.2-.14,1.16-.29,2.35-.43,3.55,0,0-7.85,65.91-11,112-2.34,34.2-3.51,51.3-2.9,53.52a3.93,3.93,0,0,1-.1,2.48c-1.62,3.9-11.18,4.93-13,2a3.66,3.66,0,0,1,0-3c2.39-6.93-.55-37.23-4-63.4-1-7.4-2-14.48-3-20.6-.21-1.31-.41-2.57-.61-3.79-.1-.66-.21-1.3-.31-1.93,15.9-55,21.82-72.69,31.92-109.28,3.23-11.71,5.91-21.81,8.12-30.51,1.06-4.2,2-8.07,2.87-11.64a3.64,3.64,0,0,1,.42,1.26C1226.68,464.34,1226.51,467.37,1225.9,472.75Z" transform="translate(-850.61 -148.14)" style="fill:url(#a)"/><path d="M1231.91,445.73h0c-.3,1.42-.62,2.91-1,4.48-.1.45-.2.92-.31,1.39s-.22,1-.34,1.53-.18.81-.28,1.22c-.14.61-.28,1.24-.43,1.88q-.61,2.65-1.32,5.57c-.85,3.57-1.81,7.44-2.87,11.64-2.21,8.7-4.89,18.8-8.12,30.51-10.1,36.59-16,54.24-31.92,109.28q-.54,1.83-1.08,3.72c-2.76,9.56-5.1,17.77-7.08,24.8-10.46,37.11-12.49,52.7-12.47,57.12,0,2.28.72,6.52.54,8.31-.43,4.23-14.16,1.68-15.81,1.35.67-10,2.74-46.39,2.82-79.81,0-1.26,0-2.51,0-3.76,0-2,0-4,0-6-.15-25.56-1.62-52.43-1.84-78.2q0-2.62,0-5.22c0-19.3,1-37.84,3.87-54.58.45-2.61.73-3.88,1-5,5-20.62,17.68-28.78,32.12-44.82a149.09,149.09,0,0,0,9.88-12.18c1.22-1.69,2.14-3,4-4a9.23,9.23,0,0,1,3-.93c4.21-.61,9.27,1.26,14.77,3.36,1.3,3.17,2.85,6.75,4.75,11.07.48,1.11,1,2.28,1.53,3.5C1227.54,437.13,1229.77,441.68,1231.91,445.73Z" transform="translate(-850.61 -148.14)" style="fill:#018dec"/><path d="M1235.5,424.12c-.2,3.81-1.07,10.25-3.36,21.15-2.14-4-4.37-8.6-6.64-13.77-.54-1.22-1-2.39-1.53-3.5-1.9-4.32-3.45-7.9-4.75-11.07a90.48,90.48,0,0,0,11.82,3.93c1,.24,2.1.44,3.16.58a.89.89,0,0,1,.3.06C1234.81,421.62,1235.35,422,1235.5,424.12Z" transform="translate(-850.61 -148.14)" style="fill:#00009f;stroke:#000;stroke-miterlimit:10"/><path d="M1177.27,303.93a20.14,20.14,0,0,1-2.77-5.43c-2.34-7.2.44-14.12,2-18a36.93,36.93,0,0,1,7-11c3.73-4.25,8.68-9.91,17-12a25.31,25.31,0,0,1,13.32.34,36.42,36.42,0,0,0-23.32,7.66c-14.92,11.93-14.08,31.61-14,33A32.43,32.43,0,0,0,1177.27,303.93Z" transform="translate(-850.61 -148.14)" style="stroke:#000;stroke-miterlimit:10;opacity:0.56;fill:url(#b)"/><path d="M1193.75,331.61c-.48.4-1,.78-1.47,1.16l.14-.21A2.18,2.18,0,0,1,1193.75,331.61Z" transform="translate(-850.61 -148.14)" style="fill:#f6c4b9;stroke:#000;stroke-miterlimit:10"/><path d="M1234.66,372.66c-4.55-6.62-9.91-9.45-24.16-24.16-6.23-6.43-11.57-12-16.06-17a2.3,2.3,0,0,1,1.58.74c4.15,4.54,9,9.54,14.48,15.23,2.26,2.33,4.29,4.36,6.13,6.14l.21.21c9.28,9,13.67,12,17.38,17.18C1234.38,371.53,1234.53,372.07,1234.66,372.66Z" transform="translate(-850.61 -148.14)" style="fill:#f6c4b9;stroke:#000;stroke-miterlimit:10"/><path d="M1237.5,304.5a2,2,0,0,0,0,1c.27,1,1.26,1.28,1.74,1.65a.61.61,0,0,1,.26.35c.16.72-1.62,1.81-3.51,2.77-2.15,1.1-4.49,2.07-4.49,2.23s5.83-2.22,6.94-1.08l.06.08c.78,1.14-3.11,3.76-5,10-.64,2.11-.4,2.47-1,3-2.76,2.43-8.78-4.21-15-2-3.3,1.17-5.61,4.45-6,5a17.25,17.25,0,0,0-2,4,8.88,8.88,0,0,0-.28,2.28.14.14,0,0,0,0,.09,26.79,26.79,0,0,0,7.28,18.63l.13.14.21.21c.47.44,1.18.93,6.66,5.65,4.86,4.2,7.3,6.3,8,7a11,11,0,0,1,2.72,4.53l.16.23a2.34,2.34,0,0,1,.38.87c.88,4.43.91,11.41-.26,23.37-.18,1.89-.36,3.68-.53,5.37a152.16,152.16,0,0,1-2.19,16.15c-.23,1-.47,2-.74,2.84-.87,2.82-2,4.66-3.54,5.64a12.41,12.41,0,0,1-1.39.75,2.29,2.29,0,0,1-3-1.21c-1.34-3.07-2.5-5.76-3.51-8.2a2.32,2.32,0,0,0-1.31-1.26,45,45,0,0,0-10.46-3c-.55-.06.8-.39.53-.93a4.54,4.54,0,0,1-.3-3.08c.21-.89-1.45-2-1.56-3-.49-4.81-4.6-7.39-8-11-5.52-5.85-12.43-15.87-15.85-21.64a3.87,3.87,0,0,0-.42-.64,19.13,19.13,0,0,1-5.14-13,20.85,20.85,0,0,1,.41-3.74,15.69,15.69,0,0,1,1-3c3.71-9.08,9.45-13.09,13.78-19.73.49-.38,1-.76,1.47-1.16.23-.07.26-.55.18-.64a31,31,0,0,0,1.57-3.47c1.59-4.18,1.31-6,1-7-1.16-3.83-5-4.63-10-8a35.32,35.32,0,0,1-9.23-8.57,32.43,32.43,0,0,1-.77-5.43c-.08-1.39-.92-21.07,14-33a36.42,36.42,0,0,1,23.32-7.66,75.44,75.44,0,0,1,9.68,3.66,22.16,22.16,0,0,1,2.76,1.37,14.09,14.09,0,0,1,4.24,3.63,16.88,16.88,0,0,1,3,7,18.56,18.56,0,0,1,.51,4,.08.08,0,0,1,0,.07c0,.7,0,1.37,0,2.08a25.53,25.53,0,0,0,.5,5.81c.59,3,.88,4.57,2,6a9.84,9.84,0,0,0,4.24,3c1.34.55,2.42.9,2.7,1.75a1.05,1.05,0,0,1,.06.24c.18,1.26-1.25,2.91-2.76,4.57S1237.77,303.24,1237.5,304.5Z" transform="translate(-850.61 -148.14)" style="fill:#f6c4b9;stroke:#000;stroke-miterlimit:10"/><circle cx="382.39" cy="223.86" r="1" style="fill:#f3a99c"/><path d="M1234.5,396.5c-.18,1.89-.36,3.68-.53,5.37a152.16,152.16,0,0,1-2.19,16.15c-.23,1-.47,2-.74,2.84-.87,2.82-2,4.66-3.54,5.64a12.41,12.41,0,0,1-1.39.75,2.29,2.29,0,0,1-3-1.21c-1.34-3.07-2.5-5.76-3.51-8.2a2.32,2.32,0,0,0-1.31-1.26,45,45,0,0,0-10.46-3,2.27,2.27,0,0,1-1.82-3.07v0a8.91,8.91,0,0,0,.48-3.95c-.49-4.81-4.6-7.39-8-11-5.52-5.85-12.15-16.05-15.85-21.64l-.42-.64c-1.9-2.93-5.14-8.22-5.14-13a16.74,16.74,0,0,1,.41-3.74,6.71,6.71,0,0,1,2-3c2.34-2.1,4.51-1.07,6-3a8.81,8.81,0,0,0,1.63-2.89,6.82,6.82,0,0,1,3.54-4.28,7.75,7.75,0,0,1,5.78-.13,17.15,17.15,0,0,1,6.38,3.07c3.07,2.28,4.28,3.29,7.67,6.23,15,13,20,13,23.88,19.76a2.92,2.92,0,0,1,.38.87C1235.64,377.56,1235.67,384.54,1234.5,396.5Z" transform="translate(-850.61 -148.14)" style="fill:#ff3573;stroke:#000;stroke-miterlimit:10"/><path d="M1229.39,425.42a5.57,5.57,0,0,1-1.28,1.12,12.41,12.41,0,0,1-1.39.75,2.28,2.28,0,0,1-3-1.21c-1.35-3.07-2.51-5.76-3.52-8.2a2.27,2.27,0,0,0-1.3-1.26,45.2,45.2,0,0,0-10.47-3,2.28,2.28,0,0,1-1.82-3.07l0,0a8.91,8.91,0,0,0,.48-3.95c-.49-4.81-4.6-7.39-8-11-5.52-5.85-12.15-16.05-15.85-21.64l-.43-.64c-1.89-2.93-5.13-8.22-5.13-13a16.74,16.74,0,0,1,.41-3.74c.1-.46,3.25-2.2,3.25-.94,0,4.76,3.62,12.73,5.52,15.67.1.16.32.47.42.63,3.7,5.59,10.33,15.79,15.85,21.64,3.4,3.61,7.51,6.19,8,11a8.91,8.91,0,0,1-.48,3.95v0a2.27,2.27,0,0,0,1.82,3.06,45.49,45.49,0,0,1,10.46,3,2.3,2.3,0,0,1,1.31,1.27c1,2.43,2.17,5.12,3.51,8.2A2.3,2.3,0,0,0,1229.39,425.42Z" transform="translate(-850.61 -148.14)" style="fill:#cf3573;opacity:0.73"/><path d="M1196.5,320.5c.31,1,.59,2.82-1,7a31,31,0,0,1-1.57,3.47c-9.21-10.32-14.71-18.32-16.66-27a35.32,35.32,0,0,0,9.23,8.57C1191.45,315.87,1195.34,316.67,1196.5,320.5Z" transform="translate(-850.61 -148.14)" style="stroke:#000;stroke-miterlimit:10;fill:url(#c)"/><path d="M1244.43,398.41c.59,9.1.89,15.33,1.06,18.26C1245.31,414.09,1245,405.89,1244.43,398.41Z" transform="translate(-850.61 -148.14)" style="fill:#fff;stroke:#000;stroke-miterlimit:10"/><path d="M1248.09,517.56c-2.64-2.41-4.28-6-5.3-9.47-1.07-.55-2.61,0-3.58.48s-.09,3.6.07,4.79a14.35,14.35,0,0,1,.16,4.66C1242.11,517.93,1245.44,517.19,1248.09,517.56Z" transform="translate(-850.61 -148.14)" style="fill:url(#d)"/><path d="M1248.09,517.56a16.63,16.63,0,0,0-3.92,0l-2.76-9.7a2.38,2.38,0,0,1,1.38.2C1243.81,511.51,1245.45,515.15,1248.09,517.56Z" transform="translate(-850.61 -148.14)" style="fill:#d39340"/><path d="M1245.48,416.67c0,.51.22.76,0,.76S1245.5,417.17,1245.48,416.67Z" transform="translate(-850.61 -148.14)" style="fill:#fff;stroke:#000;stroke-miterlimit:10"/><path d="M1326.5,403.5c-1.14.24-2.41-8.63-8-18-9-15-26-26.1-30-23-7.79,6,38.36,60.38,21,88-.25.4-5.08,7.93-9,7-6.22-1.47-1.3-22.11-10-44-8.94-22.5-28.66-37.25-32-35s7.7,24.19,6,25-12-22.38-17-21c-2.6.72-3.18,8.1-3.07,15.9a73.28,73.28,0,0,0-6.93-21.9,43.13,43.13,0,0,0-2.84-4.84,11.79,11.79,0,0,0-3.16-6.16c-.7-.7-3.14-2.8-8-7-6.74-5.81-6.26-5.21-7-6-8.13-8.65-7.57-19.28-7-21a17.25,17.25,0,0,1,2-4c.39-.55,2.7-3.83,6-5,6.22-2.21,12.24,4.43,15,2,.6-.53.36-.89,1-3,1.89-6.24,5.78-8.86,5-10-.92-1.33-6.92,1.23-7,1s8.34-3.47,8-5c-.14-.62-1.66-.74-2-2a2,2,0,0,1,0-1c.55-2.59,6.35-6.53,6-9-.28-2-4.25-1.48-7-5-1.12-1.43-1.41-3-2-6-1.12-5.78.14-7.11-1-12a16.88,16.88,0,0,0-3-7,16.57,16.57,0,0,0-7-5,75.44,75.44,0,0,0-9.68-3.66,48.71,48.71,0,0,1,15.68,2.66,43.8,43.8,0,0,1,16,11c9.68,9.76,12.1,19.49,16,29,9.79,23.88,26.43,40.46,37,51,12.44,12.4,20,16.14,25,29C1328,391,1327.81,403.22,1326.5,403.5Z" transform="translate(-850.61 -148.14)" style="stroke:#000;stroke-miterlimit:10;fill:url(#e)"/><path d="M1255.36,489.5c-1.74,10.51-11,20.23-17,19-1.37-.28-2.86-1.46-5.77-3.82l-.23-.18c-3.29-2.66-4.93-4-5-6-.09-2.63,4.68-1.74,7,1l.26.3c1.5,1.61,3.85,2.88,5.74,2.7,4.49-.43,7.2-9.14,8-13,2.69-12.92-5.76-20.49-16.91-41.39l-.45-.83h0c-2.14-4-4.37-8.6-6.64-13.77-.54-1.22-1-2.39-1.53-3.5-1.9-4.32-3.45-7.9-4.75-11.07-.52-1.24-1-2.41-1.42-3.54a94.7,94.7,0,0,1-3.3-9.89c-3.21-12-3.34-19.28-10-26-5.1-5.15-7.9-3.78-12-9s-4.28-11.11-4.35-13.69a27.41,27.41,0,0,1,1-7.81c.68-2.83,1.17-3.33,1.36-3.5,2.23-2.05,7.43-.38,10.64,1.5,4,2.33,5.42,5.28,11,16,5.25,10.09,7.88,15.13,9,17,3.76,6.25,5.61,8.36,8.77,14.76.36.73,2.08,4.28,4.06,9.11,1.12,2.73,2.28,5.9,3.53,9.63,2.94,8.8,1.22,5.56,8,29,2.88,9.94,5.19,20,8,30S1256.09,485.11,1255.36,489.5Z" transform="translate(-850.61 -148.14)" style="fill:#f3a99c"/><path d="M1256.5,489.5c-1.74,10.51-11,20.23-17,19-1.37-.28-2.86-1.46-5.77-3.82l-.23-.18c-3.29-2.66-4.93-4-5-6-.09-2.63,4.68-1.74,7,1l.26.3c1.5,1.61,3.85,2.88,5.74,2.7,4.49-.43.2-4.21,3.59-7.93,14.42-15.83-1.35-25.56-12.5-46.46l-.45-.83h0c-2.14-4-4.37-8.6-6.64-13.77-.54-1.22-1-2.39-1.53-3.5-1.9-4.32-3.45-7.9-4.75-11.07-.52-1.24-1-2.41-1.42-3.54a94.7,94.7,0,0,1-3.3-9.89c-3.21-12-3.34-19.28-10-26-5.1-5.15-7.9-3.78-12-9-8.17-10.44-5.86-23.65-2-26,3-1.85,7.44.26,9,1,8.09,3.86,11.31,12.63,13,17,9.15,23.68,14.15,23.41,21.47,41.37,1.12,2.73,2.28,5.9,3.53,9.63,2.94,8.8,1.22,5.56,8,29,2.88,9.94,5.19,20,8,30S1257.23,485.11,1256.5,489.5Z" transform="translate(-850.61 -148.14)" style="fill:#f6c4b9"/><path d="M1249.5,487.5c-.8,3.86-3.51,12.57-8,13-1.89.18-4.24-1.09-5.74-2.7l-.26-.3c-2.32-2.74-1.61-5.67-3-6s-4.09,2.37-4,5c.07,2,1.71,3.34,5,6l.23.18c-3.44,8-8,17.69-12.8,29.27,3.81-31.78,6.39-49.39,7.5-59.2.61-5.38.78-8.41.48-10.14,1.54-6.47,2.75-11.91,3.68-16.5C1243.74,467,1252.19,474.58,1249.5,487.5Z" transform="translate(-850.61 -148.14)" style="fill:none;opacity:0.44"/><path d="M1178,642.12" transform="translate(-850.61 -148.14)" style="opacity:0.44"/><path d="M1198.5,327.5c-1.42,1.27-2.85,2.55-4.32,3.75-.14.13-.28.24-.43.36-.48.4-1,.78-1.47,1.16-4,3-8.26,5.23-12.84,4.84a4.45,4.45,0,0,1-.5-.05c-.15,0-.29,0-.44-.06-13.38-2.17-21.71-25.72-20-44,.41-4.34,1.86-19.86,14-29,6.87-5.17,14.1-6,23-7,8.7-1,16.61-1.89,22.49-.45a15.45,15.45,0,0,1,2.9,1,11.43,11.43,0,0,1,3.61,2.47,8.67,8.67,0,0,1,.69.79,10.69,10.69,0,0,1,1.07,1.58c.13.23.25.47.37.71C1233.35,277.41,1218.87,309.2,1198.5,327.5Z" transform="translate(-850.61 -148.14)" style="stroke:#000;stroke-miterlimit:10"/><path d="M1202,328.83c-1.42,1.27-2.85,2.55-4.32,3.75-.14.13-.28.24-.43.36-.48.4-1,.78-1.47,1.16-4.3,3.25-8.84,5.53-13.78,4.73a13.35,13.35,0,0,1-3.76-1.22,8.4,8.4,0,0,1-.78-.42c-10.67-6-17-26.25-15.46-42.36.41-4.34,1.86-19.86,14-29,6.87-5.17,14.1-6,23-7,7.84-.89,15-1.71,20.69-.8.62.09,1.22.21,1.8.35a13,13,0,0,1,6.51,3.45,8.67,8.67,0,0,1,.69.79,10.69,10.69,0,0,1,1.07,1.58c.1.18.2.36.29.55C1236.91,278.5,1222.39,310.46,1202,328.83Z" transform="translate(-850.61 -148.14)" style="fill:#222"/><ellipse cx="1431.78" cy="356.32" rx="29.67" ry="111.83" transform="translate(-893.6 163.3) rotate(-12.23)" style="fill:#30c9f8;opacity:0.2"/><path d="M1186.53,487.72c-7.51,26.7-22.07,47.21-36.1,53q0-2.62,0-5.22c0-19.3,1-37.84,3.87-54.58.45-2.61.73-3.88,1-5,5-20.62,17.68-28.78,32.12-44.82C1192.65,444.7,1192.74,465.66,1186.53,487.72Z" transform="translate(-850.61 -148.14)" style="fill:#000093;opacity:0.11"/><path d="M1219.51,306.7c.22.13,6.84-7.82,10.4-15.42,2.92-6.23,7.67-16.36,4.09-20.42-.51-.59-1.57-1.47-2.22-1.18-1,.46-.33,3.55-.3,7.06,0,3-1.28,5.56-2.44,10.08C1226.41,297.06,1219.26,306.56,1219.51,306.7Z" transform="translate(-850.61 -148.14)" style="fill:#444;stroke:#444;stroke-miterlimit:10;stroke-width:0.25px"/><path d="M1221.82,299.07c.22.11,3.62-5.38,6.68-13.2,2.51-6.4,6.58-16.81,2.75-20.64-.55-.55-1.66-1.36-2.29-1-1,.52-.1,3.57.16,7.06.21,3-.22,5.3-1.08,9.89C1226.08,291.54,1221.56,298.94,1221.82,299.07Z" transform="translate(-850.61 -148.14)" style="fill:#333;stroke:#333;stroke-miterlimit:10"/><ellipse cx="540.09" cy="586.55" rx="37.47" ry="10.46" style="opacity:0.12"/><path d="M1423.61,678.48l-6.63,45.1-.83,5.66a11.62,11.62,0,0,1-11.51,9.94h-30a11.64,11.64,0,0,1-11.55-10.27l-.56-4.78-5.39-45.82a5.91,5.91,0,0,1,5.87-6.6h54.7A5.91,5.91,0,0,1,1423.61,678.48Z" transform="translate(-850.61 -148.14)" style="fill:#9e63a8"/><path d="M1368.92,615.8c9.51,0,15,16.87,13.68,25.21s2,26.51,2,26.51-14.55,4-14-24.19C1370.73,636.35,1361.5,615.81,1368.92,615.8Z" transform="translate(-850.61 -148.14)" style="fill:#8380c1"/><path d="M1403.07,629s7.63-15,11.85-13.67,7.65,17.67,5,23.22-9.47,31.66-16.87,30.87-21.4-8.48-18.49-14.13S1403.07,629,1403.07,629Z" transform="translate(-850.61 -148.14)" style="fill:#a099e0"/><path d="M1386.16,679.92c-1.16-5.55-8.19-18.9-8.8-24.6-2.57-2.48-12.57-15.17-19.91-14.46-8.16.79,7.33,23.81,17.22,34.25C1374.83,672.29,1386.75,682.74,1386.16,679.92Z" transform="translate(-850.61 -148.14)" style="fill:#a099e0"/><path d="M1411,675a27.74,27.74,0,0,1-9.28,2.37c-.69.08-1.37.16-2.08.21a120.62,120.62,0,0,1-18-.16,7.35,7.35,0,0,1-4.63-2.16c-.37-.38-.79-.82-1.26-1.29-1.26-1.31-2.35-8.45-2.69-10.21-.84-4.57-2.37-48.34,17.45-76.93,2.14-3.1,4.45-4.43,6.53-4.52a5.24,5.24,0,0,1,1.26.09c3,.6,5.37,3.82,5.68,7.75,1.32,17.35,1.75,44.33-7,53.83-13.35,14.43-4,20.2.36,15.88,3.45-3.44,11.46-21.28,17.32-20.43a3,3,0,0,1,1.05.38c1.09.64,2.08,2.07,2.92,4.53C1424,660.19,1420,670.29,1411,675Z" transform="translate(-850.61 -148.14)" style="fill:#c4b9ff"/><path d="M1383.15,674.74a.52.52,0,0,1-.45.59h-.08a.54.54,0,0,1-.52-.45c-.09-.63-8.76-60.78,14.93-92.61a5.19,5.19,0,0,1,1.25.09C1374.36,613.69,1383.05,674.11,1383.15,674.74Z" transform="translate(-850.61 -148.14)" style="fill:#a099e0"/><path d="M1415.66,639.78c-.56,7.18-3.1,28.66-13.94,37.56a16.8,16.8,0,0,1-7.37,3.59l-.21-1a15,15,0,0,0,5.5-2.34c11.71-7.91,14.42-31.19,15-38.15A3,3,0,0,1,1415.66,639.78Z" transform="translate(-850.61 -148.14)" style="fill:#a099e0"/><path d="M1384,615.8a.5.5,0,0,1-.36-.14.52.52,0,0,1,0-.74L1397,600.18a.52.52,0,0,1,.74,0,.54.54,0,0,1,0,.75l-13.43,14.74A.56.56,0,0,1,1384,615.8Z" transform="translate(-850.61 -148.14)" style="fill:#a099e0"/><path d="M1381.82,637a.55.55,0,0,1-.36-.13.53.53,0,0,1,0-.75l12.43-13.72a.52.52,0,1,1,.78.7l-12.43,13.73A.54.54,0,0,1,1381.82,637Z" transform="translate(-850.61 -148.14)" style="fill:#a099e0"/><path d="M1381.07,656.09a.52.52,0,0,1-.45-.26c-1.65-2.75-6-10-6.2-10.28a.53.53,0,0,1,.14-.73.54.54,0,0,1,.74.15c.26.4,6,9.91,6.22,10.32a.52.52,0,0,1-.18.72A.53.53,0,0,1,1381.07,656.09Z" transform="translate(-850.61 -148.14)" style="fill:#a099e0"/><path d="M1409,666.64a.53.53,0,0,1-.49-.34l-3.69-9.77a.53.53,0,0,1,.31-.68.53.53,0,0,1,.68.31l3.68,9.77a.52.52,0,0,1-.3.68A.63.63,0,0,1,1409,666.64Z" transform="translate(-850.61 -148.14)" style="fill:#a099e0"/><path d="M1383.24,672.24a.55.55,0,0,1-.3-.09.53.53,0,0,1-.13-.74c.18-.26,4.45-6.4,6.74-8.41a.53.53,0,0,1,.7.8c-2.2,1.92-6.53,8.15-6.58,8.21A.51.51,0,0,1,1383.24,672.24Z" transform="translate(-850.61 -148.14)" style="fill:#a099e0"/><path d="M1423.61,678.48l-1,7.08-.15,1.06-4.84,32.87A11.31,11.31,0,0,1,1409,729a13.07,13.07,0,0,1-3,.32h-33A11.43,11.43,0,0,1,1362,719.15l-3.82-32.53-.13-1.06-.85-7.25a5.91,5.91,0,0,1,5.87-6.6h54.7A5.91,5.91,0,0,1,1423.61,678.48Z" transform="translate(-850.61 -148.14)" style="fill:#bd79c6"/><polygon points="571.95 537.42 571.8 538.48 507.56 538.48 507.43 537.42 571.95 537.42" style="fill:#9e63a8"/><path d="M1248.59,604.13s9.94-38.17,10.48-45.85a3.59,3.59,0,0,0-.23-1.49c-1.3-3.5-5.25-29-6.84-37a3,3,0,0,0-3-2.43h-8.89c-2-.12-8.6,9.12-9.1,11l-3.76,9.73,16.92,33.46Z" transform="translate(-850.61 -148.14)" style="fill:url(#f)"/><path d="M1248.49,604.59a1.16,1.16,0,0,1-.43.95,1.2,1.2,0,0,1-1.41.12l-10.27-6.16a1.18,1.18,0,0,0-1.23,0l-9,5.17a1.19,1.19,0,0,1-1.25,0,1.18,1.18,0,0,1-.57-1.08l2.95-66.29a1.86,1.86,0,0,1,.06-.34,10.34,10.34,0,0,1,19.8-.28,1,1,0,0,1,.07.39Z" transform="translate(-850.61 -148.14)" style="fill:#ce6b29;stroke:#ce6b29;stroke-miterlimit:10"/><path d="M1248.06,605.54a1.25,1.25,0,0,1-1.06.27,1.19,1.19,0,0,1-.35-.15l-10.27-6.16a1.18,1.18,0,0,0-1.23,0l-9,5.17-.13.06a1.17,1.17,0,0,1-1.12-.09l9.34-35.11a2.21,2.21,0,0,1,4.27,0Z" transform="translate(-850.61 -148.14)" style="fill:url(#g)"/><path d="M1247,605.81a1.19,1.19,0,0,1-.35-.15l-10.27-6.16a1.18,1.18,0,0,0-1.23,0l-9,5.17-.13.06,8.22-30.9a2.21,2.21,0,0,1,4.27,0Z" transform="translate(-850.61 -148.14)" style="fill:url(#h)"/><path d="M1232.26,533.13a7.71,7.71,0,0,1-2.17-6.77,6.82,6.82,0,0,1,2.1-4,7.6,7.6,0,0,1,9.7.06,7.73,7.73,0,0,1,2.3,5.17,8.23,8.23,0,0,1-2.1,5.88C1239.59,536,1235.07,535.84,1232.26,533.13Z" transform="translate(-850.61 -148.14)" style="fill:none;stroke:#333;stroke-miterlimit:10;stroke-width:2px"/><path d="M1235,498.33l3.65,2.83a1.4,1.4,0,0,1,.53,1l1.79,19.57a1.4,1.4,0,0,1-1.39,1.52h-5.43a1.39,1.39,0,0,1-1.39-1.47l1.19-22.95A.65.65,0,0,1,1235,498.33Z" transform="translate(-850.61 -148.14)" style="fill:#3a4f88"/><path d="M1240.93,521.71a1.4,1.4,0,0,1-1.39,1.52h-1V501.1l.08.06a1.4,1.4,0,0,1,.53,1Z" transform="translate(-850.61 -148.14)" style="fill:#d39340"/><line x1="385.71" y1="423.41" x2="385.21" y2="451.19" style="fill:#ce6b29;stroke:#ce6b29;stroke-miterlimit:10;stroke-width:0.5px"/><path d="M1238.53,501.1v22.13h-4.42a1.39,1.39,0,0,1-1.39-1.47l1.19-22.95a.65.65,0,0,1,1-.48Z" transform="translate(-850.61 -148.14)" style="fill:url(#i)"/><path d="M1268.66,552.57" transform="translate(-850.61 -148.14)" style="fill:url(#j)"/><rect x="383.85" y="383.81" width="4.27" height="7.35" rx="1.69" style="fill:#a05320"/><path d="M1252.92,558.32l1.06-2.42a.74.74,0,0,1,1.4.15l2.2,10.85v0l-2.5,11.08a.09.09,0,0,1-.18,0l-2.35-17A5.12,5.12,0,0,1,1252.92,558.32Z" transform="translate(-850.61 -148.14)" style="fill:#a05320"/><path d="M1254.83,560.24a.94.94,0,0,1,.38,1.2.53.53,0,0,1-.88.26.91.91,0,0,1-.23-.93C1254.2,560.43,1254.47,560.12,1254.83,560.24Z" transform="translate(-850.61 -148.14)" style="fill:#7a3e20"/><path d="M1255.05,560.32a1,1,0,0,1,.39,1.2.54.54,0,0,1-.89.26.91.91,0,0,1-.23-.93C1254.42,560.51,1254.7,560.2,1255.05,560.32Z" transform="translate(-850.61 -148.14)" style="fill:#d39340"/><path d="M1243.12,295.54c.13.84-1.18,2.44-2.15,3.52a8.05,8.05,0,0,0,.47-2.76,7.82,7.82,0,0,0-.31-2.08,5.76,5.76,0,0,1,1.26.51,1.24,1.24,0,0,1,.68.65A1.42,1.42,0,0,1,1243.12,295.54Z" transform="translate(-850.61 -148.14)" style="fill:#f3a99c"/></svg>