<svg version="1.1" id="Layer_1" xmlns="http://www.w3.org/2000/svg" xmlns:xlink="http://www.w3.org/1999/xlink" x="0px" y="0px" viewBox="0 0 128 128" style="fill: rgb(0, 0, 0);" xml:space="preserve" width="100" height="100">

<g>
	<g>
		<path d="M46,75c-1.7,0-3-1.3-3-3v-8c0-1.7,1.3-3,3-3s3,1.3,3,3v8C49,73.7,47.7,75,46,75z" style="fill:#444B54;"/>
	</g>
	<g>
		<g>
			<path d="M34,75c-1.7,0-3-1.3-3-3v-8c0-5.8,1.5-11.5,4.4-16.5c0.8-1.4,2.7-1.9,4.1-1.1c1.4,0.8,1.9,2.7,1.1,4.1&#10;&#9;&#9;&#9;&#9;C38.2,54.6,37,59.3,37,64v8C37,73.7,35.7,75,34,75z" style="fill:#444B54;"/>
		</g>
		<g>
			<path d="M37,20.2c-1,0-2-0.5-2.6-1.5c-0.8-1.4-0.3-3.3,1.1-4.1C44.1,9.6,54,7,64,7c10,0,19.9,2.6,28.5,7.6&#10;&#9;&#9;&#9;&#9;c1.4,0.8,1.9,2.7,1.1,4.1c-0.8,1.4-2.7,1.9-4.1,1.1C81.8,15.4,73,13,64,13c-9,0-17.8,2.4-25.5,6.8C38,20.1,37.5,20.2,37,20.2z" style="fill:#444B54;"/>
		</g>
		<g>
			<path d="M97,41c-0.9,0-1.8-0.4-2.4-1.1C87.2,30.4,76,25,64,25c-3,0-6.1,0.4-9,1.1c-1.6,0.4-3.2-0.6-3.6-2.2&#10;&#9;&#9;&#9;&#9;c-0.4-1.6,0.6-3.2,2.2-3.6C57,19.4,60.5,19,64,19c13.8,0,26.7,6.2,35.3,17.1c1,1.3,0.8,3.2-0.5,4.2C98.3,40.8,97.6,41,97,41z" style="fill:#444B54;"/>
		</g>
		<g>
			<path d="M31,41c-0.7,0-1.3-0.2-1.9-0.6c-1.3-1-1.5-2.9-0.5-4.2c3.5-4.4,7.7-8.1,12.6-11c1.4-0.8,3.3-0.4,4.1,1.1&#10;&#9;&#9;&#9;&#9;c0.8,1.4,0.4,3.3-1.1,4.1c-4.2,2.5-7.9,5.7-10.9,9.5C32.8,40.7,31.9,41,31,41z" style="fill:#444B54;"/>
		</g>
		<g>
			<path d="M94,75c-1.7,0-3-1.3-3-3v-8c0-4.4-1.1-8.8-3.2-12.7c-0.8-1.5-0.2-3.3,1.2-4.1c1.5-0.8,3.3-0.2,4.1,1.2&#10;&#9;&#9;&#9;&#9;C95.7,53.2,97,58.6,97,64v8C97,73.7,95.7,75,94,75z" style="fill:#444B54;"/>
		</g>
		<g>
			<path d="M81.7,42.8c-0.6,0-1.2-0.2-1.8-0.6C75.3,38.8,69.8,37,64,37c-4.9,0-9.8,1.3-13.9,3.9c-1.4,0.9-3.3,0.4-4.1-1&#10;&#9;&#9;&#9;&#9;c-0.9-1.4-0.4-3.3,1-4.1C52.1,32.6,58,31,64,31c7.1,0,13.8,2.2,19.5,6.3c1.3,1,1.6,2.9,0.7,4.2C83.5,42.3,82.6,42.8,81.7,42.8z" style="fill:#444B54;"/>
		</g>
		<g>
			<path d="M46,67c-1.7,0-3-1.3-3-3c0-7.4,3.8-14.1,10.1-17.9c1.4-0.9,3.3-0.4,4.1,1c0.9,1.4,0.4,3.3-1,4.1&#10;&#9;&#9;&#9;&#9;C51.7,53.9,49,58.7,49,64C49,65.7,47.7,67,46,67z" style="fill:#444B54;"/>
		</g>
		<g>
			<path d="M81.1,61.9c-1.3,0-2.5-0.8-2.9-2.1c-1.8-5.6-6.5-9.8-12.2-10.6c-1.6-0.2-2.8-1.8-2.5-3.4&#10;&#9;&#9;&#9;&#9;c0.2-1.6,1.8-2.8,3.4-2.5c7.9,1.1,14.6,6.9,17,14.8c0.5,1.6-0.4,3.3-2,3.8C81.7,61.8,81.4,61.9,81.1,61.9z" style="fill:#444B54;"/>
		</g>
		<g>
			<path d="M100,95h-6c-6.3,0-12-4-14.1-10c-0.6-1.6,0.3-3.3,1.8-3.8c1.6-0.6,3.3,0.3,3.8,1.8c1.3,3.6,4.7,6,8.5,6h6&#10;&#9;&#9;&#9;&#9;c1.7,0,3,1.3,3,3S101.7,95,100,95z" style="fill:#444B54;"/>
		</g>
		<g>
			<path d="M34.4,103H32c-1.7,0-3-1.3-3-3s1.3-3,3-3h2.4c11,0,21.1-5.5,27.2-14.7c0.9-1.4,2.8-1.8,4.2-0.9&#10;&#9;&#9;&#9;&#9;c1.4,0.9,1.8,2.8,0.9,4.2C59.5,96.5,47.4,103,34.4,103z" style="fill:#444B54;"/>
		</g>
		<g>
			<path d="M69.2,75c-0.2,0-0.4,0-0.6-0.1c-1.6-0.4-2.6-1.9-2.3-3.6c0.5-2.3,0.7-4.6,0.7-6.9c0-1.8-1.3-3.4-2.9-3.4&#10;&#9;&#9;&#9;&#9;L64,61c-1,0-1.7,0.5-2.1,0.8c-0.2,0.2-0.6,0.7-0.8,1.3C61,63.4,61,63.7,61,64c0,1.7-1.3,3-3,3s-3-1.3-3-3c0-0.9,0.1-1.7,0.4-2.5&#10;&#9;&#9;&#9;&#9;c0.6-1.9,1.6-3.2,2.4-3.9c1-1,3.2-2.6,6.6-2.5c4.8,0.2,8.6,4.4,8.6,9.4c0,2.8-0.3,5.5-0.9,8.2C71.8,74,70.6,75,69.2,75z" style="fill:#444B54;"/>
		</g>
		<g>
			<path d="M34,91h-8c-1.7,0-3-1.3-3-3s1.3-3,3-3h8c4.2,0,8.2-1.2,11.6-3.5c1.4-0.9,3.2-0.5,4.2,0.8&#10;&#9;&#9;&#9;&#9;c0.9,1.4,0.5,3.2-0.8,4.2C44.5,89.4,39.3,91,34,91z" style="fill:#444B54;"/>
		</g>
		<g>
			<path d="M42.3,114.3c-1.4,0-2.7-1-3-2.5c-0.3-1.6,0.8-3.2,2.4-3.5c9.4-1.6,18.1-6.2,24.5-12.8&#10;&#9;&#9;&#9;&#9;c1.7-1.8,4.1-2.8,6.6-2.8c0,0,0,0,0,0c2.4,0,4.6,0.9,6.3,2.6c3.7,3.8,8.7,5.7,14.8,5.7c1.7,0,3,1.3,3,3s-1.3,3-3,3&#10;&#9;&#9;&#9;&#9;c-9.7,0-15.7-4-19.1-7.4c-0.7-0.7-1.5-0.8-2-0.8c0,0,0,0,0,0c-0.8,0-1.7,0.4-2.3,1c-7.3,7.5-17.2,12.7-27.8,14.5&#10;&#9;&#9;&#9;&#9;C42.7,114.3,42.5,114.3,42.3,114.3z" style="fill:#444B54;"/>
		</g>
	</g>
	<g>
		<path d="M22,75c-1.7,0-3-1.3-3-3v-8c0-4.2,0.6-8.3,1.7-12.3c2-6.9,5.6-13.4,10.6-18.6c1.1-1.2,3-1.3,4.2-0.1&#10;&#9;&#9;&#9;c1.2,1.1,1.3,3,0.1,4.2c-4.3,4.6-7.5,10.1-9.2,16.2c-1,3.5-1.5,7-1.5,10.7v8C25,73.7,23.7,75,22,75z" style="fill:#444B54;"/>
	</g>
	<g>
		<path d="M106,75c-1.7,0-3-1.3-3-3v-8c0-13-6.4-25.1-17.2-32.3c-1.4-0.9-1.7-2.8-0.8-4.2c0.9-1.4,2.8-1.7,4.2-0.8&#10;&#9;&#9;&#9;C101.6,35.1,109,49,109,64v8C109,73.7,107.7,75,106,75z" style="fill:#444B54;"/>
	</g>
	<g>
		<path d="M123,75H4c-1.7,0-3-1.3-3-3s1.3-3,3-3h119c1.7,0,3,1.3,3,3S124.7,75,123,75z" style="fill:#FF5576;"/>
	</g>
</g>
</svg>