<svg xmlns="http://www.w3.org/2000/svg" xmlns:xlink="http://www.w3.org/1999/xlink" version="1.1" id="Слой_1" x="0px" y="0px" viewBox="0 0 128 128" style="fill: rgb(0, 0, 0);" xml:space="preserve" width="100" height="100">
<path style="fill:#F7F7FB;" d="M64,9C33.6,9,9,33.6,9,64s24.6,55,55,55s55-24.6,55-55S94.4,9,64,9 M64,94.7C47,94.7,33.3,81,33.3,64  S47,33.3,64,33.3S94.7,47,94.7,64S81,94.7,64,94.7"/>
<path style="fill:#F37C7E;" d="M36.7,16.3l12.2,21.1c4.5-2.5,9.6-4,15.1-4c5.6,0,10.9,1.5,15.5,4.2l12.2-21.1C83.5,11.7,74.1,9,64,9  C54,9,44.7,11.7,36.7,16.3"/>
<path style="fill:#F37C7E;" d="M119,64H94.7c0,5.3-1.3,10.6-4.1,15.5c-2.8,4.8-6.6,8.5-11,11.1l12.1,21C108,102,119,84.3,119,64"/>
<path style="fill:#DFE0E4;" d="M72.6,9.7c6.9,1.1,13.3,3.4,19.1,6.8l-4.1,7.1C98.4,33.7,105.2,48,105.2,64l0,0H119l0,0  C119,36.5,98.9,13.8,72.6,9.7 M58.2,9.3c-0.1,0-0.1,0-0.2,0c-0.3,0-0.5,0.1-0.8,0.1l0,0C57.6,9.4,57.9,9.3,58.2,9.3 M64.2,9L64.2,9  L64.2,9 M64.1,9L64.1,9L64.1,9 M64.1,9L64.1,9L64.1,9 M64.1,9L64.1,9L64.1,9 M64,9L64,9L64,9 M64,9L64,9L64,9"/>
<path style="fill:#DC7173;" d="M64,9L64,9c-1.9,0-3.8,0.1-5.8,0.3c-0.3,0-0.7,0.1-1,0.1c11.7,1.5,22.2,6.6,30.3,14.2l4.1-7.1  c-5.8-3.4-12.3-5.8-19.1-6.8l0,0C69.8,9.2,67,9,64.2,9l0,0l0,0l0,0l0,0l0,0l0,0l0,0l0,0l0,0C64.1,9,64.1,9,64,9L64,9  C64.1,9,64.1,9,64,9L64,9C64.1,9,64.1,9,64,9L64,9C64.1,9,64.1,9,64,9L64,9L64,9L64,9L64,9L64,9L64,9L64,9"/>
<path style="fill:#DFE0E4;" d="M87.5,104.4c-8.2,7.6-18.7,12.7-30.3,14.2c2.2,0.3,4.5,0.4,6.8,0.4l0,0c10.1,0,19.5-2.7,27.7-7.4  L87.5,104.4"/>
<path style="fill:#DC7173;" d="M119,64h-13.8c0,15.9-6.8,30.3-17.7,40.4l4.1,7.2c5.1-3,9.8-6.8,13.7-11.2C113.8,90.6,119,78,119,64  L119,64L119,64L119,64C119,64.1,119,64.1,119,64C119,64.1,119,64.1,119,64L119,64L119,64L119,64L119,64"/>
<path style="fill:#F37C7E;" d="M33.4,63.8H9.2c0,9.4,2.3,19,7.4,27.7c5,8.6,11.9,15.4,20,20l12.2-21C38.9,84.8,33.4,74.5,33.4,63.8"/>
<path style="fill:#DFE0E4;" d="M48.7,90.7l-1.9,3.2c2.3,0.5,4.7,0.8,7.2,0.8c1.7,0,3.4-0.1,5-0.4c-0.4-0.1-0.7-0.1-1.1-0.2  C54.6,93.4,51.5,92.3,48.7,90.7 M47,34.1c-13.5,3.1-23.6,15.2-23.7,29.7h10l0,0l0,0l0,0l0,0l0,0l0,0l0,0l0,0l0,0l0,0l0,0l0,0l0,0  l0,0l0,0l0,0l0,0l0,0l0,0c0,0,0,0,0-0.1l0,0l0,0l0,0l0,0l0,0l0,0l0,0l0,0l0,0l0,0l0,0c0.2-11.2,6.4-20.9,15.5-26.1L47,34.1"/>
<path style="fill:#DC7173;" d="M54,33.3c-2.4,0-4.8,0.3-7,0.8l1.8,3.2l0,0c3.1-1.8,6.5-3,10.2-3.6C57.4,33.4,55.7,33.3,54,33.3"/>
<path style="fill:#DC7173;" d="M33.3,63.8h-10c0,0.1,0,0.1,0,0.2c0,14.5,10,26.7,23.5,29.9l1.9-3.2l0,0C39.5,85.4,33.3,75.4,33.3,64  C33.3,63.9,33.3,63.9,33.3,63.8"/>
<line style="fill:none;" x1="79.5" y1="90.5" x2="91.7" y2="111.5"/>
<line style="fill:none;" x1="119" y1="64" x2="94.7" y2="64"/>
<line style="fill:none;" x1="36.5" y1="111.6" x2="48.7" y2="90.5"/>
<path style="fill:#464C55;" d="M64,122C32,122,6,96,6,64S32,6,64,6s58,26,58,58S96,122,64,122z M64,12c-28.7,0-52,23.3-52,52  s23.3,52,52,52s52-23.3,52-52S92.7,12,64,12z M64,97.6c-18.5,0-33.6-15.1-33.6-33.6S45.5,30.4,64,30.4S97.6,45.5,97.6,64  S82.5,97.6,64,97.6z M64,36.4c-15.2,0-27.6,12.4-27.6,27.6S48.8,91.6,64,91.6S91.6,79.2,91.6,64S79.2,36.4,64,36.4z"/>
</svg>