<svg version="1.1" id="Layer_1" xmlns="http://www.w3.org/2000/svg" xmlns:xlink="http://www.w3.org/1999/xlink" x="0px" y="0px" viewBox="0 0 128 128" style="fill: rgb(0, 0, 0);" xml:space="preserve" width="100" height="100">

<g>
	<g>
		<g>
			<path d="M103.6,124H22.9c-1.7,0-3-1.3-3-3s1.3-3,3-3h80.7c1.7,0,3,1.3,3,3S105.2,124,103.6,124z" style="fill:#444B54;"/>
		</g>
	</g>
</g>
<g>
	<g>
		<g>
			<path d="M10.9,124c-0.8,0-1.6-0.3-2.1-0.9c-0.1-0.1-0.3-0.3-0.4-0.4c-0.1-0.2-0.2-0.3-0.3-0.5C8,122,8,121.8,8,121.6&#10;&#9;&#9;&#9;&#9;c0-0.2-0.1-0.4-0.1-0.6c0-0.2,0-0.4,0.1-0.6c0-0.2,0.1-0.4,0.2-0.6c0.1-0.2,0.2-0.3,0.3-0.5c0.1-0.2,0.2-0.3,0.4-0.5&#10;&#9;&#9;&#9;&#9;c1.1-1.1,3.1-1.1,4.2,0c0.1,0.1,0.3,0.3,0.4,0.5c0.1,0.2,0.2,0.3,0.3,0.5c0.1,0.2,0.1,0.4,0.2,0.6c0,0.2,0.1,0.4,0.1,0.6&#10;&#9;&#9;&#9;&#9;c0,0.2,0,0.4-0.1,0.6c0,0.2-0.1,0.4-0.2,0.6c-0.1,0.2-0.2,0.4-0.3,0.5c-0.1,0.2-0.2,0.3-0.4,0.4C12.5,123.7,11.7,124,10.9,124z" style="fill:#444B54;"/>
		</g>
	</g>
</g>
<g>
	<g>
		<g>
			<g>
				<path d="M24.9,88h-3c-1.7,0-3-1.3-3-3s1.3-3,3-3h3c1.7,0,3,1.3,3,3S26.5,88,24.9,88z" style="fill:#444B54;"/>
			</g>
		</g>
	</g>
	<g>
		<g>
			<g>
				<g>
					<path d="M39.1,110h60c2.8,0,5-2.2,5-5V85h-70v20C34.1,107.8,36.4,110,39.1,110z" style="fill:#FFFFFF;"/>
				</g>
			</g>
		</g>
		<g>
			<g>
				<g>
					<path d="M99.1,113h-60c-4.4,0-8-3.6-8-8V85c0-1.7,1.3-3,3-3h70c1.7,0,3,1.3,3,3v20C107.1,109.4,103.6,113,99.1,113&#10;&#9;&#9;&#9;&#9;&#9;&#9;z M37.1,88v17c0,1.1,0.9,2,2,2h60c1.1,0,2-0.9,2-2V88H37.1z" style="fill:#444B54;"/>
				</g>
			</g>
		</g>
		<g>
			<g>
				<g>
					<g>
						<g>
							<g>
								<g>
									<g>
										<ellipse cx="59.6" cy="111.4" rx="9.6" ry="9.6" style="fill:#FFFFFF;"/>
									</g>
								</g>
							</g>
						</g>
					</g>
					<g>
						<g>
							<g>
								<g>
									<g>
										<path d="M59.6,124c-7,0-12.6-5.7-12.6-12.6s5.7-12.6,12.6-12.6c7,0,12.6,5.7,12.6,12.6S66.5,124,59.6,124z&#10;&#9;&#9;&#9;&#9;&#9;&#9;&#9;&#9;&#9;&#9;&#9; M59.6,104.8c-3.7,0-6.6,3-6.6,6.6s3,6.6,6.6,6.6s6.6-3,6.6-6.6S63.2,104.8,59.6,104.8z" style="fill:#444B54;"/>
									</g>
								</g>
							</g>
						</g>
					</g>
				</g>
			</g>
		</g>
		<g>
			<g>
				<g>
					<g>
						<g>
							<path d="M30.9,24.3v11c0,2.8,2.2,5,5,5h66.2c2.8,0,5-2.2,5-5v-11H30.9z" style="fill:#6ACEF5;"/>
						</g>
					</g>
				</g>
			</g>
			<g>
				<g>
					<g>
						<g>
							<path d="M29.9,24.3v11c0,2.8,2.2,5,5,5h68.2c2.8,0,5-2.2,5-5v-11H29.9z" style="fill:#F17786;"/>
						</g>
					</g>
				</g>
			</g>
			<g>
				<g>
					<g>
						<rect x="51" y="25.1" width="6" height="15.2" style="fill:#FFFFFF;"/>
					</g>
				</g>
			</g>
			<g>
				<g>
					<g>
						<rect x="66" y="25.1" width="6" height="15.2" style="fill:#FFFFFF;"/>
					</g>
				</g>
			</g>
			<g>
				<g>
					<g>
						<rect x="81" y="25.1" width="6" height="15.2" style="fill:#FFFFFF;"/>
					</g>
				</g>
			</g>
			<g>
				<g>
					<g>
						<rect x="96" y="25.1" width="6" height="15.2" style="fill:#FFFFFF;"/>
					</g>
				</g>
			</g>
			<g>
				<g>
					<g>
						<rect x="36" y="25.1" width="6" height="15.2" style="fill:#FFFFFF;"/>
					</g>
				</g>
			</g>
			<g>
				<g>
					<g>
						<g>
							<path d="M103.1,43.3c-1.7,0-3-1.3-3-3s1.3-3,3-3c1.1,0,2-0.9,2-2v-8H32.9v8c0,1.1,0.9,2,2,2c1.7,0,3,1.3,3,3&#10;&#9;&#9;&#9;&#9;&#9;&#9;&#9;&#9;s-1.3,3-3,3c-4.4,0-8-3.6-8-8v-11c0-1.7,1.3-3,3-3h78.2c1.7,0,3,1.3,3,3v11C111.1,39.7,107.5,43.3,103.1,43.3z" style="fill:#444B54;"/>
						</g>
					</g>
				</g>
			</g>
			<g>
				<g>
					<g>
						<g>
							<path d="M95.9,43.3h6.2c1.7,0,3-1.3,3-3s-1.3-3-3-3h-6.2c-1.7,0-3,1.3-3,3S94.2,43.3,95.9,43.3z" style="fill:#444B54;"/>
						</g>
					</g>
				</g>
			</g>
			<g>
				<g>
					<g>
						<g>
							<path d="M80.9,43.3h6.2c1.7,0,3-1.3,3-3s-1.3-3-3-3h-6.2c-1.7,0-3,1.3-3,3S79.2,43.3,80.9,43.3z" style="fill:#444B54;"/>
						</g>
					</g>
				</g>
			</g>
			<g>
				<g>
					<g>
						<g>
							<path d="M65.9,43.3h6.2c1.7,0,3-1.3,3-3s-1.3-3-3-3h-6.2c-1.7,0-3,1.3-3,3S64.2,43.3,65.9,43.3z" style="fill:#444B54;"/>
						</g>
					</g>
				</g>
			</g>
			<g>
				<g>
					<g>
						<g>
							<path d="M50.9,43.3h6.2c1.7,0,3-1.3,3-3s-1.3-3-3-3h-6.2c-1.7,0-3,1.3-3,3S49.2,43.3,50.9,43.3z" style="fill:#444B54;"/>
						</g>
					</g>
				</g>
			</g>
			<g>
				<g>
					<g>
						<g>
							<path d="M35.9,43.3h6.2c1.7,0,3-1.3,3-3s-1.3-3-3-3h-6.2c-1.7,0-3,1.3-3,3S34.2,43.3,35.9,43.3z" style="fill:#444B54;"/>
						</g>
					</g>
				</g>
			</g>
		</g>
		<g>
			<g>
				<g>
					<path d="M104.1,88c-1.7,0-3-1.3-3-3V48.3c0-1.7,1.3-3,3-3s3,1.3,3,3V85C107.1,86.7,105.8,88,104.1,88z" style="fill:#444B54;"/>
				</g>
			</g>
		</g>
		<g>
			<g>
				<g>
					<path d="M34.1,88c-1.7,0-3-1.3-3-3V48.3c0-1.7,1.3-3,3-3s3,1.3,3,3V85C37.1,86.7,35.8,88,34.1,88z" style="fill:#444B54;"/>
				</g>
			</g>
		</g>
		<g>
			<g>
				<g>
					<path d="M96.2,124c-1.7,0-3-1.3-3-3v-9c0-1.7,1.3-3,3-3s3,1.3,3,3v9C99.2,122.7,97.8,124,96.2,124z" style="fill:#444B54;"/>
				</g>
			</g>
		</g>
	</g>
</g>
</svg>