<svg xmlns="http://www.w3.org/2000/svg" xmlns:xlink="http://www.w3.org/1999/xlink" version="1.1" id="Слой_1" x="0px" y="0px" viewBox="0 0 128 128" style="fill: rgb(0, 0, 0);" xml:space="preserve" width="100" height="100">
<path style="fill:#FFFFFF;" d="M99.6,40.4l12.9,73.1c0.5,2.8-1.7,5.4-4.6,5.4H70c-2.9,0-5.1-2.601-4.5-5.5L79.3,40.3L99.6,40.4"/>
<path style="fill:#F37778;" d="M110.4,102.8l-43,15.3c0,0,0.1,0,0.1,0.101l41.2,0.7c1.6-0.301,2.899-1.301,3.5-2.7L110.4,102.8"/>
<polyline style="fill:#F37778;" points="70,88.3 104.7,76.5 100,50.4 74.9,58.5 70,88.3 "/>
<polygon style="fill:#E6E7E7;" points="99.6,40.4 92.2,40.4 94.012,52.332 100,50.4 "/>
<polygon style="fill:#E6E7E7;" points="104.7,76.5 98.026,78.769 102.122,105.745 110.4,102.8 "/>
<path style="fill:#DB6C6E;" d="M110.4,102.8l-8.278,2.945l1.177,7.755c0.429,2.403-1.131,4.659-3.415,5.251l8.305,0.141l0.157,0.003  c1.756-0.108,3.2-1.212,3.852-2.708l-0.01-0.074L110.4,102.8"/>
<polyline style="fill:#DB6C6E;" points="100,50.4 94.012,52.332 98.026,78.769 104.7,76.5 100,50.4 "/>
<polyline style="fill:#F0EF98;" points="79.2,21.9 99.5,21.9 99.5,40.4 79.2,40.4 79.2,21.9 "/>
<polyline style="fill:#D9D88A;" points="99.5,21.9 92.2,21.9 92.2,40.4 99.5,40.4 99.5,21.9 "/>
<path style="fill:#454B54;" d="M99.6,43.4H79.2c-1.7,0-3-1.3-3-3V21.9c0-1.7,1.3-3,3-3h20.3c1.7,0,3,1.3,3,3v18.5  C102.6,42.1,101.2,43.4,99.6,43.4z M82.2,37.4h14.3V24.9H82.2V37.4z"/>
<path style="fill:#FFFFFF;" d="M101.9,21.9C101.9,15,96.3,9,89.4,9c-6.9,0-12.5,6-12.5,12.9H101.9"/>
<path style="fill:#E6E7E7;" d="M89.4,9c-0.976,0-1.927,0.12-2.839,0.346C85.951,9.504,85.359,9.72,84.8,10  c4.572,1.987,7.859,6.641,7.9,11.9h9.201c-0.053-6.889-5.524-12.783-12.298-12.898C89.535,9.001,89.468,9,89.4,9"/>
<path style="fill:#F0EF98;" d="M69.5,34v-5.5l-51.8-8.6c-1.2-0.3-2.3,0.6-2.3,1.8V41c0,1.2,1.1,2.1,2.3,1.8L69.5,34"/>
<path style="fill:#454B54;" d="M17.3,45.7L17.3,45.7c-2.7,0-4.8-2.2-4.8-4.8V21.6c0-2.7,2.2-4.9,4.8-4.9c0.4,0,0.7,0,1.1,0.1  L70,25.5c1.4,0.2,2.5,1.5,2.5,3V34c0,1.5-1.1,2.7-2.5,3l-51.7,8.6C18,45.6,17.7,45.7,17.3,45.7z M18.5,22.9v16.5l48.1-8V31  L18.5,22.9z"/>
<path style="fill:#454B54;" d="M101.9,24.9h-25c-1.7,0-3-1.3-3-3C73.9,13.3,81,6,89.4,6s15.5,7.3,15.5,15.9  C104.9,23.6,103.5,24.9,101.9,24.9z M80.4,18.9h18c-1.2-4-4.9-6.9-9-6.9S81.6,15,80.4,18.9z"/>
<path style="fill:#454B54;" d="M107.9,122H70c-2.3,0-4.4-1-5.9-2.8s-2-4-1.6-6.3l13.8-73.1c0.3-1.6,1.9-2.7,3.5-2.4s2.7,1.9,2.4,3.5  L68.4,114c-0.1,0.7,0.2,1.1,0.3,1.3c0.2,0.2,0.6,0.6,1.2,0.6h37.9c0.7,0,1.1-0.4,1.2-0.6c0.2-0.2,0.5-0.7,0.4-1.3L96.6,40.9  c-0.3-1.6,0.8-3.2,2.4-3.5s3.2,0.8,3.5,2.4l12.9,73.1c0.4,2.2-0.2,4.5-1.7,6.2C112.3,121,110.2,122,107.9,122z"/>
</svg>