<svg version="1.1" id="Слой_1" xmlns="http://www.w3.org/2000/svg" xmlns:xlink="http://www.w3.org/1999/xlink" x="0px" y="0px" viewBox="0 0 128 128" enable-background="new 0 0 128 128" xml:space="preserve" width="100" height="100" style="fill: rgb(0, 0, 0);">
<g>
	<g>
		<g>
			<path fill="#F16677" d="M45.5,91h70.9v-9.8c0-4.1-3.3-7.5-7.5-7.5H95.2c-4.4,0-7.9-3.9-7.4-8.3l2.5-23.9&#10;&#9;&#9;&#9;&#9;c0.6-5.6-3.8-10.5-9.4-10.5h0c-5.6,0-9.9,4.8-9.4,10.4l2.1,24.2c0.4,4.4-3.1,8.2-7.4,8.2H53c-4.1,0-7.5,3.4-7.5,7.5V91z"/>
		</g>
		<g>
			<circle fill="#FFFFFF" cx="81" cy="41.5" r="2.8"/>
		</g>
		<g>
			<path fill="#FFFFFF" d="M116.4,91v30H45.5H31.6h0c7.7,0,13.9-6.2,13.9-13.9V91"/>
		</g>
		<g>
			<path fill="none" stroke="#454B54" stroke-width="6" stroke-linecap="round" stroke-linejoin="round" stroke-miterlimit="10" d="&#10;&#9;&#9;&#9;&#9;M54.8,110.8"/>
		</g>
		<g>
			<path fill="none" stroke="#454B54" stroke-width="6" stroke-linecap="round" stroke-linejoin="round" stroke-miterlimit="10" d="&#10;&#9;&#9;&#9;&#9;M54.8,121"/>
		</g>
		<g>
			<path fill="#454B54" d="M116.4,94H45.5c-1.7,0-3-1.3-3-3v-9.8c0-5.8,4.7-10.5,10.5-10.5h13.2c1.3,0,2.4-0.5,3.3-1.4&#10;&#9;&#9;&#9;&#9;c0.9-0.9,1.3-2.2,1.2-3.5l-2.1-24.2c-0.3-3.5,0.9-7,3.3-9.6c2.4-2.6,5.7-4,9.2-4c3.5,0,6.9,1.5,9.3,4.1c2.4,2.6,3.5,6.2,3.2,9.7&#10;&#9;&#9;&#9;&#9;l-2.5,23.9c-0.1,1.3,0.3,2.5,1.1,3.5c0.9,0.9,2,1.5,3.3,1.5H109c5.8,0,10.5,4.7,10.5,10.5V91C119.4,92.7,118.1,94,116.4,94z&#10;&#9;&#9;&#9;&#9; M48.5,88h64.9v-6.8c0-2.5-2-4.5-4.5-4.5H95.2c-2.9,0-5.8-1.3-7.8-3.5c-2-2.2-3-5.2-2.6-8.1l2.5-23.9c0.2-1.9-0.4-3.7-1.6-5.1&#10;&#9;&#9;&#9;&#9;c-1.2-1.4-2.9-2.1-4.8-2.1c-1.8,0-3.5,0.7-4.8,2.1c-1.3,1.4-1.9,3.2-1.7,5l2.1,24.2c0.3,2.9-0.7,5.9-2.7,8&#10;&#9;&#9;&#9;&#9;c-2,2.2-4.8,3.4-7.7,3.4H53c-2.5,0-4.5,2-4.5,4.5V88z"/>
		</g>
	</g>
	<g>
		<path fill="#454B54" d="M31.6,124h-9.1c-1.7,0-3-1.3-3-3s1.3-3,3-3h9.1c6,0,10.9-4.9,10.9-10.9V91c0-1.7,1.3-3,3-3s3,1.3,3,3v16.1&#10;&#9;&#9;&#9;C48.5,116.4,40.9,124,31.6,124z"/>
	</g>
	<g>
		<path fill="#454B54" d="M7.5,124c-0.8,0-1.6-0.3-2.1-0.9c-0.6-0.6-0.9-1.3-0.9-2.1s0.3-1.6,0.9-2.1c1.1-1.1,3.1-1.1,4.2,0&#10;&#9;&#9;&#9;c0.6,0.6,0.9,1.3,0.9,2.1s-0.3,1.6-0.9,2.1C9.1,123.7,8.3,124,7.5,124z"/>
	</g>
	<g>
		<path fill="#454B54" d="M116.4,124H56.6c-1.7,0-3-1.3-3-3v-10.2c0-1.7,1.3-3,3-3s3,1.3,3,3v7.2h53.8V91c0-1.7,1.3-3,3-3s3,1.3,3,3&#10;&#9;&#9;&#9;v30C119.4,122.7,118.1,124,116.4,124z"/>
	</g>
</g>
</svg>