<svg xmlns="http://www.w3.org/2000/svg" xmlns:xlink="http://www.w3.org/1999/xlink" version="1.1" id="Слой_1" x="0px" y="0px" viewBox="0 0 128 128" style="fill: rgb(0, 0, 0);" xml:space="preserve" width="100" height="100">
<path style="fill:#FFFFFF;" d="M44.3,56.3H30.9c-4.5,0-8.1,3.6-8.1,8.1v3.4L40,73.6L44.3,56.3z"/>
<path style="fill:#FFFFFF;" d="M54.4,88l5.8,17.3h3.4c4.5,0,8.1-3.6,8.1-8.1V83.1L54.4,88z"/>
<path style="fill:#B8ABC9;" d="M54.4,88L40,73.6l1-4.899c5.9-29.6,33.9-49.6,63.8-45.5l0.2,2.6c2.7,29.3-17.4,55.9-46.3,61.4  L54.4,88"/>
<path style="fill:#A59AB5;" d="M104.37,23.166c-1.597,0-1.824,1.534-3.67,1.534c0.899,27.9-20.601,50.7-48.4,56l-4.4,0.8l6.5,6.5  l4.3-0.8c28.899-5.5,49-32.1,46.3-61.4l-0.2-2.6c-0.029-0.004-0.06-0.008-0.089-0.012C104.59,23.173,104.477,23.166,104.37,23.166"/>
<path style="fill:#454B54;" d="M54.4,91c-0.8,0-1.6-0.3-2.1-0.9L37.9,75.7c-0.7-0.7-1-1.7-0.8-2.7l1-4.9  C43.7,40,68.6,19.6,97.2,19.6c2.7,0,5.4,0.2,8.1,0.5c1.4,0.2,2.5,1.3,2.6,2.7l0.2,2.6c2.8,31-18.1,58.8-48.7,64.6L55,91  C54.8,91,54.6,91,54.4,91z M43.3,72.6l12.1,12.1l2.8-0.5C85.7,79,104.6,54,102.1,26v-0.1c-1.7-0.2-3.3-0.2-5-0.2  C71.3,25.7,49,44,43.9,69.3L43.3,72.6z"/>
<circle style="fill:#FFFFFF;" cx="81.8" cy="46.3" r="9.2"/>
<path style="fill:#454B54;" d="M40,76.6c-0.3,0-0.6,0-0.9-0.2l-17.3-5.8c-1.2-0.4-2.1-1.6-2.1-2.8v-3.4c0-6.1,5-11.1,11.1-11.1h13.5  c1.7,0,3,1.3,3,3s-1.3,3-3,3H30.9c-2.8,0-5.1,2.3-5.1,5.1v1.2L41,70.7c1.6,0.5,2.4,2.2,1.9,3.8C42.4,75.8,41.3,76.6,40,76.6z"/>
<path style="fill:#454B54;" d="M63.5,108.3h-3.4c-1.3,0-2.4-0.8-2.8-2.1L51.6,89c-0.5-1.6,0.3-3.3,1.9-3.8c1.6-0.5,3.3,0.3,3.8,1.9  l5.1,15.2h1.2c2.8,0,5.1-2.3,5.1-5.1V83.1c0-1.7,1.3-3,3-3s3,1.3,3,3v14.1C74.7,103.3,69.7,108.3,63.5,108.3z"/>
<path style="fill:#F37778;" d="M38.3,83.4l6.3,6.3l0,0c2,5.3-1.9,11-7.6,11.1L27,101l0.1-9.9C27.2,85.4,32.9,81.5,38.3,83.4  L38.3,83.4z"/>
<path style="fill:#454B54;" d="M27,104c-0.8,0-1.6-0.3-2.1-0.9c-0.6-0.6-0.9-1.4-0.9-2.2l0.1-9.9c0.1-6.1,5.1-11.1,11.2-11.1  c1.3,0,2.6,0.2,3.9,0.7c0.4,0.1,0.8,0.4,1.1,0.7l6.3,6.3c0.3,0.3,0.5,0.7,0.7,1.1C48.6,92.1,48.1,96,46,99s-5.5,4.8-9.1,4.9L27,104  C27.1,104,27,104,27,104z M35.4,85.9c-2.9,0-5.2,2.3-5.2,5.2L30.1,98l6.9-0.1c1.7,0,3.3-0.9,4.3-2.3c0.9-1.3,1.1-2.8,0.8-4.2  l-5.3-5.3C36.3,86,35.8,85.9,35.4,85.9z"/>
</svg>