<svg version="1.1" id="Layer_1" xmlns="http://www.w3.org/2000/svg" xmlns:xlink="http://www.w3.org/1999/xlink" x="0px" y="0px" viewBox="0 0 128 128" style="fill: rgb(0, 0, 0);" xml:space="preserve" width="100" height="100">

<g>
	<g>
		<g>
			<g>
				<g>
					<path d="M105.7,99H22.3c-4.6,0-8.3-3.7-8.3-8.3V37.3c0-4.6,3.7-8.3,8.3-8.3h83.3c4.6,0,8.3,3.7,8.3,8.3v53.3&#10;&#9;&#9;&#9;&#9;&#9;&#9;C114,95.3,110.3,99,105.7,99z" style="fill:#FFFFFF;"/>
				</g>
			</g>
		</g>
		<g>
			<g>
				<g>
					<g>
						<path d="M101.5,71.3c-1.7,0-3-1.3-3-3c0-2.3-1.8-4.1-4.1-4.1H83.1c-1.7,0-3-1.3-3-3s1.3-3,3-3h11.3&#10;&#9;&#9;&#9;&#9;&#9;&#9;&#9;c5.6,0,10.1,4.5,10.1,10.1C104.5,70,103.2,71.3,101.5,71.3z" style="fill:#444B54;"/>
					</g>
				</g>
			</g>
			<g>
				<g>
					<g>
						<path d="M76,71.3c-0.2,0-0.4,0-0.6-0.1c-0.2,0-0.4-0.1-0.6-0.2c-0.2-0.1-0.3-0.2-0.5-0.3&#10;&#9;&#9;&#9;&#9;&#9;&#9;&#9;c-0.2-0.1-0.3-0.2-0.5-0.4c-0.6-0.6-0.9-1.3-0.9-2.1c0-0.8,0.3-1.6,0.9-2.1c0.1-0.1,0.3-0.3,0.5-0.4c0.2-0.1,0.3-0.2,0.5-0.3&#10;&#9;&#9;&#9;&#9;&#9;&#9;&#9;c0.2-0.1,0.4-0.1,0.6-0.2c0.4-0.1,0.8-0.1,1.2,0c0.2,0,0.4,0.1,0.6,0.2c0.2,0.1,0.4,0.2,0.5,0.3c0.2,0.1,0.3,0.2,0.5,0.4&#10;&#9;&#9;&#9;&#9;&#9;&#9;&#9;c0.6,0.6,0.9,1.3,0.9,2.1c0,0.8-0.3,1.6-0.9,2.1C77.6,71,76.8,71.3,76,71.3z" style="fill:#444B54;"/>
					</g>
				</g>
			</g>
			<g>
				<g>
					<g>
						<path d="M88.8,56.2c-5.6,0-10.1-4.5-10.1-10.1c0-5.6,4.5-10.1,10.1-10.1s10.1,4.5,10.1,10.1&#10;&#9;&#9;&#9;&#9;&#9;&#9;&#9;C98.8,51.6,94.3,56.2,88.8,56.2z M88.8,42c-2.3,0-4.1,1.8-4.1,4.1s1.8,4.1,4.1,4.1s4.1-1.8,4.1-4.1S91,42,88.8,42z" style="fill:#444B54;"/>
					</g>
				</g>
			</g>
		</g>
		<g>
			<g>
				<g>
					<path d="M105.7,102H22.3C16.1,102,11,96.9,11,90.7V37.3C11,31.1,16.1,26,22.3,26h83.3c6.2,0,11.3,5.1,11.3,11.3&#10;&#9;&#9;&#9;&#9;&#9;&#9;v53.3C117,96.9,111.9,102,105.7,102z M22.3,32c-2.9,0-5.3,2.4-5.3,5.3v53.3c0,2.9,2.4,5.3,5.3,5.3h83.3c2.9,0,5.3-2.4,5.3-5.3&#10;&#9;&#9;&#9;&#9;&#9;&#9;V37.3c0-2.9-2.4-5.3-5.3-5.3H22.3z" style="fill:#444B54;"/>
				</g>
			</g>
		</g>
	</g>
	<g>
		<g>
			<g>
				<rect x="24" y="58" width="18" height="12" style="fill:#F8E390;"/>
			</g>
		</g>
	</g>
	<g>
		<g>
			<g>
				<rect x="24" y="80" width="12" height="6" style="fill:#C7D6E2;"/>
			</g>
		</g>
	</g>
	<g>
		<g>
			<g>
				<rect x="42" y="80" width="12" height="6" style="fill:#C7D6E2;"/>
			</g>
		</g>
	</g>
	<g>
		<g>
			<g>
				<rect x="60" y="80" width="12" height="6" style="fill:#C7D6E2;"/>
			</g>
		</g>
	</g>
	<g>
		<g>
			<g>
				<rect x="78" y="80" width="12" height="6" style="fill:#C7D6E2;"/>
			</g>
		</g>
	</g>
</g>
</svg>