<svg xmlns="http://www.w3.org/2000/svg" viewBox="0 0 85.92 67.1"><title>card-payment</title><g style="opacity:0.15"><path d="M36,29.6a9.36,9.36,0,0,0-7,3.1c-4,.3-6.9,2.8-9.7,5.2l-1.1,1c-2.3,1.9-9,7.5-13.5,11.2v8.1c.7-.6,14.1-11.7,17.5-14.6l1.2-1a36.74,36.74,0,0,1,3.2-2.5v21c-1.2.6-3.4,1.9-3.4,1.9l2.9,5.5s12-6.6,13.4-7.3c3.3-1.8,5.4-3.4,8.5-3.4a3.69,3.69,0,0,1,3.6,4,3.27,3.27,0,0,1-.9,2.6,14.08,14.08,0,0,1-3,2.4,47.91,47.91,0,0,0-7.1,5.8l-.2.2-.2.2c-3.6,5.3-8.3,9.7-16.6,9.7H4.78V89h18.8C34,89,40.68,83.1,45,77.1c0,0,2.3-2.1,4.3-3.7h27.3A9.39,9.39,0,0,0,86,64V39a9.39,9.39,0,0,0-9.4-9.4Zm0,6.2h40.6a3.05,3.05,0,0,1,3.1,3.1V42H36v6.3h43.8V63.9a3.05,3.05,0,0,1-3.1,3.1H56.48a10.32,10.32,0,0,0,1.4-5.4A10.14,10.14,0,0,0,48,51.3c-5.3,0-8.9,2.8-11.5,4.2-.4.2-2.1,1.1-3.6,2V39A3.14,3.14,0,0,1,36,35.8Z" transform="translate(-4.68 -21.9)" style="fill:#e72678"/></g><path d="M40.6,21.9a9.36,9.36,0,0,0-7,3.1c-4,.3-6.9,2.8-9.7,5.2l-1.1,1c-2.3,1.9-9,7.5-13.5,11.2v8.1c.7-.6,14.1-11.7,17.5-14.6l1.2-1a36.74,36.74,0,0,1,3.2-2.5v21c-1.2.6-3.4,1.9-3.4,1.9l2.9,5.5s12-6.6,13.4-7.3c3.3-1.8,5.4-3.4,8.5-3.4a3.69,3.69,0,0,1,3.6,4,3.27,3.27,0,0,1-.9,2.6,14.08,14.08,0,0,1-3,2.4,47.91,47.91,0,0,0-7.1,5.8l-.2.2-.2.2C41.2,70.6,36.5,75,28.2,75H9.4v6.3H28.2c10.4,0,17.1-5.9,21.4-11.9,0,0,2.3-2.1,4.3-3.7H81.2a9.39,9.39,0,0,0,9.4-9.4v-25a9.39,9.39,0,0,0-9.4-9.4Zm0,6.2H81.2a3.05,3.05,0,0,1,3.1,3.1v3.1H40.6v6.3H84.4V56.2a3.05,3.05,0,0,1-3.1,3.1H61.1a10.32,10.32,0,0,0,1.4-5.4,10.14,10.14,0,0,0-9.9-10.3c-5.3,0-8.9,2.8-11.5,4.2-.4.2-2.1,1.1-3.6,2V31.3A3.14,3.14,0,0,1,40.6,28.1Z" transform="translate(-4.68 -21.9)" style="fill:#4f4f4f"/><rect x="35.92" y="12.5" width="43.8" height="6.3" style="fill:#e72678"/></svg>