<svg xmlns="http://www.w3.org/2000/svg" viewBox="0 0 543.14 381.69"><title>in-transit2</title><path d="M539.14,301.12V428.56H489.82c-6.95,26.86-31.12,46.88-60.06,46.88s-53.1-20-60.05-46.88H239.82c-6.95,26.86-31.12,46.88-60.06,46.88s-53.1-20-60-46.88H70.39V319.19h31.25v78.13h18.07c7-26.86,31.12-46.88,60.05-46.88s53.11,20,60.06,46.88H336V162.94H39.14V131.69H367.26v62.5H503.5l3.41,10.74,31.25,93.75Z" transform="translate(-39.14 -93.75)" style="fill:#e72678;opacity:0.15"/><path d="M551,267.58v91.8L506.55,361c-5.35-9.4-14.29-26.56-33.64-26.22-17.79.32-29.78,15.24-35.12,24.64H410.4V187.5H524.17Z" transform="translate(-39.14 -93.75)" style="fill:#e72678;stroke:#000;stroke-miterlimit:10"/><path d="M581.3,260.74,550.05,167l-3.41-10.74H410.4V93.75H82.28V125H379.16V359.38H283C276,332.52,251.84,312.5,222.9,312.5s-53.1,20-60.05,46.88H144.78V281.25H113.53V390.62h49.32c7,26.86,31.12,46.88,60.05,46.88s53.11-20,60.06-46.88H412.85c6.95,26.86,31.12,46.88,60,46.88s53.11-20,60.06-46.88h49.32V263.18ZM222.9,406.25A31.25,31.25,0,1,1,254.16,375,31,31,0,0,1,222.9,406.25Zm250,0A31,31,0,0,1,441.66,375a31.37,31.37,0,0,1,4.09-15.62,31.41,31.41,0,0,1,54.32,0A31.37,31.37,0,0,1,504.16,375,31,31,0,0,1,472.9,406.25ZM551,359.38H533c-7-26.86-31.12-46.88-60.06-46.88s-53.1,20-60,46.88H410.4V187.5H524.17L551,267.58ZM97.9,156.25V187.5H238.53V156.25Zm15.63,62.5V250h93.75V218.75Z" transform="translate(-39.14 -93.75)"/><rect x="74.39" y="125" width="93.75" height="31.25" style="fill:#666"/><rect x="74.39" y="125" width="93.75" height="31.25" style="fill:#666"/><rect x="58.76" y="62.5" width="140.63" height="31.25" style="fill:#666"/></svg>