<svg xmlns="http://www.w3.org/2000/svg" viewBox="0 0 458.6 351.6"><title>loyalty</title><path d="M354,351.5v31.3h31.3V351.5Zm-46.9,0v31.3h31.3V351.5Zm-46.8,0v31.3h31.3V351.5Zm93.7,0v31.3h31.3V351.5Zm-46.9,0v31.3h31.3V351.5Zm-46.8,0v31.3h31.3V351.5Zm0,0v31.3h31.3V351.5Zm46.8,0v31.3h31.3V351.5Zm46.9,0v31.3h31.3V351.5Zm0,0v31.3h31.3V351.5Zm-46.9,31.3h31.3V351.5H307.1Zm-46.8,0h31.3V351.5H260.3Zm140.6-250H57.1a47.16,47.16,0,0,0-46.9,46.9V398.5a47.16,47.16,0,0,0,46.9,46.9H400.9a47.16,47.16,0,0,0,46.9-46.9V179.6A47.08,47.08,0,0,0,400.9,132.8Zm15.6,265.6A15.37,15.37,0,0,1,400.9,414H57.1a15.37,15.37,0,0,1-15.6-15.6V179.6A15.37,15.37,0,0,1,57.1,164H400.9a15.37,15.37,0,0,1,15.6,15.6ZM354,382.8h31.3V351.5H354Zm-46.9,0h31.3V351.5H307.1Zm-46.8,0h31.3V351.5H260.3Zm0-31.3v31.3h31.3V351.5Zm46.8,0v31.3h31.3V351.5Zm46.9,0v31.3h31.3V351.5Zm0,0v31.3h31.3V351.5Zm-46.9,0v31.3h31.3V351.5Zm-46.8,0v31.3h31.3V351.5Z" transform="translate(-10.2 -93.8)" style="fill:#e72678;opacity:0.15"/><path d="M281.3,226.6c0,44.7-93.8,115.7-93.8,115.7C173.4,332,93.7,271.4,93.7,226.6a54.73,54.73,0,0,1,93.8-38.3,54.73,54.73,0,0,1,93.8,38.3Z" transform="translate(-10.2 -93.8)" style="fill:#e72678;stroke:#4f4f4f;stroke-miterlimit:10;stroke-width:30px"/><path d="M375,312.5v31.3h31.3V312.5Zm-46.9,0v31.3h31.3V312.5Zm-46.8,0v31.3h31.3V312.5Zm93.7,0v31.3h31.3V312.5Zm-46.9,0v31.3h31.3V312.5Zm-46.8,0v31.3h31.3V312.5Zm0,0v31.3h31.3V312.5Zm46.8,0v31.3h31.3V312.5Zm46.9,0v31.3h31.3V312.5Zm0,0v31.3h31.3V312.5Zm-46.9,31.3h31.3V312.5H328.1Zm-46.8,0h31.3V312.5H281.3Zm140.6-250H78.1a47.16,47.16,0,0,0-46.9,46.9V359.5a47.16,47.16,0,0,0,46.9,46.9H421.9a47.16,47.16,0,0,0,46.9-46.9V140.6A47.08,47.08,0,0,0,421.9,93.8Zm15.6,265.6A15.37,15.37,0,0,1,421.9,375H78.1a15.37,15.37,0,0,1-15.6-15.6V140.6A15.37,15.37,0,0,1,78.1,125H421.9a15.37,15.37,0,0,1,15.6,15.6ZM375,343.8h31.3V312.5H375Zm-46.9,0h31.3V312.5H328.1Zm-46.8,0h31.3V312.5H281.3Zm0-31.3v31.3h31.3V312.5Zm46.8,0v31.3h31.3V312.5Zm46.9,0v31.3h31.3V312.5Zm0,0v31.3h31.3V312.5Zm-46.9,0v31.3h31.3V312.5Zm-46.8,0v31.3h31.3V312.5Z" transform="translate(-10.2 -93.8)" style="fill:#4f4f4f"/><rect x="317.9" y="218.7" width="31.3" height="31.3" style="fill:#e72678"/></svg>