<svg xmlns="http://www.w3.org/2000/svg" viewBox="0 0 84.2 86.2"><title>online-support</title><g style="opacity:0.15"><path d="M44,14.4A34.53,34.53,0,0,0,9.6,48.8v4.8a11.15,11.15,0,0,0-3.1,7.7c0,5,3.2,8.8,7.4,10.8C17.5,85.4,29.5,95.6,44,95.6A30.6,30.6,0,0,0,68.9,83.1H69a12.53,12.53,0,0,0,12.2-10,6.57,6.57,0,0,0,1.7-1.2,6.44,6.44,0,0,0,1.8-4.5V51.9a6.15,6.15,0,0,0-6.3-6.3h-.2A34.51,34.51,0,0,0,44,14.4Zm0,6.2A28.09,28.09,0,0,1,71.5,43.4a10.93,10.93,0,0,0-1.7-.5c-2.2-.5-4.4-.7-6.3-1.2A8.89,8.89,0,0,1,58.7,39c-1.3-1.5-2.2-4.1-2.2-9H50.2c0,6.2-1.8,8.6-4.4,10.3S39,42.4,34.5,42.5s-9.2-.3-13.4.6A12,12,0,0,0,16,45.2,28.52,28.52,0,0,1,44,20.6Zm9.2,21.2a4.13,4.13,0,0,0,.7,1.1A14.64,14.64,0,0,0,62,47.8c2.7.7,5.2.9,6.5,1.2.4.1.4.1.5.2V73.8h5.5A5.89,5.89,0,0,1,69,76.9H50a4.57,4.57,0,0,0-4.4-3.1,4.7,4.7,0,1,0,0,9.4h15A24.55,24.55,0,0,1,44,89.5,25.27,25.27,0,0,1,19.6,69.8L19.2,68l-1.8-.6a6.11,6.11,0,0,1-4.7-6.1c0-2.6,2.1-5.3,3.9-5.8l2.3-.6V52.5c0-1.4.3-1.7.7-2.1a5.31,5.31,0,0,1,2.6-1.1c2.8-.6,7.6-.4,12.4-.5s10-.5,14.5-3.2A14.87,14.87,0,0,0,53.2,41.8ZM75.3,51.9h3.1V67.5H75.3ZM33.1,55a4.7,4.7,0,1,0,4.7,4.7A4.69,4.69,0,0,0,33.1,55Zm21.8,0a4.7,4.7,0,1,0,4.7,4.7A4.69,4.69,0,0,0,54.9,55Z" transform="translate(-6.5 -9.4)" style="fill:#e72678"/></g><path d="M19.3,39.3C16.5,34.7,30,13.1,48.8,12.5,69.5,11.9,83.7,37.1,81,40.8c-1.5,2.1-7.1-4.5-21.3-4.9-6.4-.2-9,1.8-26,3.4C20.9,40.4,19.8,40,19.3,39.3Z" transform="translate(-6.5 -9.4)" style="fill:#666"/><path d="M50,9.4A34.53,34.53,0,0,0,15.6,43.8v4.8a11.15,11.15,0,0,0-3.1,7.7c0,5,3.2,8.8,7.4,10.8C23.5,80.4,35.5,90.6,50,90.6A30.6,30.6,0,0,0,74.9,78.1H75a12.53,12.53,0,0,0,12.2-10,6.57,6.57,0,0,0,1.7-1.2,6.44,6.44,0,0,0,1.8-4.5V46.9a6.15,6.15,0,0,0-6.3-6.3h-.2A34.51,34.51,0,0,0,50,9.4Zm0,6.2A28.09,28.09,0,0,1,77.5,38.4a10.93,10.93,0,0,0-1.7-.5c-2.2-.5-4.4-.7-6.3-1.2A8.89,8.89,0,0,1,64.7,34c-1.3-1.5-2.2-4.1-2.2-9H56.2c0,6.2-1.8,8.6-4.4,10.3S45,37.4,40.5,37.5s-9.2-.3-13.4.6A12,12,0,0,0,22,40.2,28.52,28.52,0,0,1,50,15.6Zm9.2,21.2a4.13,4.13,0,0,0,.7,1.1A14.64,14.64,0,0,0,68,42.8c2.7.7,5.2.9,6.5,1.2.4.1.4.1.5.2V68.8h5.5A5.89,5.89,0,0,1,75,71.9H56a4.57,4.57,0,0,0-4.4-3.1,4.7,4.7,0,1,0,0,9.4h15A24.55,24.55,0,0,1,50,84.5,25.27,25.27,0,0,1,25.6,64.8L25.2,63l-1.8-.6a6.11,6.11,0,0,1-4.7-6.1c0-2.6,2.1-5.3,3.9-5.8l2.3-.6V47.5c0-1.4.3-1.7.7-2.1a5.31,5.31,0,0,1,2.6-1.1c2.8-.6,7.6-.4,12.4-.5s10-.5,14.5-3.2A14.87,14.87,0,0,0,59.2,36.8ZM81.3,46.9h3.1V62.5H81.3ZM39.1,50a4.7,4.7,0,1,0,4.7,4.7A4.69,4.69,0,0,0,39.1,50Zm21.8,0a4.7,4.7,0,1,0,4.7,4.7A4.69,4.69,0,0,0,60.9,50Z" transform="translate(-6.5 -9.4)"/><rect x="74.8" y="36.7" width="4.5" height="17.2" style="fill:#e72678"/></svg>