<svg xmlns="http://www.w3.org/2000/svg" viewBox="0 0 164.3 331.61"><title>iphone</title><path d="M434.73,92.15H324.63a25.49,25.49,0,0,0-25.49,25.49V398.27a25.49,25.49,0,0,0,25.49,25.49h110.1a25.49,25.49,0,0,0,25.49-25.49V117.64A25.49,25.49,0,0,0,434.73,92.15ZM451.83,393A24.08,24.08,0,0,1,427.75,417H329.87A24.08,24.08,0,0,1,305.8,393V123.72a24.07,24.07,0,0,1,24.07-24.07h97.88a24.08,24.08,0,0,1,24.08,24.07Z" transform="translate(-297.44 -92.15)" style="fill:#f9fafb"/><rect x="0.36" y="96.53" width="1.68" height="23.77" style="fill:#f9fafb"/><rect x="0.27" y="66.21" width="3.19" height="24.19" style="fill:#f9fafb"/><rect y="42.1" width="2.86" height="13.44" style="fill:#f9fafb"/><rect x="160.6" y="74.28" width="3.7" height="39.43" style="fill:#f9fafb"/><path d="M401.71,110.37h-46a17.86,17.86,0,0,1-17.86-17.86h81.69A17.86,17.86,0,0,1,401.71,110.37Z" transform="translate(-297.44 -92.15)" style="fill:#f9fafb"/><path d="M386.29,104.38h-16a1.37,1.37,0,0,1-1.37-1.37h0a1.37,1.37,0,0,1,1.37-1.37h16a1.37,1.37,0,0,1,1.37,1.37h0A1.37,1.37,0,0,1,386.29,104.38Z" transform="translate(-297.44 -92.15)" style="fill:#322c4a;opacity:0.14"/><path d="M398,103a1.68,1.68,0,1,1-1.67-1.68A1.68,1.68,0,0,1,398,103Z" transform="translate(-297.44 -92.15)" style="fill:#322c4a;opacity:0.14"/><path d="M412.05,103a3.58,3.58,0,1,1-3.58-3.58A3.58,3.58,0,0,1,412.05,103Z" transform="translate(-297.44 -92.15)" style="fill:#322c4a;opacity:0.14"/><path d="M364.64,103a1.83,1.83,0,1,1-1.83-1.83A1.83,1.83,0,0,1,364.64,103Z" transform="translate(-297.44 -92.15)" style="fill:#322c4a;opacity:0.14"/><path d="M355.34,103A3.36,3.36,0,1,1,352,99.66,3.35,3.35,0,0,1,355.34,103Z" transform="translate(-297.44 -92.15)" style="fill:#322c4a;opacity:0.14"/><path d="M461,121.09l-2.67,0,0,2.22h2.52A10.5,10.5,0,0,1,461,121.09Z" transform="translate(-297.44 -92.15)" style="fill:#d3d3d3"/><path d="M298.63,121.25h2.52v2.07h-2.67S298.63,120.8,298.63,121.25Z" transform="translate(-297.44 -92.15)" style="fill:#d3d3d3"/><path d="M299,389.62h2.66v3H299S298.7,389.62,299,389.62Z" transform="translate(-297.44 -92.15)" style="fill:#d3d3d3"/><path d="M457.81,389v3.25h2.81v-3.4S457.81,388.6,457.81,389Z" transform="translate(-297.44 -92.15)" style="fill:#d3d3d3"/><path d="M405.35,408.68H355.57a.77.77,0,0,1-.77-.77h0a.77.77,0,0,1,.77-.76h49.78a.76.76,0,0,1,.77.76h0A.76.76,0,0,1,405.35,408.68Z" transform="translate(-297.44 -92.15)" style="fill:#dcdce1"/><rect x="129.85" y="12.75" width="0.69" height="3.07" rx="0.14" style="fill:#fcfcf4"/><rect x="128.58" y="13.5" width="0.69" height="2.32" rx="0.14" style="fill:#fcfcf4"/><rect x="127.31" y="14.12" width="0.69" height="1.7" rx="0.14" style="fill:#fcfcf4"/><rect x="126.04" y="14.62" width="0.69" height="1.2" rx="0.14" style="fill:#fcfcf4"/><path d="M430.07,106.3l-.55-.54a3.08,3.08,0,0,1,4.31,0l-.55.55a2.32,2.32,0,0,0-3.21,0Z" transform="translate(-297.44 -92.15)" style="fill:#fcfcf4;fill-rule:evenodd"/><path d="M430.86,107.1c-.18-.18-.36-.36-.55-.53a1.94,1.94,0,0,1,2.71,0l-.53.54A1.21,1.21,0,0,0,430.86,107.1Z" transform="translate(-297.44 -92.15)" style="fill:#fcfcf4;fill-rule:evenodd"/><path d="M432.2,107.38l-.53.54-.53-.54A.78.78,0,0,1,432.2,107.38Z" transform="translate(-297.44 -92.15)" style="fill:#fcfcf4;fill-rule:evenodd"/><path d="M440.73,104.82H436a.69.69,0,0,0-.69.69v1.85a.69.69,0,0,0,.69.69h4.73a.69.69,0,0,0,.69-.69v-1.85A.69.69,0,0,0,440.73,104.82Zm.41,2.54a.41.41,0,0,1-.41.41H436a.41.41,0,0,1-.42-.41v-1.85a.41.41,0,0,1,.42-.41h4.73a.41.41,0,0,1,.41.41Z" transform="translate(-297.44 -92.15)" style="fill:#fcfcf4;opacity:0.4"/><rect x="138.42" y="13.22" width="5.01" height="2.12" rx="0.14" style="fill:#fcfcf4"/><path d="M442.08,106.43a.38.38,0,0,1-.37.38v-.75A.38.38,0,0,1,442.08,106.43Z" transform="translate(-297.44 -92.15)" style="fill:#fcfcf4"/></svg>