<svg xmlns="http://www.w3.org/2000/svg" viewBox="0 0 1830.97 618" width="300" height="101"><path d="M278.2,26.65c4.86-2.49,9.64-5.32,14.93-6.8,6.35-1.36,12.31,2.06,17.79,4.79C323,31.31,334.61,38.94,346.51,46q42.71,24.84,85.56,49.45c21.8,12.46,43.38,25.3,65.31,37.53,12.2,7,25,13.29,36,22.21,5.13,3.87,1.52,11-2.46,14.19-11.74,9-25,15.67-37.48,23.59-9.21,5.59-18.45,11.33-28.57,15.15-6.64,2.69-14,.68-20.24-2.22-9.46-4.57-17.92-10.91-27.29-15.65q-41-23.49-81.95-47.14c-8.41-4.82-16.41-10.33-25-14.88-6.2-3.35-13.88-4.32-20.49-1.6-14.27,5.37-27,13.92-40.25,21.34-8.19,4.72-16.57,9.19-24.15,14.87-2.64,2.12-5.49,4.32-6.91,7.49a11.42,11.42,0,0,0,3.5,13.06c7.79,6.6,16.81,11.62,26,15.91,5.76,2.35,12.05,5.2,18.39,3.53,10-2.44,17.08-10.93,26.89-13.8a20,20,0,0,1,15.18,1.91c27.65,15.52,54.92,31.68,82.36,47.56,7.69,4.59,16,8.36,22.78,14.29,3.48,2.68,2.41,8.4-1.24,10.38-35.74,21.4-72.23,41.52-108.07,62.76a64,64,0,0,0-7.42,4.75,87.37,87.37,0,0,1-9.31-5c-32.68-18.49-64.84-37.9-97.44-56.51a104.13,104.13,0,0,0-11.84-6c-15.6-8.63-30.8-18-46.34-26.8-20.72-12-41.58-23.78-62.41-35.61-9.45-5.49-19.18-10.57-28.06-17-3.4-2.42-6.88-5.86-6.58-10.39.62-4.25,4.44-6.95,7.55-9.46,10.11-7.19,21.23-12.81,32-19,16.2-8.95,31.88-18.79,47.87-28.09C156.47,96.86,191,77.56,225,57.41,242.81,47.32,260.24,36.52,278.2,26.65Z" transform="translate(-25.03 -19.54)" style="fill:#e52676"/><path d="M685.45,216.94a150.93,150.93,0,0,1,83.47-33c37-3.08,75.25,7.15,105.07,29.45,12.06,9.1,22.78,20.23,30.47,33.29l.13.25c2.65,5.25,5.12,10.58,7.62,15.89a3.42,3.42,0,0,1-2.14,4.75c-19.63,5.67-39.24,11.39-58.88,17a3.42,3.42,0,0,1-4-1.81c-5.76-11.78-16.07-20.89-27.51-27.06-20-10.66-44.47-13.12-66-5.6-11.79,4-22.13,11.5-30.28,20.83-14,15.71-23.38,36.18-23.6,57.44-.26,15.09,4.62,29.95,12.65,42.63,16.73,27,50.29,41.45,81.46,37.44a75.59,75.59,0,0,0,42.44-19.67c6.78-6.56,11.06-15,15.17-23.39a3.43,3.43,0,0,0-3-4.94c-25-.14-50.09-.14-75.13-.25a3.42,3.42,0,0,1-3.41-3.42q0-25.08,0-50.16a3.42,3.42,0,0,1,3.42-3.42q72.6,0,145.18.08a3.42,3.42,0,0,1,3.41,3.22c.71,11.29,1.85,22.62.88,33.94-3.38,32.2-14.86,64.58-37.48,88.35-22.34,23.9-54.13,37.41-86.32,41a158.24,158.24,0,0,1-106.59-25.63c-25.08-16.92-43.59-42.77-52.73-71.51-8-24.44-10.21-51-4.57-76.21C641.92,265.11,660.53,236.9,685.45,216.94Z" transform="translate(-25.03 -19.54)" style="fill:#fff"/><path d="M552.83,183.07c3.77-1.67,8.8-2.55,12.1.55,2.72,3.25,3.13,7.71,3.77,11.75,1.31,12,.93,24.13.93,36.19-.34,25,.43,50,.35,75-.15,40.69-.9,81.39-.47,122.08,0,15.63.43,31.26-.46,46.87-.36,4.09-.5,8.5-2.9,12-2.92,4.19-7.33,7-11.57,9.67-13.8,8.41-28.33,15.51-42.29,23.62q-51,29.52-101.91,59.05c-14.95,8.7-30,17.19-44.82,26.16-10.39,6.15-20.64,12.61-31.65,17.6-3,1.25-6.81,3-9.82.81a15.73,15.73,0,0,1-5.18-10.85c-1-9.3-.9-18.67-1.06-28,0-14-1.16-28.12.29-42.12.51-3.94,1-8.11,3.25-11.49,4.18-6.56,11-10.76,17.63-14.46,7.31-4,14.59-8,21.63-12.39,33.86-19.43,67.27-39.64,101.52-58.37,7.05-3.71,13.44-10,14.69-18.17,1.81-10.57,1.24-21.36,1.22-32-.45-14,1-28.1-.24-42.11-.36-3.25-.74-6.62-2.32-9.53-2.64-4.53-8.74-6.35-13.55-4.44a113.44,113.44,0,0,0-27.74,15.29c-4.61,3.66-9.82,7.56-11.46,13.52-2.88,9.87.83,20.24-1.49,30.17-1.18,5.41-5,9.87-9.71,12.67Q375,433.73,338,454.63c-8.71,4.92-17.16,10.32-26,15.06-3.13,1.44-6.44,3.49-10,2.85a10,10,0,0,1-5-5.47c0-43.86.22-87.72.25-131.58-.05-1.61-.19-3.22-.33-4.81a64,64,0,0,1,7.42-4.75c35.84-21.24,72.33-41.36,108.07-62.76,2.66-.85,4.94-2.51,7.37-3.82,35.23-19.93,70.15-40.39,105-61C534.06,193.1,543.05,187.3,552.83,183.07Z" transform="translate(-25.03 -19.54)" style="fill:#d00d55"/><path d="M1686.28,227.25a95.81,95.81,0,0,1,64.78-6.11c11.76,3,23.84,6.93,33.57,14.33a3.43,3.43,0,0,0,5.54-2.69v-4.64a3.42,3.42,0,0,1,3.44-3.41c20.77.11,41.53-.06,62.29.11a0,0,0,0,1,0,0q-.06,102.56.06,205.11a0,0,0,0,1,0,0q-31.2,0-62.42.06a3.41,3.41,0,0,1-3.43-3.42v-5.44a3.42,3.42,0,0,0-5.31-2.86c-7.1,4.7-14.34,9.24-22.32,12.3-17.81,7.25-37.85,7.95-56.45,3.55a99,99,0,0,1-46.68-24.62c-13.6-12.89-23.11-29.72-28.35-47.63-5.75-19.76-7.28-41-2.55-61.13C1635.54,269.4,1657,241.07,1686.28,227.25Zm36.23,46.44c-11.85,1.14-22.25,8.11-29.74,17.05-10.49,13.15-13,31.23-9.86,47.42,2.88,14.67,11.09,29,24.5,36.41,12.35,6.89,27.62,6.16,40.53,1.21a49.87,49.87,0,0,0,26.62-24.23c9.23-18.37,7.92-41.95-4.42-58.59C1759.48,278.34,1740.21,271.09,1722.51,273.69Z" transform="translate(-25.03 -19.54)" style="fill:#fff"/><path d="M1223.57,219.75a114.65,114.65,0,0,1,56.71,6.86,137.16,137.16,0,0,1,40.82,25.14c13,12,21.33,28.31,26,45.2,6.27,23.07,5.87,48.2-2.63,70.66a101.27,101.27,0,0,1-29.39,41.58c-26.89,22.95-64.46,31.93-99,25.09-18.86-3.78-37.38-10.89-52.58-22.89-19.64-15.13-31.89-38.27-36.5-62.36-6.18-27.89-.84-58.63,16.18-81.81C1162.07,241.36,1191.91,224,1223.57,219.75Zm4.88,55.84a38.69,38.69,0,0,0-19.2,8.59,49.72,49.72,0,0,0-18.1,24.78,59.09,59.09,0,0,0,5.26,47.62,46.44,46.44,0,0,0,20.91,19.12c6.21,2.76,12.77,5.27,19.69,5.19,16.75-.61,33.5-9.08,42.47-23.51,12.42-19.48,11.29-46.71-3.08-64.88C1265.36,278.31,1245.89,271.87,1228.45,275.59Z" transform="translate(-25.03 -19.54)" style="fill:#fff"/><path d="M1468.92,225.74c32-13.51,70.66-6.83,97.36,14.93,7.16,5.81,14.13,12.18,18.75,20.28,5.48,9.44,7.21,20.47,8.17,31.19,1.61,21.25.94,42.57,1.09,63.86v70.75a3.42,3.42,0,0,1-3.42,3.42c-19.46,0-38.92-.1-58.37-.08a3.42,3.42,0,0,1-3.43-3.42q0-38.34.16-76.68c0-14,.48-28.05-1.79-41.9-1.48-8.34-4.34-17-10.78-22.83-6.12-5.62-14.64-7.59-22.73-7.75-6.7-.35-13.59.64-19.52,3.92-7.33,3.69-12.9,10.23-16.22,17.65-4.4,9.71-5.79,20.44-6.57,31-.77,12-.55,24-.5,35.95q.15,30.31.27,60.66a3.41,3.41,0,0,1-3.42,3.43c-19.77,0-39.53.1-59.3,0a3.44,3.44,0,0,1-3.4-3.43q0-99.14.07-198.29a3.44,3.44,0,0,1,3.4-3.43c19.68-.14,39.37,0,59.06,0a3.43,3.43,0,0,1,3.43,3.37h0a3.42,3.42,0,0,0,5.09,2.93C1460.3,228.93,1464.77,227.55,1468.92,225.74Z" transform="translate(-25.03 -19.54)" style="fill:#fff"/><path d="M1026.68,238.31a3.42,3.42,0,0,0,5.64,2.57c14.08-12,32.37-19,50.79-20.24,8.64-.63,17.2.82,25.76,1.88a3.42,3.42,0,0,1,3,3.53c-.8,19.89-1.51,39.79-2.41,59.68a3.43,3.43,0,0,1-3.38,3.27c-17.33.14-35.29,1.88-50.62,10.49-10.86,6.06-18.71,16.57-22.64,28.26-5.72,16.74-6.21,34.66-6.5,52.19-.07,15.52.2,31.05.34,46.59a3.43,3.43,0,0,1-3.41,3.46c-19.72.09-39.44.05-59.15.1a3.43,3.43,0,0,1-3.43-3.42q0-99.21.12-198.4a3.41,3.41,0,0,1,3.43-3.42c19.67,0,39.35-.1,59,.05a3.42,3.42,0,0,1,3.4,3.4C1026.65,231.64,1026.65,235,1026.68,238.31Z" transform="translate(-25.03 -19.54)" style="fill:#fff"/><path d="M29.92,208.4c4-1.66,8.59-1,12.38.84,13,5.92,25.09,13.66,37.73,20.31,9.28,5.15,18.71,10.27,26.89,17.1,5.79,4.78,7.48,12.65,8,19.78.48,10.35-.53,20.7,0,31,0,34.67.42,69.35.06,104,.24,10.07-2.12,20.95,2.74,30.29,2,4.39,5.88,7.54,9.62,10.46,11.78,8.93,24.87,15.88,37.62,23.28,8.48,4.74,16.92,9.79,26.21,12.8,3.92,1.45,8.64,1,11.71-2,3.31-2.78,3.87-7.31,4.35-11.32a120.88,120.88,0,0,0-.52-30c-.87-4.83-1.84-10.11-5.51-13.69-7-7.36-17.57-9.36-25-16.11a19.69,19.69,0,0,1-6.34-13.73c-.69-37,.06-74-.23-111,.15-4.61-.06-9.41,1.64-13.79,1.07-2.77,4.49-3.35,7.1-3.44a104.13,104.13,0,0,1,11.84,6c32.6,18.61,64.76,38,97.44,56.51a87.37,87.37,0,0,0,9.31,5c.14,1.59.28,3.2.33,4.81,0,43.86-.25,87.72-.25,131.58-.7,49.78,1.21,99.56.38,149.34-.29,5.5-.05,11.25-2.16,16.45-1.41,3.08-4.84,5.3-8.28,4.52-7.53-1.35-14.1-5.59-20.7-9.2-14.52-8.49-28.79-17.41-43.54-25.49-37.3-20.8-74-42.59-111-64-15.35-8.59-30.48-17.58-45.8-26.22C56.5,507,47,501.66,37.81,495.68c-2.92-2-6-3.92-8.38-6.64-3.75-4.61-3.93-10.88-4.29-16.54-.42-13.35.46-26.69.61-40,.21-38.33,0-76.67,0-115-.08-23.66.11-47.33-.35-71-.11-10-.31-20.07.78-30C26.58,213.51,27,209.9,29.92,208.4Z" transform="translate(-25.03 -19.54)" style="fill:#af0038"/></svg>